<?xml version="1.0" encoding="utf-8"?>
<!-- Generator: Adobe Illustrator 27.5.0, SVG Export Plug-In . SVG Version: 6.00 Build 0)  -->
<svg version="1.1" xmlns="http://www.w3.org/2000/svg" xmlns:xlink="http://www.w3.org/1999/xlink" x="0px" y="0px"
	 viewBox="0 0 500 500" style="enable-background:new 0 0 500 500;" xml:space="preserve">
<g id="BACKGROUND">
	<rect style="fill:#FFE6CA;" width="500" height="500"/>
</g>
<g id="OBJECTS">
	<ellipse style="fill:#F7CFA9;" cx="258.395" cy="441.5" rx="135.679" ry="27.678"/>
	<g>
		<g>
			<path style="fill:#623022;" d="M230.873,246.249c0.021,2.641-0.266,5.249-0.861,7.826c-0.611,2.651-1.812,5.042-3.443,7.199
				c-2.327,3.071-5.669,4.155-9.346,3.161c-0.632-0.165-1.174-0.457-1.7-0.813c-1.706-1.148-3.14-2.476-4.335-3.958
				c-1.307-1.621-2.322-3.432-3.071-5.409c-0.43-1.116-0.77-2.285-1.031-3.501c-1.376-6.445-0.282-12.443,3.544-17.868
				c0.016-0.021,0.032-0.048,0.048-0.069c0.531-0.749,1.174-1.429,1.801-2.109c2.056-2.226,4.665-2.726,7.502-2.221
				c3.416,0.606,5.94,2.572,7.768,5.473c0.16,0.255,0.314,0.51,0.457,0.77c1.658,2.917,2.428,6.115,2.657,9.468
				C230.911,244.879,230.873,245.564,230.873,246.249z"/>
			<path style="fill:#623022;" d="M281.731,247.163c-0.032,5.6-1.222,10.153-4.017,14.229c-1.206,1.753-2.731,3.156-4.585,4.219
				c-0.638,0.367-1.222,0.462-1.939,0.292c-1.525-0.356-2.933-0.898-4.235-1.615c-1.812-0.988-3.416-2.316-4.835-3.942
				c-2.306-2.651-3.857-5.855-4.633-9.245c-1.456-6.28-0.266-13.203,3.608-18.437c0.058-0.08,0.122-0.159,0.181-0.239
				c3.315-4.32,7.114-4.872,11.705-2.572c2.672,1.339,4.612,3.395,5.967,6.025c0.335,0.648,0.638,1.307,0.903,1.966
				C281.136,241.011,281.678,244.273,281.731,247.163z"/>
			<path style="fill:#C23D2A;" d="M224.823,282.99c0.787,0.353,1.718,0.35,2.444,0.815c0.536,0.343,0.893,0.899,1.253,1.424
				c3.49,5.095,8.892,8.811,14.858,10.408c5.965,1.597,12.445,1.092,18.156-1.257c1.896-0.78,3.733-1.772,5.23-3.173
				c1.349-1.262,2.383-2.817,3.404-4.357c1.271-1.916,2.542-3.832,3.813-5.749c-1.483-0.86-3.427-0.406-4.839,0.566
				c-1.413,0.971-2.453,2.379-3.629,3.626c-3.816,4.051-9.294,6.487-14.857,6.608c-3.138,0.069-6.265-0.569-9.222-1.622
				c-2.307-0.822-4.561-1.923-6.333-3.613c-1.285-1.226-2.283-2.735-3.018-4.353c-0.256-0.564-0.508-1.175-1.023-1.52
				c-0.418-0.28-0.942-0.336-1.443-0.385c-1.399-0.134-2.797-0.269-4.197-0.404C223.423,279.815,223.181,282.253,224.823,282.99z"/>
			<path style="fill:#E27E6E;" d="M246.43,270.992c-1.94-1.399-3.138-3.892-2.689-6.241c0.111-0.58,0.323-1.154,0.702-1.606
				c0.582-0.693,1.487-1.025,2.37-1.225c1.918-0.436,4.061-0.35,5.682,0.764c1.39,0.955,2.245,2.606,2.339,4.29
				c0.085,1.523-0.541,4.342-1.996,5.224C251.068,273.27,247.918,272.065,246.43,270.992z"/>
			<path style="fill:#54251A;" d="M230.873,246.249c0.021,2.641-0.266,5.249-0.861,7.826c-0.611,2.651-1.812,5.042-3.443,7.199
				c-2.327,3.071-5.669,4.155-9.346,3.161c-0.632-0.165-1.174-0.457-1.7-0.813c-1.706-1.148-3.14-2.476-4.335-3.958
				c-1.307-1.621-2.322-3.432-3.071-5.409c2.471,1.684,5.728,2.37,8.682,1.695c4.957-1.137,8.804-5.403,10.43-10.223
				c0.903-2.678,1.201-5.526,1.1-8.342c-0.021-0.659-0.234-1.822-0.122-2.657c1.658,2.917,2.428,6.115,2.657,9.468
				C230.911,244.879,230.873,245.564,230.873,246.249z"/>
			<path style="fill:#54251A;" d="M281.731,247.163c-0.032,5.6-1.222,10.153-4.017,14.229c-1.206,1.753-2.731,3.156-4.585,4.219
				c-0.638,0.367-1.222,0.462-1.939,0.292c-1.525-0.356-2.933-0.898-4.235-1.615c-1.812-0.988-3.416-2.316-4.835-3.942
				c-2.306-2.651-3.857-5.855-4.633-9.245c1.992,1.578,4.24,2.827,6.695,3.432c3.337,0.824,7.088,0.345,9.803-1.753
				c1.849-1.424,3.113-3.485,4.022-5.637c1.233-2.933,1.86-6.121,1.844-9.298C281.136,241.011,281.678,244.273,281.731,247.163z"/>
			<path style="fill:#FFFFFF;" d="M250.957,126.671c-0.755,5.547-2.736,10.653-5.478,15.488c-2.146,3.772-4.336,7.518-6.53,11.259
				c-1.897,3.246-3.639,6.562-4.893,10.122c-1.068,3.023-1.711,6.1-1.413,9.325c0.027,0.255,0.17,0.563-0.218,0.85
				c-0.526-0.723-0.76-1.557-0.983-2.38c-1.307-4.925-1.201-9.675,0.314-14.234c0.542-1.637,1.264-3.241,2.168-4.824
				c1.785-3.135,3.725-6.179,5.552-9.287c1.987-3.379,3.661-6.886,4.415-10.775c1.041-5.35,0.356-10.382-2.678-14.999
				c-3.464-5.276-9.755-7.964-15.849-6.785c-5.09,0.988-9.479,6.121-9.404,11.067c0.058,3.772,1.753,6.615,5.032,8.506
				c0.244,0.143,0.547,0.212,0.728,0.531c-0.648,0.494-1.429,0.595-2.184,0.659c-0.298,0.027-0.59,0.042-0.877,0.042
				c-2.338,0.037-4.479-0.638-6.355-2.194c-3.623-2.991-5.287-6.87-5.35-11.535c-0.08-5.829,3.985-14.67,10.079-18.24
				c4.957-2.901,10.217-3.873,15.759-2.311c9.718,2.747,15.77,9.149,18.134,18.952C251.781,119.461,251.446,123.08,250.957,126.671z
				"/>
			<path style="fill:#623022;" d="M335.165,174.23c-0.627-0.893-1.488-1.536-2.386-2.131c-2.205-1.472-4.612-2.529-7.077-3.47
				c-1.281-0.489-2.566-0.946-3.863-1.376c-6.663-2.21-13.511-3.714-20.413-5.032c-12.268-2.338-24.658-3.804-37.091-4.904
				c-0.744-0.069-1.318,0.053-1.844,0.6c-0.707,0.744-1.461,1.434-2.2,2.146c-5.717,5.52-8.788,12.417-10.419,20.057
				c-0.011,0.043-0.021,0.085-0.032,0.128c-0.212,0.94-0.441,1.18-1.323,1.302c-0.956,0.128-1.265-0.021-1.748-0.93
				c-0.122-0.229-0.228-0.462-0.324-0.696c-0.574-1.344-0.792-2.779-0.924-4.235c-0.547-6.131,0.643-11.928,3.331-17.443
				c0.271-0.558,0.627-1.089,0.744-1.902c-2.354-0.101-4.628-0.165-6.897-0.313c-0.807-0.053-1.233,0.276-1.642,0.914
				c-1.934,3.007-3.576,6.153-4.782,9.521c-0.643,1.801-1.068,3.645-1.025,5.579c0.048,2.423,0.462,4.755,1.706,6.865
				c0.074,0.128,0.154,0.255,0.234,0.382c0.351,0.537,0.537,1.057,0.032,1.583c-0.505,0.526-1.047,0.351-1.594,0.037
				c-0.723-0.409-1.419-0.855-2.03-1.424c-0.383-0.356-0.749-0.723-1.089-1.1c-1.844-2.008-3.172-4.336-3.953-6.997
				c-1.392-4.723-1.551-9.5-0.478-14.314c0.09-0.404,0.319-0.813,0.005-1.339h-1.126c-13.618-0.032-27.203,0.505-40.704,2.396
				c-2.672,0.377-5.334,0.813-7.97,1.381c-2.311,0.494-4.607,1.089-6.875,1.822c-1.854,0.606-3.677,1.291-5.355,2.311
				c-3.076,1.865-3.135,3.236-0.223,5.409c1.573,1.174,3.31,2.056,5.101,2.842c6.1,2.673,12.497,4.378,18.968,5.85
				c13.235,3.002,26.661,4.798,40.157,6.105c11.7,1.126,23.436,1.753,35.189,1.987c11.901,0.239,23.792-0.037,35.662-1.015
				c7.098-0.59,14.16-1.429,21.12-2.97c3.384-0.749,6.721-1.663,9.866-3.156c1.148-0.547,2.263-1.164,3.129-2.12
				C335.792,175.728,335.819,175.175,335.165,174.23z M214.509,163.954c0.568-0.17,1.148-0.207,1.737-0.175
				c0.823,0.048,1.652,0.106,2.476,0.165c0,0.011,0.005,0.021,0.005,0.032c1.02,0,2.046-0.011,3.066,0
				c0.834,0.011,1.211,0.282,1.259,0.887c0.053,0.648-0.377,1.169-1.19,1.174c-2.194,0.005-4.383-0.064-6.578-0.128
				c-0.282-0.005-0.574-0.112-0.85-0.207c-0.404-0.149-0.627-0.462-0.606-0.898C213.85,164.368,214.084,164.081,214.509,163.954z
				 M202.953,174.787c-3.969-0.473-7.938-0.919-11.854-1.743c-1.482-0.313-2.928-0.749-4.272-1.466
				c-0.781-0.414-1.514-0.898-2.077-1.594c-0.473-0.579-0.701-1.195-0.68-1.796c0.011-0.659,0.314-1.296,0.909-1.86
				c0.797-0.76,1.785-1.169,2.827-1.472c2.306-0.669,4.686-0.898,7.061-1.105c2.577-0.228,5.17-0.186,7.731-0.569
				c0.531-0.074,1.079-0.037,1.578,0.197c0.839,0.393,0.908,1.339,0.128,1.849c-0.414,0.271-0.903,0.393-1.387,0.436
				c-1.36,0.106-2.704,0.34-4.075,0.361c-2.975,0.048-5.935,0.324-8.868,0.866c-0.813,0.154-1.62,0.356-2.375,0.701
				c-0.335,0.149-0.834,0.239-0.834,0.701c-0.005,0.43,0.452,0.6,0.77,0.808c0.659,0.43,1.387,0.723,2.125,0.962
				c2.513,0.829,5.133,1.132,7.736,1.525c7.762,1.174,15.573,1.902,23.399,2.508c0.484,0.037,0.972,0.037,1.461,0.037
				c0.956-0.005,1.365,0.234,1.424,0.861c0.069,0.669-0.42,1.158-1.339,1.217c-1.169,0.08-2.338,0.005-3.23-0.09
				c-4.575-0.34-8.969-0.6-13.315-1.031C204.844,175,203.898,174.899,202.953,174.787z M260.68,165.319
				c0.111-0.659,0.595-0.85,1.179-0.845c1.275,0.005,2.518,0.271,3.762,0.499c5.324,0.983,10.701,1.583,16.067,2.242
				c5.127,0.627,10.26,1.222,15.249,2.635c1.881,0.537,3.714,1.19,5.35,2.3c0.77,0.521,1.498,1.089,2.04,1.86
				c0.893,1.254,0.76,2.476-0.377,3.517c-0.59,0.542-1.302,0.855-2.067,1.041c-2.247,0.537-4.532,0.632-6.827,0.616
				c-0.239,0-0.494-0.032-0.717-0.112c-0.483-0.175-0.855-0.473-0.866-1.052c-0.011-0.563,0.308-0.946,0.813-1.079
				c0.558-0.154,1.148-0.207,1.727-0.25c1.557-0.112,3.124-0.037,4.654-0.409c0.563-0.133,1.142-0.223,1.621-0.696
				c-0.574-1.02-1.53-1.509-2.476-1.982c-2.375-1.19-4.936-1.796-7.518-2.317c-4.399-0.877-8.857-1.376-13.299-2.003
				c-5.159-0.723-10.318-1.477-15.429-2.503c-0.622-0.128-1.259-0.154-1.881-0.276C260.935,166.361,260.579,165.92,260.68,165.319z
				 M281.566,177.965c0.048-0.505,0.377-0.781,0.861-0.839c0.383-0.048,0.776-0.069,1.158-0.032c1.891,0.17,3.778,0.409,5.685,0.26
				c0.611-0.043,1.052,0.197,1.206,0.813c0.128,0.537-0.297,1.153-0.972,1.227c-0.866,0.09-1.748,0.021-2.625,0.021
				c-1.222,0.122-2.428-0.048-3.634-0.212c-0.335-0.043-0.675-0.117-0.988-0.239C281.816,178.799,281.518,178.475,281.566,177.965z"
				/>
			<path style="fill:#DE5E4A;" d="M248.062,145.911c-1.166,1.951-2.342,3.896-3.671,6.1c2.38,0.113,4.513,0.177,6.639,0.334
				c0.813,0.06,1.222-0.269,1.62-0.915c0.943-1.529,1.969-3.007,2.948-4.514c0.173-0.267,0.496-0.491,0.31-1.049
				c-2.302-0.141-4.659-0.287-7.016-0.429C248.518,145.417,248.257,145.584,248.062,145.911z"/>
			<path style="fill:#FFFFFF;" d="M292.565,116.964c-3.177,8.979-8.411,16.55-15.392,22.979c-2.837,2.609-5.775,5.101-8.745,7.555
				c-3.241,2.673-6.264,5.568-9.218,8.554c-5.127,5.186-8.639,11.269-10.424,18.341c-0.133,0.515-0.292,1.02-0.473,1.631
				c-0.521-0.467-0.361-0.983-0.356-1.424c0.037-4.043,0.76-7.943,2.412-11.662c1.732-3.9,3.964-7.497,6.514-10.903
				c1.721-2.301,3.459-4.596,5.196-6.886c2.354-3.108,4.718-6.216,7.061-9.335c2.672-3.549,5.127-7.242,7.221-11.168
				c3.241-6.084,5.074-12.555,5.276-19.446c0.228-8.06-2.359-15.052-8.225-20.695c-2.981-2.864-6.551-4.442-10.722-4.182
				c-4.07,0.255-7.47,1.838-9.436,5.669c-1.084,2.12-1.307,4.367-0.701,6.684c0.367,1.397,1.18,2.524,2.184,3.597
				c-0.489,0.021-0.956,0-1.397-0.058c-1.828-0.244-3.284-1.185-4.378-2.795c-1.27-1.87-1.833-3.958-1.812-6.222
				c0.085-8.156,5.834-15.69,13.687-17.905c6.774-1.913,13.235-1.238,19.297,2.423c9.011,5.446,14.223,13.41,15.493,23.872
				C296.523,102.975,295.019,110.036,292.565,116.964z"/>
			<path style="fill:#F8F1F0;" d="M277.864,226.474c-1.971-0.551-3.965-0.689-5.991-0.356c0.035,0.447,0.316,0.444,0.532,0.512
				c4.531,1.415,7.862,4.322,9.936,8.512c4.846,9.792,4.724,19.415-1.374,28.719c-0.18,0.275-0.47,0.496-0.479,1.095
				c3.116-1.419,5.45-3.49,7.267-6.163c5.216-7.672,4.921-18.545-0.7-25.927C284.68,229.749,281.667,227.537,277.864,226.474z"/>
			<path style="fill:#D34E36;" d="M355.791,185.722c-0.202-2.03-0.51-4.054-0.935-6.073c0-0.011-0.005-0.021-0.005-0.032
				c-0.436-2.062-1.233-3.884-2.529-5.52c-1.403-1.769-3.103-3.236-4.915-4.564c-2.965-2.173-6.153-3.948-9.463-5.526
				c-1.116-0.531-2.232-1.041-3.363-1.536c-5.887-2.561-11.981-4.596-18.16-6.37c-10.132-2.912-20.434-5.042-30.838-6.727
				c-3.225-0.521-6.466-0.93-9.691-1.445c-0.999-0.159-1.764,0.048-2.524,0.728c-1.488,1.339-3.055,2.582-4.58,3.873
				c-0.287,0.244-0.669,0.42-0.781,0.866c0.308,0.292,0.717,0.266,1.089,0.298c7.433,0.669,14.84,1.567,22.214,2.683
				c8.777,1.328,17.496,2.954,26.072,5.292c5.037,1.371,10.01,2.938,14.685,5.302c1.397,0.712,2.752,1.493,3.985,2.46
				c0.345,0.26,0.68,0.542,1.004,0.839c3.762,3.475,3.533,7.423-0.595,10.456c-0.053,0.037-0.106,0.074-0.159,0.112
				c-1.706,1.222-3.602,2.062-5.568,2.773c-4.649,1.69-9.468,2.678-14.33,3.475c-9.16,1.504-18.4,2.2-27.66,2.577
				c-19.77,0.802-39.503,0.064-59.194-1.775c-11.12-1.036-22.188-2.492-33.16-4.612c-7.661-1.482-15.259-3.225-22.629-5.844
				c-3.31-1.18-6.546-2.54-9.5-4.49c-1.307-0.861-2.508-1.86-3.443-3.135c-1.801-2.46-1.647-5.223,0.398-7.481
				c0.994-1.1,2.2-1.923,3.496-2.619c2.242-1.211,4.628-2.056,7.072-2.752c7.816-2.237,15.844-3.273,23.904-4.022
				c9.234-0.855,18.495-1.243,27.767-1.249c1.806,0,3.608-0.032,5.414,0.016c0.733,0.016,1.137-0.239,1.472-0.898
				c0.717-1.44,1.535-2.827,2.3-4.24c0.271-0.499,0.717-0.93,0.744-1.546c-0.531-0.298-1.079-0.186-1.599-0.191
				c-14.553-0.191-29.063,0.462-43.488,2.503c-6.955,0.988-13.846,2.317-20.583,4.346c-4.819,1.456-9.526,3.183-13.83,5.855
				c-1.79,1.111-3.448,2.38-4.803,4.017c-0.882,1.073-1.53,2.253-1.721,3.655c-0.25,1.838-0.414,3.687-0.542,5.536
				c-0.021,0.34-0.042,0.68-0.064,1.02c-0.037,0.531-0.069,1.068-0.096,1.599c-0.298,5.26-0.59,10.52-0.818,15.78
				c-0.271,6.286-0.537,12.571-0.329,18.867c0.154,4.755,0.441,9.495,0.85,14.223c0.42,4.984,0.972,9.957,1.626,14.919
				c0.978,7.396,2.306,14.712,4.07,21.938c0.728,2.997,1.536,5.977,2.423,8.942c3.964,13.267,10.732,24.642,20.493,34.02
				c1.679,1.62,3.448,3.177,5.308,4.676c4.123,3.321,8.506,6.184,13.49,8.092c7.109,2.72,14.335,5.079,21.624,7.226
				c5.34,1.573,10.839,2.444,16.306,3.416c6.147,1.095,12.332,1.929,18.596,1.992c6.004,0.064,11.997-0.191,17.985-0.558
				c3.794-0.234,7.587-0.606,11.317-1.381c3.432-0.712,6.817-1.658,10.201-2.587c18.012-4.952,32.437-14.957,42.983-30.439
				c0.377-0.553,0.84-1.057,1.057-1.652c-0.202-0.441-0.579-0.473-0.882-0.595c-3.347-1.334-6.7-2.667-10.063-3.974
				c-1.801-0.696-1.812-0.675-2.194,1.296c-0.223,1.148-0.425,2.301-0.659,3.443c-0.085,0.436-0.377,0.675-0.839,0.627
				c-0.43-0.048-0.547-0.361-0.574-0.728c-0.021-0.287-0.027-0.584-0.011-0.877c0.308-7.258,2.471-13.878,6.918-19.68
				c1.28-1.674,2.832-3.092,4.564-4.293c0.202-0.138,0.398-0.292,0.606-0.415c0.314-0.175,0.664-0.303,0.919,0.043
				c0.228,0.303-0.037,0.542-0.234,0.749c-0.627,0.685-1.27,1.35-1.881,2.046c-0.51,0.584-0.462,0.712,0.282,1.009
				c0.228,0.085,0.468,0.133,0.701,0.202c3.921,1.18,7.842,2.354,11.763,3.539c1.429,0.43,1.413,0.43,2.024-0.946
				c2.673-5.983,4.638-12.204,6.333-18.522c2.37-8.804,3.358-17.815,4.022-26.869c0.786-10.701,1.19-21.428,1.461-32.155
				C356.174,191.704,356.094,188.702,355.791,185.722z M335.033,192.13c0.053-0.308,0.228-0.595,0.42-0.866
				c0.154-0.213,0.329-0.404,0.526-0.568c0.351-0.308,0.76-0.542,1.19-0.749c1.753-0.839,3.501-1.7,5.249-2.55
				c3.724-1.806,6.944-4.266,9.569-7.481c0.414-0.505,0.85-0.818,1.493-0.457c0.462,0.26,0.627,0.691,0.483,1.227
				c-0.037,0.133-0.096,0.276-0.17,0.42c-0.43,0.824-1.025,1.541-1.663,2.21c-2.635,2.757-5.494,5.217-8.921,6.976
				c-1.551,0.802-3.06,1.695-4.591,2.545c-0.643,0.356-1.318,0.616-2.072,0.654c-0.239-0.021-0.489-0.032-0.717-0.096
				c-0.276-0.069-0.521-0.207-0.68-0.505C335.006,192.624,334.985,192.374,335.033,192.13z M325.602,195.185
				c0.117-0.112,0.244-0.212,0.372-0.314c0.308-0.239,0.68-0.356,1.052-0.467c1.435-0.43,2.864-0.887,4.293-1.328
				c0.515-0.159,0.909-0.17,1.195-0.037c0.197,0.09,0.34,0.244,0.441,0.467c0.25,0.568,0.021,1.18-0.717,1.536
				c-1.658,0.802-3.411,1.36-5.164,1.902c-0.138,0.042-0.287,0.042-0.441,0.058c-0.584-0.058-1.211-0.133-1.381-0.813
				C325.145,195.769,325.331,195.45,325.602,195.185z M229.2,282.963c-0.558-1.116-0.563-1.084-1.865-0.877
				c-0.717,0.112-1.456,0.154-2.184,0.149c-0.994-0.005-1.573-0.537-1.568-1.334c0.005-0.786,0.579-1.286,1.589-1.344
				c0.675-0.042,1.355,0.021,2.035-0.127c2.088-0.462,3.719-1.642,5.127-3.188c0.159-0.181,0.282-0.393,0.436-0.584
				c0.393-0.478,0.882-0.622,1.419-0.298c0.547,0.329,0.632,0.877,0.398,1.413c-0.335,0.765-0.909,1.376-1.493,1.971
				c-0.914,0.941-0.924,0.951-0.372,2.115c1.61,3.395,4.203,5.818,7.529,7.481c2.88,1.44,5.94,2.152,9.171,2.141
				c5.042-0.064,9.58-1.557,13.464-4.84c1.578-1.334,2.827-2.944,3.815-4.766c0.361-0.659,0.462-1.19-0.09-1.833
				c-0.632-0.744-1.036-1.652-1.201-2.635c-0.144-0.871,0.101-1.376,0.707-1.541c0.616-0.17,1.036,0.122,1.376,0.946
				c1.174,2.88,3.029,4.011,6.169,3.767c0.239-0.021,0.483-0.069,0.728-0.059c0.818,0.032,1.328,0.478,1.392,1.206
				c0.064,0.701-0.377,1.323-1.142,1.461c-1.015,0.181-2.051,0.212-3.055,0c-0.723-0.159-1.031,0.133-1.371,0.717
				c-4.389,7.582-11.2,11.131-19.744,11.593c-5.52,0.298-10.616-1.137-15.142-4.394C232.712,288.223,230.655,285.848,229.2,282.963z
				 M264.102,213.983c1.902-3.905,3.81-7.816,7.444-10.488c0.515-0.377,1.041-0.717,1.573-1.015
				c1.604-0.893,3.284-1.403,4.893-1.387c1.674-0.005,3.098,0.308,4.346,0.871c1.615,0.723,2.938,1.87,4.112,3.283
				c0.877,1.057,1.504,2.274,2.04,3.533c0.802,1.881,1.504,3.799,2.088,5.759c0.069,0.234,0.154,0.467,0.207,0.701
				c0.255,1.254-0.255,2.285-1.275,2.614c-1.1,0.356-2.184-0.212-2.619-1.493c-0.569-1.658-1.031-3.347-1.562-5.016
				c-0.351-1.116-0.765-2.21-1.35-3.23c-2.077-3.592-5.6-4.734-9.383-3.044c-1.822,0.813-3.262,2.109-4.532,3.613
				c-1.355,1.61-2.455,3.39-3.401,5.265c-0.197,0.388-0.388,0.792-0.648,1.137c-0.377,0.483-0.93,0.584-1.44,0.287
				C264.091,215.077,263.836,214.525,264.102,213.983z M260.048,227.738c7.539-7.497,18.824-7.874,26.874-0.919
				c4.495,3.884,7.136,8.846,8.166,14.648c1.18,6.636,0.17,12.927-3.379,18.708c-2.837,4.612-6.774,7.954-12.05,9.394
				c-6.875,1.881-13.07,0.319-18.389-4.357c-5.807-5.101-8.299-11.742-8.48-19.165C252.907,238.885,255.043,232.717,260.048,227.738
				z M254.91,262.104c0.287,0.255,0.568,0.547,0.776,0.866c0.51,0.797,0.398,1.748-0.229,2.428
				c-0.669,0.723-1.668,0.877-2.529,0.335c-0.367-0.228-0.664-0.563-1.01-0.829c-1.126-0.861-2.38-1.328-3.815-1.132
				c-1.69,0.229-2.524,1.53-2.051,3.161c0.616,2.12,3.135,3.767,5.334,3.485c0.388-0.048,0.765-0.17,1.153-0.186
				c1.047-0.048,1.833,0.526,2.072,1.466c0.255,1.015-0.197,1.929-1.19,2.391c-0.537,0.25-1.126,0.319-1.7,0.388
				c-4.022,0.489-8.475-2.465-9.596-6.36c-1.296-4.5,1.759-8.448,5.749-8.448C251.074,259.644,253.13,260.526,254.91,262.104z
				 M213.096,211.937c1.1-3.299,2.858-6.184,5.409-8.57c1.296-1.211,2.789-2.12,4.452-2.747c0.229-0.085,0.462-0.159,0.691-0.223
				c2.136-0.616,4.203-0.351,6.216,0.744c0.069,0.037,0.138,0.074,0.207,0.122c1.838,1.041,3.289,2.481,4.383,4.282
				c1.621,2.667,2.503,5.6,3.002,8.65c0.244,1.504-0.728,2.587-2.104,2.503c-0.924-0.058-1.573-0.595-1.828-1.615
				c-0.223-0.898-0.351-1.817-0.542-2.726c-0.287-1.334-0.664-2.646-1.212-3.905c-0.505-1.169-1.142-2.258-2.062-3.167
				c-2.136-2.115-4.171-2.481-6.918-1.275c-1.084,0.478-2.067,1.11-2.922,1.923c-2.444,2.338-4.282,5.053-5.042,8.395
				c-0.149,0.654-0.409,1.105-1.121,1.111c-0.627,0-0.978-0.499-0.999-1.355c-0.005-0.096-0.005-0.191-0.005-0.292
				C212.718,213.148,212.894,212.532,213.096,211.937z M208,229.614c3.044-3.762,6.865-6.355,11.646-7.327
				c5.536-1.126,10.685-0.037,15.275,3.252c5.791,4.144,8.9,9.936,9.994,16.891c0.106,0.675,0.191,1.355,0.228,2.035
				c0.037,0.68,0.011,1.36,0.011,2.046c-0.112,7.013-2.311,13.198-7.417,18.166c-6.1,5.935-14.84,7.353-22.443,3.544
				c-4.165-2.083-7.279-5.345-9.537-9.42C200.636,249.544,201.545,237.584,208,229.614z M166.361,182.895
				c0.202-0.51,0.611-0.824,1.137-0.696c0.935,0.223,1.876,0.478,2.726,0.946c0.499,0.276,0.792,0.755,0.59,1.35
				c-0.027,0.074-0.059,0.143-0.09,0.202c-0.175,0.308-0.473,0.441-0.824,0.489c-0.128,0.016-0.271,0.021-0.414,0.016
				c-0.94-0.287-1.918-0.579-2.763-1.153c-0.207-0.138-0.345-0.324-0.404-0.542v-0.005
				C166.265,183.315,166.276,183.108,166.361,182.895z M148.801,171.174c0.462-0.398,1.089-0.324,1.679,0.266
				c0.792,0.792,1.525,1.642,2.317,2.433c2.651,2.646,5.653,4.755,9.261,5.903c0.515,0.165,1.015,0.351,1.424,0.717
				c0.43,0.383,0.707,0.84,0.638,1.387c-0.005,0.096-0.027,0.197-0.058,0.298c-0.016,0.058-0.042,0.112-0.069,0.159
				c-0.234,0.452-0.808,0.707-1.567,0.701c-0.42,0.021-0.861-0.186-1.318-0.356c-3.422-1.312-6.344-3.363-8.905-5.961
				c-1.195-1.217-2.316-2.503-3.342-3.863c-0.144-0.197-0.25-0.377-0.319-0.547C148.355,171.849,148.456,171.472,148.801,171.174z"
				/>
			<path style="fill:#F8F1F0;" d="M233.228,237.494c1.92,5.377,2.115,10.862,0.986,16.434c-0.853,4.208-2.638,7.934-5.527,11.122
				c-0.088,0.097-0.178,0.218-0.085,0.369c0.091,0.01,0.192,0.05,0.272,0.026c0.279-0.086,0.555-0.186,0.825-0.296
				c3.213-1.313,5.794-3.433,7.677-6.322c4.141-6.353,4.843-13.162,2.369-20.287c-1.502-4.325-4.121-7.836-8.068-10.258
				c-2.772-1.701-5.771-2.538-9.075-2.146c2.124,0.83,4.037,1.95,5.682,3.507C230.601,231.837,232.165,234.517,233.228,237.494z"/>
			<path style="fill:#C23D2A;" d="M374.998,269.51c-5.903,2.609-12.056,3.815-18.527,3.087c-1.18-0.133-2.338-0.329-3.486-0.595
				c-0.94-0.212-1.865-0.467-2.789-0.76c-0.648-0.202-0.839-0.457-0.563-1.153c2.093-5.308,3.783-10.754,5.154-16.296
				c0.197-0.776,0.632-0.967,1.344-1.004c2.54-0.133,5.047-0.563,7.454-1.371c8.251-2.779,14.186-8.039,16.986-16.418
				c1.461-4.378,1.312-8.767-0.861-12.927c-2.455-4.691-6.493-7.268-11.583-8.315c-2.524-0.521-5.037-0.409-7.518,0.324
				c-1.148,0.34-1.142,0.324-1.142-0.813c0.005-2.949,0-5.898,0-8.846v-1.392h0.181c0.085-3.507,0.191-7.019,0.244-10.525
				c0.011-0.744,0.228-1.116,0.983-1.344c3.326-1.004,6.7-1.865,10.164-1.966c9.872-0.282,18.081,3.374,24.472,10.908
				c4.309,5.079,6.721,11.057,7.725,17.587C406.452,238.588,394.237,260.983,374.998,269.51z"/>
			<ellipse style="fill:#E79A8D;" cx="194.005" cy="269.192" rx="9.943" ry="7.314"/>
			<path style="fill:#F8F1F0;" d="M218.701,247.248c0,0-7.088,2.141-7.513,12.417c-2.046-2.534-3.379-5.536-4.102-8.91
				c-1.376-6.445-0.282-12.443,3.544-17.868C210.253,237.69,210.843,245.787,218.701,247.248z"/>
			<path style="fill:#F8F1F0;" d="M266.955,264.288c-1.812-0.988-3.416-2.316-4.835-3.942c-6.583-7.561-6.992-19.622-1.025-27.682
				c0.058-0.08,0.122-0.159,0.181-0.239c-0.749,5.51-0.744,14.882,8.034,14.824C269.309,247.248,259.001,252.611,266.955,264.288z"
				/>
			<path style="fill:#5B281C;" d="M335.022,176.583c-0.866,0.956-1.982,1.573-3.129,2.12c-3.145,1.493-6.482,2.407-9.866,3.156
				c-6.96,1.541-14.022,2.38-21.12,2.97c-11.87,0.978-23.76,1.254-35.662,1.015c-11.753-0.234-23.49-0.861-35.189-1.987
				c-13.495-1.307-26.922-3.103-40.157-6.105c-6.471-1.472-12.868-3.177-18.968-5.85c-1.79-0.786-3.528-1.668-5.101-2.842
				c-2.912-2.173-2.853-3.544,0.223-5.409c1.679-1.02,3.501-1.706,5.355-2.311c2.269-0.733,4.564-1.328,6.875-1.822
				c-0.792,1.142-1.121,2.423-0.096,4.102c0.383,0.616,0.94,1.1,1.504,1.557c1.397,1.126,2.859,2.125,4.378,3.012
				c6.503,3.831,14.043,5.69,21.726,6.902c3.74,0.59,7.513,1.02,11.221,1.451c5.148,0.595,10.313,1.238,15.493,1.849
				c1.482,0.175,2.965,0.351,4.447,0.521c3.161,0.361,6.328,0.707,9.489,1.015c1.132,0.117,2.263,0.223,3.395,0.324
				c18.756,1.711,37.5,2.115,55.794-1.939c4.681-1.036,9.505-2.476,12.964-5.791c1.488-1.424,2.63-3.283,3.241-5.265
				c1.296,0.43,2.582,0.887,3.863,1.376c2.465,0.94,4.872,1.998,7.077,3.47c0.898,0.595,1.759,1.238,2.386,2.131
				C335.819,175.175,335.792,175.728,335.022,176.583z"/>
			<path style="fill:#E0E0E0;" d="M245.644,126.544c-0.106,6.482-2.641,12.746-6.206,18.166c-2.603,3.969-5.797,7.619-7.55,12.034
				c-0.048,0.117-0.09,0.234-0.133,0.356c0.542-1.637,1.264-3.241,2.168-4.824c1.785-3.135,3.725-6.179,5.552-9.287
				c1.987-3.379,3.661-6.886,4.415-10.775c1.041-5.35,0.356-10.382-2.678-14.999c-3.464-5.276-9.755-7.964-15.849-6.785
				c-5.09,0.988-9.479,6.121-9.404,11.067c0.058,3.772,1.753,6.615,5.032,8.506c0.244,0.143,0.547,0.212,0.728,0.531
				c-0.648,0.494-1.429,0.595-2.184,0.659c-0.298,0.027-0.59,0.042-0.877,0.042c-1.785-1.307-3.756-2.333-4.723-4.84
				c-1.185-3.082-0.898-6.583,0.149-9.713c1.1-3.284,3.066-6.344,5.887-8.342c5.297-3.74,13.023-2.991,18.129,1.015
				C243.2,113.362,245.756,120.057,245.644,126.544z"/>
			<path style="fill:#E0E0E0;" d="M286.252,107.167c-0.877,12.162-8.836,22.608-17.385,31.3c-2.221,2.258-4.511,4.463-6.79,6.684
				c2.354-3.108,4.718-6.216,7.061-9.335c2.672-3.549,5.127-7.242,7.221-11.168c3.241-6.084,5.074-12.555,5.276-19.446
				c0.228-8.06-2.359-15.052-8.225-20.695c-2.981-2.864-6.551-4.442-10.722-4.182c-4.07,0.255-7.47,1.838-9.436,5.669
				c-1.084,2.12-1.307,4.367-0.701,6.684c0.367,1.397,1.18,2.524,2.184,3.597c-0.489,0.021-0.956,0-1.397-0.058
				c-1.514-2.003-2.71-3.895-2.821-6.796c-0.133-3.523,1.419-7.072,4.096-9.362c2.832-2.428,6.673-3.369,10.403-3.523
				c1.881-0.074,3.783,0.026,5.611,0.489c4.415,1.11,8.145,4.261,10.61,8.092c2.465,3.831,3.762,8.304,4.495,12.805
				C286.226,100.977,286.476,104.08,286.252,107.167z"/>
			<path style="fill:#B2271C;" d="M379.355,248.837c-6.599,4.617-15.759,5.292-21.189,11.243c-2.965,3.252-4.304,7.545-5.18,11.923
				c-0.94-0.212-1.865-0.467-2.789-0.76c-0.648-0.202-0.839-0.457-0.563-1.153c2.093-5.308,3.783-10.754,5.154-16.296
				c0.197-0.776,0.632-0.967,1.344-1.004c2.54-0.133,5.047-0.563,7.454-1.371c8.251-2.779,14.186-8.039,16.986-16.418
				c1.461-4.378,1.312-8.767-0.861-12.927c-2.455-4.691-6.493-7.268-11.583-8.315c-2.524-0.521-5.037-0.409-7.518,0.324
				c-1.148,0.34-1.142,0.324-1.142-0.813c0.005-2.949,0-5.898,0-8.846c1.233-0.43,2.768-0.632,4.665-0.568
				c5.202,0.17,10.377,1.706,14.813,4.415c2.471,1.504,4.75,3.395,6.386,5.775c1.642,2.38,2.593,5.175,3.167,8.007
				C390.497,231.84,387.537,243.109,379.355,248.837z"/>
			<ellipse style="fill:#E79A8D;" cx="304.913" cy="269.192" rx="9.943" ry="7.314"/>
			<path style="fill:#E38071;" d="M354.856,179.649c-0.282,0.351-0.585,0.696-0.893,1.036c-4.112,4.458-10.563,8.288-18.931,11.445
				c-0.824,0.313-1.663,0.616-2.518,0.909c-2.189,0.765-4.495,1.477-6.912,2.146c-11.971,3.337-26.661,5.621-43.244,6.78
				c-3.018,0.207-6.1,0.382-9.24,0.515c-5.547,0.239-11.275,0.361-17.156,0.361c-8.74,0-17.433-0.563-25.891-1.578
				c-2.157-0.26-4.298-0.547-6.424-0.866c-20.44-3.044-39.232-8.65-53.748-15.212c-1.227-0.558-2.423-1.116-3.581-1.679v-0.005
				c-0.792-0.383-1.567-0.77-2.327-1.164c-6.296-3.236-11.546-6.636-15.451-10.026c-0.606-0.526-1.18-1.052-1.721-1.573
				c0.128-1.849,0.292-3.698,0.542-5.536c0.191-1.403,0.84-2.582,1.721-3.655c1.355-1.636,3.013-2.906,4.803-4.017
				c4.304-2.673,9.011-4.399,13.83-5.855c6.737-2.03,13.628-3.358,20.583-4.346c14.425-2.04,28.935-2.694,43.488-2.503
				c0.521,0.005,1.068-0.106,1.599,0.191c-0.027,0.616-0.473,1.047-0.744,1.546c-0.765,1.413-1.583,2.8-2.3,4.24
				c-0.335,0.659-0.739,0.914-1.472,0.898c-1.807-0.048-3.608-0.016-5.414-0.016c-9.272,0.005-18.532,0.393-27.767,1.249
				c-8.06,0.749-16.088,1.785-23.904,4.022c-2.444,0.696-4.83,1.541-7.072,2.752c-1.296,0.696-2.503,1.52-3.496,2.619
				c-2.046,2.258-2.2,5.021-0.398,7.481c0.935,1.275,2.136,2.274,3.443,3.135c2.954,1.95,6.19,3.31,9.5,4.49
				c7.369,2.619,14.967,4.362,22.629,5.844c10.972,2.12,22.039,3.576,33.16,4.612c19.691,1.838,39.424,2.577,59.194,1.775
				c9.261-0.377,18.5-1.073,27.66-2.577c4.862-0.797,9.681-1.785,14.33-3.475c2.024-0.733,3.98-1.605,5.728-2.885
				c4.128-3.034,4.357-6.981,0.595-10.456c-1.482-1.365-3.199-2.391-4.989-3.299c-4.676-2.364-9.649-3.932-14.685-5.302
				c-8.576-2.338-17.294-3.964-26.072-5.292c-7.375-1.116-14.781-2.014-22.214-2.683c-0.372-0.032-0.781-0.005-1.089-0.298
				c0.112-0.446,0.494-0.622,0.781-0.866c1.525-1.291,3.092-2.534,4.58-3.873c0.76-0.68,1.525-0.887,2.524-0.728
				c3.225,0.515,6.466,0.924,9.691,1.445c10.403,1.684,20.705,3.815,30.838,6.727c7.364,2.115,14.601,4.596,21.524,7.906
				c3.31,1.578,6.498,3.353,9.463,5.526c1.812,1.328,3.512,2.795,4.915,4.564c1.296,1.636,2.093,3.459,2.529,5.52
				C354.851,179.628,354.856,179.638,354.856,179.649z"/>
			<path style="fill:#C23D2A;" d="M356.099,194.733c-0.271,10.727-0.675,21.454-1.461,32.155
				c-0.664,9.054-1.652,18.065-4.022,26.869c-1.695,6.317-3.661,12.539-6.333,18.522c-0.611,1.376-0.595,1.376-2.024,0.946
				c-3.921-1.185-7.842-2.359-11.763-3.539c-0.234-0.069-0.473-0.117-0.701-0.202c-0.744-0.298-0.792-0.425-0.282-1.009
				c0.611-0.696,1.254-1.36,1.881-2.046c0.197-0.207,0.462-0.446,0.234-0.749c-0.255-0.345-0.606-0.218-0.919-0.043
				c-0.207,0.122-0.404,0.276-0.606,0.415c-1.732,1.201-3.284,2.619-4.564,4.293c-4.447,5.802-6.609,12.422-6.918,19.68
				c-0.016,0.292-0.011,0.59,0.011,0.877c0.027,0.367,0.143,0.68,0.574,0.728c0.462,0.048,0.754-0.191,0.839-0.627
				c0.234-1.142,0.436-2.295,0.659-3.443c0.382-1.971,0.393-1.992,2.194-1.296c3.363,1.307,6.716,2.641,10.063,3.974
				c0.303,0.122,0.68,0.154,0.882,0.595c-0.218,0.595-0.68,1.1-1.057,1.652c-10.547,15.483-24.972,25.487-42.983,30.439
				c-3.385,0.93-6.769,1.875-10.201,2.587c-3.73,0.776-7.523,1.148-11.317,1.381c-5.988,0.367-11.981,0.622-17.985,0.558
				c-6.264-0.064-12.449-0.898-18.596-1.992c-5.467-0.972-10.966-1.844-16.306-3.416c-7.29-2.146-14.516-4.506-21.624-7.226
				c-4.984-1.907-9.367-4.771-13.49-8.092c-1.86-1.498-3.629-3.055-5.308-4.676c-9.76-9.378-16.529-20.753-20.493-34.02
				c-0.887-2.965-1.695-5.945-2.423-8.942c-1.764-7.226-3.092-14.542-4.07-21.938c-0.654-4.962-1.206-9.936-1.626-14.919
				c1.047,4.707,2.242,9.388,3.799,13.99c4.638,13.703,11.147,26.89,20.711,37.846c37.686,43.169,119.62,41.953,154.278-4.123
				c12.406-16.492,19.462-36.448,24.531-56.256c2.364-9.24,4.505-18.564,6.11-27.963
				C356.094,188.702,356.174,191.704,356.099,194.733z"/>
			<g>
				<path style="fill:#F8F1F0;" d="M383.191,296.262c-0.367,2.657-1.19,5.223-2.768,7.46c-0.563,0.797-1.222,1.546-1.987,2.247
					c-0.956,0.877-0.967,0.882-2.109,0.202c-9.41-5.579-19.239-10.323-29.329-14.5c-7.656-3.172-15.568-5.653-23.436-8.23
					c-1.652-0.537-1.652-0.521-1.153-2.168c0.696-2.311,1.652-4.506,2.811-6.604c0.351-0.627,0.717-1.249,1.1-1.865
					c0.733-1.18,0.749-1.19,2.083-0.754c7.082,2.332,14.048,4.968,20.96,7.768c3.246,1.318,6.535,2.545,9.787,3.863
					c7.136,2.901,14.149,6.057,20.961,9.665c0.861,0.457,1.679,0.988,2.502,1.514C383.26,295.269,383.25,295.285,383.191,296.262z"
					/>
				<path style="fill:#D5C4C3;" d="M380.423,303.722c-0.563,0.797-1.222,1.546-1.987,2.247c-0.956,0.877-0.967,0.882-2.109,0.202
					c-9.41-5.579-19.239-10.323-29.329-14.5c-7.656-3.172-15.568-5.653-23.436-8.23c-1.652-0.537-1.652-0.521-1.153-2.168
					c0.696-2.311,1.652-4.506,2.811-6.604c0.266,0.218,0.537,0.547,0.813,0.999c1.785,2.901,2.63,5.021,5.866,6.647
					c2.736,1.371,5.818,1.961,8.772,2.667c8.841,2.109,17.3,5.818,24.839,10.897c3.315,2.232,6.482,4.739,10.121,6.381
					C377.145,302.941,378.771,303.462,380.423,303.722z"/>
				<g>
					<path style="fill:#FFFFFF;" d="M440.669,308.599c-1.031,0.648-2.152,1.089-3.31,1.387h-0.005
						c-0.489,0.128-0.978,0.228-1.477,0.308c-2.943,0.462-5.898,0.829-8.873,0.839h-0.09c-0.462,0.011-0.924,0-1.387-0.021h-0.059
						c-0.606-0.021-1.217-0.058-1.822-0.117c-0.627-0.058-1.264-0.048-1.897-0.064c-0.239-0.005-0.462,0.016-0.638,0.117
						c-0.133,0.074-0.244,0.197-0.319,0.388c-0.101,0.266-0.101,0.505-0.027,0.723c0.069,0.218,0.218,0.414,0.404,0.59
						c0.329,0.298,0.77,0.398,1.201,0.51c2.311,0.59,4.633,1.137,6.923,1.806c2.147,0.627,4.166,1.567,5.914,2.986
						c0.09,0.074,0.181,0.149,0.271,0.223c1.1,0.94,1.961,2.035,2.109,3.549c0.143,1.472-0.409,2.566-1.727,3.252
						c-0.94,0.489-1.923,0.802-2.949,0.972c-0.367,0.059-0.738,0.101-1.116,0.122c-3.246,0.191-6.408-0.367-9.558-1.057
						c-5.568-1.227-11.147-2.37-16.673-3.783c-0.51-0.133-0.951-0.143-1.381,0.165c-0.611,0.436-0.696,0.85-0.26,1.472
						c0.011,0.016,0.027,0.037,0.037,0.053c0.191,0.255,0.415,0.489,0.611,0.739c1.371,1.684,2.359,3.565,2.949,5.664
						c0.143,0.515,0.244,1.025,0.292,1.52c0.143,1.589-0.266,3.055-1.514,4.32c-1.684,1.706-3.772,2.162-6.068,1.589
						c-1.589-0.398-2.975-1.201-4.181-2.316c-1.913-1.769-3.491-3.81-4.803-6.046c-1.562-2.651-2.938-5.393-3.99-8.289
						c-0.839-2.311-1.195-4.633,0.016-6.939c0.069-0.133,0.122-0.271,0.165-0.409c0.138-0.489,0.25-1.015-0.34-1.259
						c-0.515-0.218-0.797,0.212-1.036,0.585c-0.414,0.659-0.786,1.349-1.227,1.987c-1.323,1.897-3.209,2.614-5.451,2.497
						c-0.829-0.042-1.636-0.223-2.428-0.494c-2.433-0.834-4.835-3.262-4.282-7.189c0.638,0.048,1.015,0.388,1.429,0.622
						c0.606,0.345,1.413,0.584,0.558,1.551c-0.345,0.388,0.026,0.829,0.606,0.792c0.388-0.027,0.76-0.133,1.105-0.351
						c0.128-0.08,0.255-0.165,0.377-0.25c6.392-4.229,9.277-10.233,8.831-17.932c-0.048-0.781-0.112-1.557-0.191-2.332
						c-0.037-0.335-0.127-0.669-0.228-0.994c-0.085-0.287-0.26-0.531-0.6-0.547c-0.446-0.016-0.563,0.287-0.632,0.654
						c-0.027,0.128-0.112,0.244-0.186,0.398c-0.584-0.069-0.983-0.452-1.434-0.712c-0.414-0.239-0.898-0.388-1.19-0.813
						c0.085-0.505,0.51-0.701,0.861-0.94c1.424-0.962,2.981-1.344,4.622-1.28c0.319,0.016,0.643,0.042,0.967,0.085
						c0.903,0.122,1.637,0.553,2.232,1.27c1.45,1.759,2.269,3.73,2.136,6.046c-0.043,0.733-0.027,1.466-0.032,2.194
						c0,0.207,0.09,0.393,0.308,0.425c0.191,0.032,0.398-0.037,0.5-0.228c0.181-0.34,0.382-0.685,0.505-1.047
						c0.34-1.02,0.664-2.04,0.962-3.071c0.404-1.392,1.222-2.396,2.566-3.002c1.031-0.468,2.088-0.813,3.204-0.978
						c0.521-0.08,1.036-0.138,1.551-0.186c1.716-0.154,3.4-0.111,5.048,0.175c1.764,0.308,3.491,0.893,5.159,1.838
						c0.213,0.122,0.441,0.212,0.643,0.345c1.296,0.824,2.428,0.797,3.746-0.175c2.587-1.907,5.308-3.639,8.283-4.92
						c1.706-0.733,3.432-1.073,5.255-0.468c0.005,0,0.011,0.005,0.016,0.005c2.125,0.707,2.805,2.093,2.03,4.192
						c-0.085,0.228-0.175,0.446-0.282,0.664c-0.489,1.068-1.164,2.024-1.939,2.922c-2.168,2.508-4.925,4.261-7.672,6.03
						c-0.436,0.282-1.222,0.425-1.18,1.004c0,0.037,0.005,0.074,0.011,0.112c0.005,0.021,0.011,0.043,0.016,0.058
						c0.197,0.648,1.031,0.515,1.615,0.606c1.015,0.165,2.04,0.08,3.066,0.059c3.119-0.074,6.238-0.202,9.351,0.127
						c1.562,0.165,3.06,0.574,4.49,1.238c0.675,0.314,1.307,0.707,1.844,1.211c0.138,0.128,0.266,0.26,0.388,0.404
						C442.879,305.512,442.608,307.388,440.669,308.599z"/>
					<path style="fill:#E0E0E0;" d="M406.298,335.261c-1.684,1.706-3.772,2.162-6.068,1.589c-1.589-0.398-2.975-1.201-4.181-2.316
						c-1.913-1.769-3.491-3.81-4.803-6.046c-1.562-2.651-2.938-5.393-3.99-8.289c-0.839-2.311-1.195-4.633,0.016-6.939
						c0.069-0.133,0.122-0.271,0.165-0.409c0.138-0.489,0.25-1.015-0.34-1.259c-0.515-0.218-0.797,0.212-1.036,0.585
						c-0.414,0.659-0.786,1.349-1.227,1.987c-1.323,1.897-3.209,2.614-5.451,2.497c-0.829-0.042-1.636-0.223-2.428-0.494
						c-2.433-0.834-4.835-3.262-4.282-7.189c0.638,0.048,1.015,0.388,1.429,0.622c0.606,0.345,1.413,0.584,0.558,1.551
						c-0.345,0.388,0.026,0.829,0.606,0.792c0.388-0.027,0.76-0.133,1.105-0.351c0.128-0.08,0.255-0.165,0.377-0.25
						c0.26,0.282,0.622,0.489,1.158,0.563c1.509,0.207,2.901-0.755,4.16-1.61c1.259-0.861,2.784-1.695,4.235-1.222
						c2.019,0.659,2.46,3.257,2.651,5.372c0.335,3.767,0.988,7.576,2.726,10.934c1.743,3.358,4.702,6.238,8.379,7.13
						c2.641,0.648,5.627,0.064,7.757-1.567C407.956,332.53,407.547,333.996,406.298,335.261z"/>
					<path style="fill:#E0E0E0;" d="M426.913,311.134c-0.462,0.011-0.924,0-1.387-0.021
						C425.989,311.123,426.451,311.129,426.913,311.134z"/>
					<path style="fill:#E0E0E0;" d="M435.861,325.076c-0.94,0.489-1.923,0.802-2.949,0.972c-0.367,0.059-0.738,0.101-1.116,0.122
						c-3.246,0.191-6.408-0.367-9.558-1.057c-5.568-1.227-11.147-2.37-16.673-3.783c-0.51-0.133-0.951-0.143-1.381,0.165
						c-0.611,0.436-0.696,0.85-0.26,1.472c0.011,0.016,0.027,0.037,0.037,0.053c-1.264-0.446-2.534-1.249-2.29-2.476
						c0.282-1.408,2.226-1.557,3.639-1.318c5.961,1.02,11.737,2.965,17.693,4.022c2.524,0.446,5.106,0.733,7.656,0.43
						c1.817-0.223,3.794-0.893,4.644-2.513c0.372-0.707,0.149-1.913-0.096-3.113c0.09,0.074,0.181,0.149,0.271,0.223
						c1.1,0.94,1.961,2.035,2.109,3.549C437.731,323.296,437.178,324.39,435.861,325.076z"/>
					<path style="fill:#E0E0E0;" d="M440.669,308.599c-1.031,0.648-2.152,1.089-3.31,1.387h-0.005
						c-0.489,0.128-0.978,0.228-1.477,0.308c-2.943,0.462-5.898,0.829-8.873,0.839h-0.09c-0.462,0.011-0.924,0-1.387-0.021h-0.059
						c-0.606-0.021-1.217-0.058-1.822-0.117c-0.627-0.058-1.264-0.048-1.897-0.064c-0.239-0.005-0.462,0.016-0.638,0.117
						c-0.133,0.074-0.244,0.197-0.319,0.388c-0.101,0.266-0.101,0.505-0.027,0.723c-0.568-0.043-1.142-0.085-1.711-0.128
						c-0.882-0.064-1.801-0.143-2.572-0.584c-0.765-0.446-1.328-1.376-1.063-2.221c0.367-1.158,1.87-1.397,3.082-1.435
						c4.766-0.149,9.532-0.298,14.303-0.441c1.886-0.058,3.841-0.133,5.536-0.967c1.233-0.606,2.285-1.727,2.651-3.007
						c0.138,0.128,0.266,0.26,0.388,0.404C442.879,305.512,442.608,307.388,440.669,308.599z"/>
					<path style="fill:#E0E0E0;" d="M431.674,289.345c-0.085,0.228-0.175,0.446-0.282,0.664c-0.489,1.068-1.164,2.024-1.939,2.922
						c-2.168,2.508-4.925,4.261-7.672,6.03c-0.436,0.282-1.222,0.425-1.18,1.004c0,0.037,0.005,0.074,0.011,0.112
						c0.005,0.021,0.011,0.043,0.016,0.058c-0.175,0.021-0.351,0.037-0.526,0.048c-0.723,0.053-1.658-0.111-1.806-0.818
						c-0.09-0.414,0.159-0.829,0.446-1.142c0.802-0.887,1.939-1.371,2.997-1.934c2.29-1.217,4.335-2.89,5.983-4.888
						c1.068-1.291,1.993-2.779,2.226-4.442c0.069-0.489-0.101-1.137-0.303-1.806C431.769,285.859,432.449,287.246,431.674,289.345z"
						/>
					<path style="fill:#E0E0E0;" d="M401.495,288.351c-1.982,0.924-3.693,2.391-4.771,4.32c-0.627,1.126-1.041,2.37-1.706,3.48
						c-0.659,1.105-1.652,2.12-2.922,2.364c-0.494,0.096-1.031,0.064-1.456-0.202c-0.988-0.611-0.935-2.024-0.887-3.188
						c0.096-2.221-0.287-4.516-1.472-6.402c-0.446-0.712-1.02-1.355-1.684-1.881c0.319,0.016,0.643,0.042,0.967,0.085
						c0.903,0.122,1.637,0.553,2.232,1.27c1.45,1.759,2.269,3.73,2.136,6.046c-0.043,0.733-0.027,1.466-0.032,2.194
						c0,0.207,0.09,0.393,0.308,0.425c0.191,0.032,0.398-0.037,0.5-0.228c0.181-0.34,0.382-0.685,0.505-1.047
						c0.34-1.02,0.664-2.04,0.962-3.071c0.404-1.392,1.222-2.396,2.566-3.002c1.031-0.468,2.088-0.813,3.204-0.978
						C400.464,288.457,400.98,288.399,401.495,288.351z"/>
				</g>
			</g>
			<g>
				<path style="fill:#F8F1F0;" d="M148.955,264.309c-0.462,0.223-0.909-0.074-1.36-0.186c-7.646-1.95-15.238-4.102-22.963-5.743
					c-5.095-1.084-10.185-2.216-15.275-3.331c-1.18-0.26-1.174-0.271-0.978-1.424c0.117-0.675,0.223-1.344,0.335-2.019
					c0.51-3.13,1.004-6.254,1.833-9.319c0.398-1.482,0.377-1.498,1.812-1.126c10.09,2.609,20.179,5.223,30.269,7.826
					c0.489,0.128,0.978,0.244,1.466,0.356c0.319,0.069,0.638,0.138,0.956,0.207c0.531,0.112,0.845,0.361,0.946,0.935
					c0.797,4.516,1.886,8.963,3.044,13.395C149.077,264.011,149.125,264.16,148.955,264.309z"/>
				<path style="fill:#D5C4C3;" d="M148.955,264.309c-0.462,0.223-0.909-0.074-1.36-0.186c-7.646-1.95-15.238-4.102-22.963-5.743
					c-5.095-1.084-10.185-2.216-15.275-3.331c-1.18-0.26-1.174-0.271-0.978-1.424c0.117-0.675,0.223-1.344,0.335-2.019
					c7.109,3.044,14.887,4.537,22.618,4.309c3.172-0.09,6.471-0.51,9.128-2.253c1.578-1.036,2.816-2.545,3.608-4.256
					c0.011-0.021,0.021-0.042,0.027-0.064c0.319,0.069,0.638,0.138,0.956,0.207c0.531,0.112,0.845,0.361,0.946,0.935
					c0.797,4.516,1.886,8.963,3.044,13.395C149.077,264.011,149.125,264.16,148.955,264.309z"/>
				<g>
					<path style="fill:#FFFFFF;" d="M78.981,245.591c-1.137,1.307-2.742,1.79-4.357,1.615c-3.629-0.393-7.226-1.057-10.748-2.024
						c-0.924-0.255-1.764-0.611-2.492-1.084c-1.249-0.813-2.184-1.977-2.667-3.608c-0.84-2.811,0.712-6.408,4.166-6.264
						c1.227,0.027,2.136,0.213,3.028,0.452c3.007,0.797,6.015,1.61,9.017,2.417l0.005,0.005c0.425,0.111,0.845,0.228,1.27,0.34
						c0.186,0.053,0.367,0.138,0.553,0.181C80.474,238.46,80.904,243.386,78.981,245.591z"/>
					<path style="fill:#FFFFFF;" d="M82.131,232.09c-0.611,1.132-1.647,1.769-2.864,2.109c-0.893,0.25-1.812,0.361-2.465,0.324
						c-1.897-0.027-3.485-0.287-5.042-0.696c-2.258-0.59-4.5-1.233-6.737-1.902c-0.287-0.085-0.563-0.212-0.824-0.377
						c-1.397-0.839-2.444-2.614-2.46-4.187c-0.027-2.566,0.728-4.771,2.651-6.551c1.201-1.11,2.588-1.711,4.192-1.822
						c4.097-0.276,7.683,0.786,10.658,3.188c0.776,0.622,1.504,1.334,2.194,2.136C83.438,226.644,83.566,229.449,82.131,232.09z"/>
					<path style="fill:#FFFFFF;" d="M107.836,235.969c-0.398,1.806-0.818,3.613-1.275,5.409c-0.93,3.645-1.52,7.348-2.104,11.057
						c-0.298,1.913-0.983,3.661-2.184,5.202c-1.44,1.849-3.331,2.428-5.579,2.078c-1.116-0.17-1.849-0.781-2.232-1.854
						c-0.398-1.089-0.388-2.194-0.25-3.321c0.011-0.085,0.021-0.175,0.032-0.26c0.053-0.499,0.09-0.994-0.101-1.472
						c-0.271-0.685-0.786-1.126-1.514-1.243c-0.669-0.106-0.93,0.452-1.201,0.898c-1.185,1.982-2.588,3.751-4.341,5.287
						c-3.671,3.22-7.954,4.654-12.762,4.564c-3.347-0.064-6.604-0.696-9.611-2.232c-2.928-1.504-5.069-3.751-6.163-6.918
						c-0.287-0.839-0.345-1.706-0.42-2.582c-0.165-1.849,1.482-3.374,3.23-3.443c1.328-0.053,2.646,0.059,3.932,0.313
						c2.757,0.547,5.52,1.126,8.225,1.907c0.101,0.027,0.207,0.053,0.308,0.085c1.121,0.329,2.03,0.962,2.757,1.838
						c1.079,1.302,1.403,2.8,0.739,4.378c-0.627,1.504-2.035,1.865-3.485,1.982c-1.371,0.112-2.72-0.181-4.065-0.42
						c-1.01-0.175-2.003-0.425-3.002-0.632c-0.335-0.069-0.669-0.159-1.009-0.175c-0.818-0.043-1.302,0.303-1.408,0.962
						c-0.053,0.319,0,0.616,0.159,0.861c0.16,0.25,0.43,0.441,0.818,0.547c1.126,0.313,2.269,0.59,3.416,0.786
						c1.344,0.234,2.705,0.388,4.059,0.537c0.526,0.053,1.073,0.032,1.605-0.027c3.48-0.367,5.664-2.789,5.791-5.658
						c0.058-1.312-0.313-2.72-1.19-4.065c-0.239-0.361-0.499-0.707-0.855-1.211c3.14-1.286,4.325-3.788,4.277-7.316
						c1.047,1.259,1.87,2.253,2.694,3.246c0.25,0.298,0.441,0.654,0.818,0.813c0.329,0.133,0.675,0.191,0.962-0.069
						c0.308-0.276,0.255-0.622,0.085-0.941c-0.16-0.298-0.356-0.579-0.558-0.85c-1.838-2.46-2.518-5.356-3.092-8.283
						c-0.117-0.6,0.064-1.11,0.425-1.636c2.433-3.555,2.327-7.869-0.282-11.307c-0.914-1.206-1.897-2.359-3.023-3.374
						c-0.483-0.436-0.855-0.924-1.084-1.53c-1.477-3.926-2.099-7.911-1.355-11.987c0.101-0.59,0.239-1.179,0.404-1.775
						c0.25-0.893,0.579-1.759,1.084-2.545c1.737-2.704,5.6-2.566,7.056,0.313c0.701,1.387,1.249,2.859,1.796,4.32
						c1.073,2.848,2.519,5.483,4.336,7.927c1.424,1.918,2.763,3.895,3.655,6.142c1.041,2.625,1.307,5.281,0.584,8.023
						c-0.361,1.365-0.749,2.72-1.126,4.086c-0.08,0.282-0.197,0.553-0.244,0.839c-0.17,0.999,0.308,1.86,1.227,2.237
						c0.855,0.351,1.753,0.106,2.333-0.685c0.255-0.351,0.436-0.765,0.579-1.174c0.229-0.643,0.404-1.302,0.595-1.96
						c0.515-1.817,1.466-2.641,3.241-2.773c1.621-0.122,3.076,0.712,3.788,2.226c0.159,0.34,0.292,0.685,0.393,1.036
						C108.102,233.386,108.129,234.667,107.836,235.969z"/>
					<path style="fill:#E0E0E0;" d="M91.695,246.813c-3.193-0.096-6.397,1.254-8.56,3.608c-1.116,1.212-1.966,2.667-2.933,4.001
						c0.058-1.312-0.313-2.72-1.19-4.065c-0.239-0.361-0.499-0.707-0.855-1.211c3.14-1.286,4.325-3.788,4.277-7.316
						c1.047,1.259,1.87,2.253,2.694,3.246c0.25,0.298,0.441,0.654,0.818,0.813c0.329,0.133,0.675,0.191,0.962-0.069
						c0.308-0.276,0.255-0.622,0.085-0.941c-0.16-0.298-0.356-0.579-0.558-0.85c-1.838-2.46-2.518-5.356-3.092-8.283
						c-0.117-0.6,0.064-1.11,0.425-1.636c2.433-3.555,2.327-7.869-0.282-11.307c-0.914-1.206-1.897-2.359-3.023-3.374
						c-0.483-0.436-0.855-0.924-1.084-1.53c-1.477-3.926-2.099-7.911-1.355-11.987c-0.143,4.001,0.914,8.049,3.082,11.418
						c1.918,2.986,4.633,5.441,6.195,8.629c1.105,2.242,1.578,4.792,1.355,7.284c-0.197,2.263-0.956,4.511-0.654,6.764
						C88.358,242.599,90.059,244.778,91.695,246.813z"/>
					<path style="fill:#E0E0E0;" d="M107.836,235.969c-0.398,1.806-0.818,3.613-1.275,5.409c-0.93,3.645-1.52,7.348-2.104,11.057
						c-0.298,1.913-0.983,3.661-2.184,5.202c-1.44,1.849-3.331,2.428-5.579,2.078c-1.116-0.17-1.849-0.781-2.232-1.854
						c-0.398-1.089-0.388-2.194-0.25-3.321c0.011-0.085,0.021-0.175,0.032-0.26c0.298,0.648,0.744,1.227,1.312,1.658
						c0.94,0.717,2.221,0.994,3.353,0.643c1.706-0.537,2.71-2.301,3.252-4.006c1.28-4.012,0.983-8.48,2.805-12.279
						c0.616-1.275,1.456-2.439,2.003-3.751c0.59-1.424,0.781-2.896,0.754-4.394C108.102,233.386,108.129,234.667,107.836,235.969z"
						/>
					<path style="fill:#E0E0E0;" d="M77.323,255.659c-0.627,1.504-2.035,1.865-3.485,1.982c-1.371,0.112-2.72-0.181-4.065-0.42
						c-1.01-0.175-2.003-0.425-3.002-0.632c-0.335-0.069-0.669-0.159-1.009-0.175c-0.818-0.043-1.302,0.303-1.408,0.962
						c-0.053,0.319,0,0.616,0.159,0.861c-0.664-0.159-1.445-0.457-1.589-1.126c-0.149-0.712,0.537-1.328,1.206-1.615
						c2.157-0.935,4.622-0.356,6.971-0.393c0.781-0.016,1.594-0.112,2.258-0.526c1.116-0.701,1.541-2.221,1.201-3.496
						c-0.197-0.738-0.59-1.254-1.041-1.721c0.101,0.027,0.207,0.053,0.308,0.085c1.121,0.329,2.03,0.962,2.757,1.838
						C77.663,252.583,77.987,254.081,77.323,255.659z"/>
					<path style="fill:#E0E0E0;" d="M78.981,245.591c-1.137,1.307-2.742,1.79-4.357,1.615c-3.629-0.393-7.226-1.057-10.748-2.024
						c-0.924-0.255-1.764-0.611-2.492-1.084c0.09,0,0.175,0.011,0.266,0.027c3.236,0.499,6.519,0.653,9.787,0.457
						c1.918-0.112,4.128-0.537,5.026-2.237c0.558-1.047,0.436-2.364-0.101-3.427c-0.351-0.696-0.85-1.296-1.429-1.817
						c0.425,0.111,0.845,0.228,1.27,0.34c0.186,0.053,0.367,0.138,0.553,0.181C80.474,238.46,80.904,243.386,78.981,245.591z"/>
					<path style="fill:#E0E0E0;" d="M82.131,232.09c-0.611,1.132-1.647,1.769-2.864,2.109c-0.893,0.25-1.812,0.361-2.465,0.324
						c-1.897-0.027-3.485-0.287-5.042-0.696c-2.258-0.59-4.5-1.233-6.737-1.902c-0.287-0.085-0.563-0.212-0.824-0.377
						c2.306,0.197,4.612,0.393,6.923,0.59c1.408,0.122,2.832,0.239,4.235,0.053c1.408-0.186,2.805-0.712,3.804-1.716
						c1.706-1.711,1.891-4.537,0.951-6.764c-0.239-0.574-0.537-1.079-0.871-1.535c0.776,0.622,1.504,1.334,2.194,2.136
						C83.438,226.644,83.566,229.449,82.131,232.09z"/>
				</g>
			</g>
			<g>
				<path style="fill:#F0C930;" d="M285.583,364.669c-1.796,3.618-4.787,5.648-8.66,6.503c-0.558,0.122-0.898-0.111-1.217-0.563
					c-0.818-1.142-1.605-2.301-2.348-3.47c-4.075-6.28-7.242-12.991-9.07-20.344c-0.255-1.031-0.223-1.1,0.728-1.328
					c2.981-0.712,5.945-1.488,8.969-1.998c0.244-0.043,0.484-0.069,0.723-0.101c0.409-0.043,0.643,0.143,0.749,0.531
					c0.08,0.282,0.186,0.553,0.276,0.829c1.227,3.895,3.044,7.502,5.207,10.94c0.149,0.239,0.297,0.473,0.452,0.712
					c1.323,2.046,2.63,4.096,3.995,6.11C285.881,363.224,285.966,363.893,285.583,364.669z"/>
				<path style="fill:#623022;" d="M315.034,387.096c-0.579,2.423-1.381,4.776-2.417,7.045c-3.942,8.634-8.623,16.827-14.532,24.281
					c-0.547,0.685-1.148,1.328-1.727,1.987c-5,5.669-11.503,7.125-18.686,6.641c-1.355-0.09-2.54-0.627-3.544-1.557
					c-6.37-5.876-9.054-13.054-6.817-21.524c1.105-4.203,3.028-7.577,5.685-10.138c3.103-2.997,7.215-4.878,12.231-5.68
					c0.717-0.117,1.445-0.229,2.173-0.266c0.829-0.048,1.658-0.011,2.487-0.011c3.592-0.074,7.082,0.531,10.467,1.727
					c1.148,0.404,2.285,0.845,3.029,1.923c0.313,0.457,0.802,0.569,1.296,0.319c0.574-0.287,0.664-0.818,0.505-1.382
					c-0.186-0.632-0.648-1.078-1.137-1.493c-1.063-0.887-2.285-1.488-3.576-1.955c-2.651-0.972-5.308-1.658-7.975-2.019
					c-4.803-0.659-9.638-0.271-14.505,1.371c-0.994,0.335-1.047,0.287-1.11-0.781c-0.021-0.34,0.016-0.685-0.021-1.025
					c-0.074-0.68,0.218-1.073,0.839-1.355c1.068-0.483,2.035-1.153,2.975-1.849c0.372-0.271,0.707-0.6,0.436-1.094
					c-0.032-0.058-0.069-0.112-0.112-0.154c-0.276-0.308-0.675-0.218-1.057-0.09c-2.503,0.866-5.069,1.387-7.715,1.535
					c-1.987,0.111-3.772-0.351-5.244-1.759c-0.903-0.861-1.381-1.923-1.211-3.156c0.361-2.577,1.339-4.883,3.262-6.705
					c0.723-0.685,0.786-0.691,1.323,0.08c0.563,0.797,1.142,1.573,1.785,2.311c0.489,0.558,0.409,0.776-0.324,1.004
					c-0.414,0.128-0.855,0.197-1.286,0.244c-0.393,0.048-0.632,0.212-0.691,0.616c-0.058,0.404,0.138,0.632,0.499,0.77
					c0.6,0.229,1.217,0.372,1.854,0.377c7.412,0.101,13.092-2.928,16.79-9.42c1.015-1.785,1.636-3.751,2.131-5.743
					c0.074-0.282,0.117-0.574,0.149-0.866c0.021-0.207-0.08-0.367-0.276-0.457c-0.207-0.101-0.414-0.042-0.537,0.101
					c-0.25,0.292-0.436,0.643-0.68,0.951c-0.521,0.654-0.738,0.654-1.206,0.011c-0.616-0.84-0.563-1.041,0.377-1.53
					c1.939-1.009,3.852-0.839,5.701-0.074c0.255,0.101,0.51,0.213,0.765,0.34c2.301,1.137,4.027,2.869,4.909,5.356
					c0.361,1.031,0.303,1.987-0.223,2.954c-1.025,1.892-2.444,3.395-4.256,4.537c-0.329,0.207-0.669,0.398-0.999,0.606
					c-0.489,0.308-0.6,0.749-0.388,1.265c0.213,0.531,0.664,0.515,1.111,0.404c0.754-0.191,1.509-0.393,2.247-0.627
					c1.759-0.553,3.523-0.579,5.345-0.303c1.833,0.281,3.666,0.563,5.435,1.073c0.749,0.212,1.488,0.462,2.21,0.776
					c1.217,0.526,2.348,1.174,3.448,1.908c1.084,0.723,1.52,1.69,1.546,2.959C315.852,382.102,315.629,384.62,315.034,387.096z"/>
				<path style="fill:#F0C930;" d="M225.411,365.514c-0.058,0.659-0.276,1.153-0.542,1.62c-1.764,3.098-4.463,4.931-7.864,5.845
					c-0.956,0.255-1.472-0.08-2.04-0.866c-1.142-1.583-2.21-3.193-3.209-4.835c-4.553-7.497-7.608-15.626-9.266-24.356
					c-0.446-2.364-0.483-2.38,1.78-2.975c2.444-0.643,4.904-1.254,7.364-1.844c1.079-0.26,1.111-0.223,1.387,0.829
					c0.818,3.108,1.743,6.185,2.8,9.224c0.983,2.821,2.317,5.462,3.831,8.012c0.669,1.132,1.376,2.253,2.104,3.358
					c1.068,1.631,2.131,3.262,3.193,4.893C225.194,364.786,225.449,365.153,225.411,365.514z"/>
				<path style="fill:#FFFFFF;" d="M257.7,397.584c-1.35,4.681-3.469,8.995-6.238,12.985c-1.344,1.939-2.678,3.884-4.001,5.834
					c-0.595,0.871-1.185,1.743-1.775,2.614c-1.525,2.269-3.151,4.463-5,6.477c-2.704,2.933-5.908,5.069-9.883,5.882
					c-2.455,0.499-4.925,0.547-7.46,0.011c0.229-0.441,0.643-0.388,0.983-0.436c3.995-0.526,7.438-2.221,10.435-4.878
					c2.343-2.083,4.362-4.458,6.169-7.008c3.358-4.745,6.471-9.638,9.341-14.68c0.988-1.732,1.945-3.48,2.869-5.249
					c1.844-3.512,3.278-7.183,3.942-11.115c0.181-1.095,0.282-2.2,0.462-3.624c0.818,1.838,0.956,3.48,1.116,5.106
					C258.927,392.26,258.459,394.938,257.7,397.584z"/>
				<path style="fill:#623022;" d="M254.474,388.456c-0.638,3.124-1.79,6.078-3.246,8.905c-3.656,7.13-7.837,13.942-12.475,20.472
					c-1.727,2.428-3.682,4.67-5.94,6.636c-2.768,2.401-5.967,3.841-9.601,4.304c-3.565,0.462-6.87-0.372-10.005-2.046
					c-1.02-0.542-1.721-1.44-2.402-2.322c-7.922-10.233-4.824-22.188,1.822-28.627c0.356-0.34,0.717-0.669,1.089-0.978
					c3.411-2.843,7.401-4.251,11.732-4.856c4.521-0.638,8.953-0.128,13.299,1.174c1.578,0.467,3.199,0.919,4.256,2.375
					c0.324,0.441,0.861,0.478,1.323,0.191c0.536-0.335,0.616-0.845,0.388-1.413c-0.244-0.606-0.691-1.057-1.185-1.461
					c-0.956-0.776-2.035-1.334-3.183-1.769c-2.099-0.802-4.229-1.429-6.439-1.838c-2.094-0.393-4.251-0.59-6.514-0.563
					c-3.199-0.021-6.556,0.489-9.819,1.605c-1.015,0.345-1.041,0.313-1.1-0.749c-0.016-0.34,0.016-0.685-0.016-1.026
					c-0.069-0.669,0.191-1.078,0.818-1.365c1.068-0.489,2.04-1.153,2.975-1.854c0.372-0.276,0.685-0.606,0.404-1.105
					c-0.059-0.106-0.122-0.181-0.197-0.239c-0.266-0.207-0.6-0.117-0.951,0.011c-2.258,0.813-4.601,1.259-6.981,1.514
					c-2.067,0.223-3.985-0.074-5.653-1.429c-1.148-0.935-1.711-2.125-1.503-3.602c0.361-2.587,1.408-4.846,3.321-6.673
					c0.537-0.51,0.845-0.478,1.222,0.154c0.064,0.112,0.133,0.218,0.207,0.324c0.425,0.664,0.935,1.286,1.466,1.891
					c0.648,0.733,0.547,0.978-0.452,1.217c-0.377,0.09-0.76,0.159-1.148,0.212c-0.414,0.064-0.574,0.329-0.6,0.701
					c-0.027,0.361,0.223,0.515,0.505,0.627c0.733,0.287,1.498,0.462,2.285,0.446c7.438-0.17,13.123-3.289,16.625-9.994
					c0.887-1.69,1.467-3.501,1.902-5.361c0.037-0.143,0.085-0.282,0.106-0.425c0.048-0.292,0.101-0.6-0.228-0.765
					c-0.329-0.159-0.553,0.021-0.733,0.287c-0.191,0.282-0.361,0.579-0.579,0.845c-0.468,0.574-0.67,0.563-1.111-0.016
					c-0.675-0.893-0.622-1.105,0.425-1.61c1.265-0.606,2.572-0.845,3.974-0.521c0.138,0.032,0.271,0.064,0.404,0.101
					c3.098,0.808,5.377,2.625,6.737,5.605c0.59,1.286,0.521,2.513-0.223,3.757c-1.132,1.891-2.646,3.363-4.527,4.479
					c-0.563,0.34-1.36,0.595-0.978,1.514c0.398,0.962,1.164,0.441,1.769,0.308c1.047-0.223,2.067-0.563,3.114-0.802
					c1.86-0.42,3.682,0.048,5.515,0.297c2.051,0.276,4.027,0.781,5.914,1.573c0.717,0.292,1.419,0.627,2.109,1.009
					c0.776,0.425,1.264,1.004,1.599,1.812C255.213,382.362,255.096,385.401,254.474,388.456z"/>
				<path style="fill:#F8F1F0;" d="M211.204,336.01c-2.917,0.579-5.802,1.28-8.666,2.061c-0.632,0.175-1.015,0.074-1.116-0.664
					c-0.441-3.172-0.781-6.349-0.914-9.553c-0.074-1.775-0.085-3.56-0.021-5.356c0.638-0.037,1.031,0.175,1.44,0.319
					c2.518,0.903,5.026,1.844,7.64,2.465c0.765,0.181,1.105,0.531,1.18,1.371c0.096,0.994,0.207,1.987,0.345,2.975
					c0.239,1.716,0.547,3.416,0.909,5.106C212.219,335.755,212.198,335.808,211.204,336.01z"/>
				<path style="fill:#F8F1F0;" d="M273.841,341.355c-3.23,0.446-6.397,1.227-9.574,1.945c-0.521,0.117-0.818,0.021-0.946-0.553
					c-0.324-1.482-0.654-2.97-0.951-4.458c-0.367-1.849-0.675-3.708-0.855-5.589c-0.042-0.457,0.032-0.744,0.569-0.781
					c3.103-0.234,6.216-0.388,9.298-0.824c0.452-0.037,0.717,0.112,0.823,0.6c0.266,1.286,0.558,2.566,0.877,3.836
					c0.404,1.652,0.845,3.299,1.334,4.931C274.579,341.01,274.42,341.275,273.841,341.355z"/>
				<path style="fill:#FFFFFF;" d="M318.541,394.147c-1.238,5.074-3.432,9.723-6.312,14.053c-1.217,1.833-2.455,3.645-3.709,5.451
					c-0.988,1.44-1.992,2.874-2.986,4.309c-1.387,2.008-2.853,3.958-4.511,5.744c-2.503,2.694-5.462,4.686-9.064,5.611
					c-2.343,0.606-4.729,0.6-7.114,0.377c-0.377-0.032-0.786-0.032-1.116-0.425c1.562-0.282,3.076-0.579,4.575-0.956
					c3.358-0.834,6.2-2.534,8.645-4.941c2.263-2.231,4.282-4.67,6.073-7.29c3.087-4.5,5.951-9.139,8.501-13.952
					c0.909-1.727,1.78-3.475,2.609-5.249c2.216-4.755,2.859-6.811,4.081-13.288c0.351,0.276,0.398,0.648,0.467,0.993
					C319.316,387.781,319.322,390.959,318.541,394.147z"/>
				<path style="fill:#ECB52B;" d="M224.949,364.419c0.244,0.367,0.499,0.733,0.462,1.095c-0.058,0.659-0.276,1.153-0.542,1.62
					c-1.764,3.098-4.463,4.931-7.864,5.845c-0.956,0.255-1.472-0.08-2.04-0.866c-1.142-1.583-2.21-3.193-3.209-4.835
					c2.332-0.84,4.532-2.221,5.951-4.251c1.413-2.019,1.918-4.389,1.945-6.859c0.669,1.132,1.376,2.253,2.104,3.358
					C222.824,361.157,223.887,362.788,224.949,364.419z"/>
				<path style="fill:#ECB52B;" d="M285.583,364.669c-1.796,3.618-4.787,5.648-8.66,6.503c-0.558,0.122-0.898-0.111-1.217-0.563
					c-0.818-1.142-1.605-2.301-2.348-3.47c3.124-0.85,5.696-3.735,6.758-6.907c0.494-1.477,0.739-3.007,0.824-4.564
					c0.149,0.239,0.297,0.473,0.452,0.712c1.323,2.046,2.63,4.096,3.995,6.11C285.881,363.224,285.966,363.893,285.583,364.669z"/>
				<path style="fill:#D5C4C3;" d="M210.747,326.654c0.096,0.994,0.207,1.987,0.345,2.975c-3.629,0.08-7.284-0.351-10.584-1.775
					c-0.074-1.775-0.085-3.56-0.021-5.356c0.638-0.037,1.031,0.175,1.44,0.319c2.518,0.903,5.026,1.844,7.64,2.465
					C210.333,325.463,210.673,325.814,210.747,326.654z"/>
				<path style="fill:#D5C4C3;" d="M273.081,335.532c-2.726,1.195-5.701,1.961-8.629,2.449c-0.691,0.117-1.387,0.218-2.083,0.308
					c-0.367-1.849-0.675-3.708-0.855-5.589c-0.042-0.457,0.032-0.744,0.569-0.781c3.103-0.234,6.216-0.388,9.298-0.824
					c0.452-0.037,0.717,0.112,0.823,0.6C272.47,332.982,272.762,334.262,273.081,335.532z"/>
				<path style="fill:#57281D;" d="M294.01,364.749c-1.721,4.181-5.042,7.651-9.064,9.718c-4.022,2.067-8.708,2.758-13.187,2.131
					c-4.112-0.574-4.373-4.893-1.403-6.583c0.563,0.797,1.142,1.573,1.785,2.311c0.489,0.558,0.409,0.776-0.324,1.004
					c-0.414,0.128-0.855,0.197-1.286,0.244c-0.393,0.048-0.632,0.212-0.691,0.616c-0.058,0.404,0.138,0.632,0.499,0.77
					c0.6,0.229,1.217,0.372,1.854,0.377c7.412,0.101,13.092-2.928,16.79-9.42c1.015-1.785,1.636-3.751,2.131-5.743
					c0.074-0.282,0.117-0.574,0.149-0.866c0.021-0.207-0.08-0.367-0.276-0.457c-0.207-0.101-0.414-0.042-0.537,0.101
					c-0.25,0.292-0.436,0.643-0.68,0.951c-0.521,0.654-0.738,0.654-1.206,0.011c-0.616-0.84-0.563-1.041,0.377-1.53
					c1.939-1.009,3.852-0.839,5.701-0.074C295.295,360.397,294.844,362.714,294.01,364.749z"/>
				<path style="fill:#57281D;" d="M233.243,364.425c-0.776,4.495-3.709,8.469-7.523,10.966c-3.82,2.497-8.448,3.586-13.007,3.576
					c-1.929-0.011-4.197-0.43-5.021-2.178c-0.595-1.265-0.096-3.337,1.073-4.176c0.515-0.367,0.924-0.436,1.355-0.409
					c0.425,0.664,0.935,1.286,1.466,1.891c0.648,0.733,0.547,0.978-0.452,1.217c-0.377,0.09-0.76,0.159-1.148,0.212
					c-0.414,0.064-0.574,0.329-0.6,0.701c-0.027,0.361,0.223,0.515,0.505,0.627c0.733,0.287,1.498,0.462,2.285,0.446
					c7.438-0.17,13.123-3.289,16.625-9.994c0.887-1.69,1.467-3.501,1.902-5.361c0.037-0.143,0.085-0.282,0.106-0.425
					c0.048-0.292,0.101-0.6-0.228-0.765c-0.329-0.159-0.553,0.021-0.733,0.287c-0.191,0.282-0.361,0.579-0.579,0.845
					c-0.468,0.574-0.67,0.563-1.111-0.016c-0.675-0.893-0.622-1.105,0.425-1.61c1.265-0.606,2.572-0.845,3.974-0.521
					c0.138,0.032,0.271,0.064,0.404,0.101C233.514,361.285,233.503,362.895,233.243,364.425z"/>
				<path style="fill:#57281D;" d="M254.474,388.456c-0.638,3.124-1.79,6.078-3.246,8.905c-3.656,7.13-7.837,13.942-12.475,20.472
					c-1.727,2.428-3.682,4.67-5.94,6.636c-2.768,2.401-5.967,3.841-9.601,4.304c-3.565,0.462-6.87-0.372-10.005-2.046
					c-1.02-0.542-1.721-1.44-2.402-2.322c-7.922-10.233-4.824-22.188,1.822-28.627c-0.696,1.328-1.578,2.619-2.04,3.836
					c-1.084,2.848-1.637,5.919-1.339,8.969c0.59,6.062,5.154,11.928,11.2,12.656c2.582,0.308,5.207-0.303,7.619-1.275
					c4.277-1.721,8.124-4.649,10.6-8.538c1.605-2.524,2.609-5.388,4.213-7.911c1.44-2.253,3.331-4.197,4.644-6.519
					c2.333-4.128,2.646-9.08,2.471-13.814c-0.08-2.173-0.191-4.521,0.287-6.61c0.717,0.292,1.419,0.627,2.109,1.009
					c0.776,0.425,1.264,1.004,1.599,1.812C255.213,382.362,255.096,385.401,254.474,388.456z"/>
				<path style="fill:#57281D;" d="M233.907,387.202c-2.094-0.393-4.251-0.59-6.514-0.563c-3.199-0.021-6.556,0.489-9.819,1.605
					c-1.015,0.345-1.041,0.313-1.1-0.749c-0.016-0.34,0.016-0.685-0.016-1.026c-0.069-0.669,0.191-1.078,0.818-1.365
					c1.068-0.489,2.04-1.153,2.975-1.854c0.372-0.276,0.685-0.606,0.404-1.105c-0.059-0.106-0.122-0.181-0.197-0.239
					c2.104-0.558,4.197-0.808,4.182,0.133c-0.016,0.951,0.68,1.801,1.514,2.269c0.829,0.467,1.791,0.643,2.715,0.877
					C230.629,385.63,232.329,386.31,233.907,387.202z"/>
				<path style="fill:#57281D;" d="M292.495,384.997c-4.803-0.659-9.638-0.271-14.505,1.371c-0.994,0.335-1.047,0.287-1.11-0.781
					c-0.021-0.34,0.016-0.685-0.021-1.025c-0.074-0.68,0.218-1.073,0.839-1.355c1.068-0.483,2.035-1.153,2.975-1.849
					c0.372-0.271,0.707-0.6,0.436-1.094c-0.032-0.058-0.069-0.112-0.112-0.154c1.578-0.361,3.108-0.579,4.405-0.696
					c0.335,0.468-0.218,1.052-0.717,1.334c-0.494,0.287-1.089,0.786-0.84,1.302c0.122,0.25,0.404,0.372,0.664,0.467
					C287.103,383.462,289.929,384.014,292.495,384.997z"/>
				<path style="fill:#57281D;" d="M315.034,387.096c-0.579,2.423-1.381,4.776-2.417,7.045c-3.942,8.634-8.623,16.827-14.532,24.281
					c-0.547,0.685-1.148,1.328-1.727,1.987c-5,5.669-11.503,7.125-18.686,6.641c-1.355-0.09-2.54-0.627-3.544-1.557
					c-6.37-5.876-9.054-13.054-6.817-21.524c1.105-4.203,3.028-7.577,5.685-10.138c-0.096,0.202-0.186,0.409-0.26,0.606
					c-0.675,1.828-0.903,3.804-1.052,5.733c-0.239,3.034-0.282,6.121,0.409,9.085c0.691,2.965,2.178,5.823,4.564,7.709
					c4.107,3.246,10.196,2.997,14.834,0.568s8.055-6.657,10.929-11.03c2.938-4.474,5.473-9.271,6.886-14.436
					c1.413-5.164,1.668-10.727,0.106-15.849c-0.239-0.781-0.515-1.551-0.824-2.306c0.749,0.212,1.488,0.462,2.21,0.776
					c1.217,0.526,2.348,1.174,3.448,1.908c1.084,0.723,1.52,1.69,1.546,2.959C315.852,382.102,315.629,384.62,315.034,387.096z"/>
				<path style="fill:#E0E0E0;" d="M311.522,402.127c-0.489,2.885-1.18,5.738-2.024,8.533c-0.303,1.004-0.627,2.003-0.978,2.991
					c-0.988,1.44-1.992,2.874-2.986,4.309c-1.387,2.008-2.853,3.958-4.511,5.744c-2.503,2.694-5.462,4.686-9.064,5.611
					c-2.343,0.606-4.729,0.6-7.114,0.377c-0.377-0.032-0.786-0.032-1.116-0.425c1.562-0.282,3.076-0.579,4.575-0.956
					c3.358-0.834,6.2-2.534,8.645-4.941c2.263-2.231,4.282-4.67,6.073-7.29C306.108,411.579,308.972,406.941,311.522,402.127z"/>
				<path style="fill:#E0E0E0;" d="M250.272,404.385c-0.292,2.572-0.744,5.117-1.403,7.619c-0.393,1.488-0.861,2.959-1.408,4.399
					c-0.595,0.871-1.185,1.743-1.775,2.614c-1.525,2.269-3.151,4.463-5,6.477c-2.704,2.933-5.908,5.069-9.883,5.882
					c-2.455,0.499-4.925,0.547-7.46,0.011c0.229-0.441,0.643-0.388,0.983-0.436c3.995-0.526,7.438-2.221,10.435-4.878
					c2.343-2.083,4.362-4.458,6.169-7.008C244.289,414.321,247.403,409.427,250.272,404.385z"/>
				<path style="fill:#723B2E;" d="M216.939,395.581c-2.929,2.208-4.88,5.799-4.735,9.464c0.054,1.366,0.433,2.798,1.434,3.729
					c1.169,1.088,2.985,1.259,4.501,0.76c1.516-0.5,2.777-1.572,3.87-2.736c1.598-1.702,2.918-3.66,3.913-5.771
					c0.802-1.701,2.011-4.142,1.572-6.079C226.462,390.392,219.083,393.966,216.939,395.581z"/>
				<path style="fill:#723B2E;" d="M277.969,394.789c-2.137,2.316-3.348,5.463-3.314,8.614c0.018,1.671,0.446,3.462,1.717,4.547
					c1.268,1.082,3.155,1.221,4.729,0.671c1.573-0.551,2.871-1.697,3.957-2.962c2.231-2.599,3.733-5.817,4.292-9.196
					c0.211-1.274,0.28-2.633-0.254-3.809C287.07,388.197,280.056,392.526,277.969,394.789z"/>
			</g>
			<path style="fill:#3D191A;" d="M222.253,174.133c-0.487,0.002-0.975,0.001-1.46-0.037c-7.824-0.606-15.636-1.334-23.4-2.507
				c-2.6-0.393-5.22-0.697-7.734-1.523c-0.74-0.243-1.469-0.533-2.125-0.964c-0.318-0.209-0.774-0.379-0.773-0.81
				c0.002-0.46,0.502-0.549,0.834-0.7c0.756-0.343,1.561-0.548,2.378-0.699c2.931-0.542,5.89-0.821,8.867-0.868
				c1.371-0.022,2.716-0.254,4.076-0.362c0.483-0.038,0.97-0.161,1.384-0.432c0.782-0.513,0.715-1.459-0.125-1.852
				c-0.501-0.234-1.046-0.272-1.579-0.193c-2.563,0.378-5.155,0.341-7.728,0.565c-2.378,0.208-4.757,0.435-7.066,1.106
				c-1.042,0.303-2.028,0.714-2.825,1.472c-1.138,1.082-1.219,2.441-0.228,3.658c0.564,0.692,1.296,1.177,2.075,1.593
				c1.345,0.718,2.792,1.15,4.273,1.463c3.915,0.827,7.887,1.273,11.855,1.744c5.279,0.626,10.585,0.92,16.158,1.336
				c0.891,0.096,2.062,0.168,3.231,0.09c0.919-0.061,1.406-0.548,1.34-1.216C223.618,174.37,223.211,174.13,222.253,174.133z"/>
			<path style="fill:#3D191A;" d="M261.686,166.507c0.62,0.122,1.258,0.153,1.878,0.277c5.113,1.027,10.271,1.781,15.434,2.506
				c4.438,0.623,8.896,1.121,13.294,2.003c2.583,0.518,5.145,1.126,7.52,2.314c0.946,0.474,1.905,0.962,2.477,1.98
				c-0.476,0.473-1.055,0.563-1.62,0.7c-1.532,0.371-3.101,0.294-4.654,0.408c-0.58,0.043-1.171,0.097-1.729,0.246
				c-0.501,0.134-0.82,0.517-0.811,1.084c0.009,0.577,0.382,0.875,0.867,1.049c0.224,0.08,0.477,0.112,0.716,0.114
				c2.295,0.013,4.583-0.079,6.827-0.62c0.766-0.185,1.476-0.496,2.068-1.04c1.136-1.043,1.272-2.263,0.379-3.519
				c-0.546-0.767-1.274-1.338-2.044-1.859c-1.636-1.107-3.468-1.764-5.348-2.297c-4.99-1.415-10.122-2.008-15.249-2.637
				c-5.368-0.659-10.743-1.261-16.066-2.241c-1.245-0.229-2.49-0.493-3.764-0.502c-0.584-0.004-1.067,0.187-1.179,0.847
				C260.577,165.922,260.933,166.359,261.686,166.507z"/>
			<path style="fill:#3D191A;" d="M214.437,165.701c0.273,0.099,0.564,0.202,0.849,0.21c2.191,0.06,4.384,0.132,6.576,0.124
				c0.816-0.003,1.244-0.523,1.192-1.172c-0.049-0.605-0.425-0.879-1.259-0.887c-1.023-0.009-2.046-0.002-3.069-0.002
				c0-0.011-0.001-0.021-0.001-0.032c-0.827-0.055-1.653-0.113-2.48-0.162c-0.587-0.035-1.169,0.003-1.737,0.176
				c-0.424,0.129-0.658,0.415-0.678,0.847C213.809,165.238,214.029,165.553,214.437,165.701z"/>
			<path style="fill:#3D191A;" d="M289.269,177.356c-1.905,0.145-3.791-0.094-5.681-0.264c-0.383-0.035-0.778-0.013-1.161,0.033
				c-0.483,0.059-0.812,0.337-0.858,0.842c-0.047,0.508,0.246,0.832,0.691,0.999c0.315,0.118,0.651,0.194,0.985,0.239
				c1.206,0.162,2.413,0.332,3.636,0.209c0.875,0,1.757,0.068,2.623-0.022c0.677-0.07,1.103-0.689,0.972-1.227
				C290.325,177.549,289.882,177.309,289.269,177.356z"/>
			<g>
				<path style="fill:#FFFFFF;" d="M163.331,227.656c-0.512-7.883,0.088-15.651,0.205-23.523c0.061-4.083-7.046-5.291-7.794-1.095
					c-1.433,8.043-1.15,16.627-0.66,24.748c0.488,8.081,1.074,16.792,4.182,24.335c1.296,3.146,6.925,2.21,6.799-1.277
					C165.784,243.095,163.836,235.426,163.331,227.656z"/>
				<path style="fill:#FFFFFF;" d="M175.076,278.709c-2.657-5.083-3.849-10.248-5.261-15.747c-1.006-3.918-7.893-3.814-7.748,0.601
					c0.196,6.004,2.703,12.204,5.44,17.469C169.441,284.753,177.364,283.087,175.076,278.709z"/>
			</g>
		</g>
		<g>
			<path style="fill:#3D191A;" d="M438.926,298.667c-2.617-0.779-5.295-0.742-7.982-0.643c-0.649,0.024-1.316,0.155-2.169-0.09
				c1.372-1.103,2.551-2.103,3.608-3.233c1.489-1.592,2.645-3.375,3.142-5.529c0.765-3.313-0.88-6.316-4.078-7.456
				c-0.931-0.332-1.897-0.434-2.878-0.445c-2.593-0.029-5.019,0.619-7.309,1.806c-2.213,1.147-4.325,2.467-6.28,4.008
				c-0.728,0.574-1.289,0.661-2.076,0.199c-0.753-0.442-1.583-0.756-2.438-0.974c-5.588-1.418-11.009-1.382-16.047,1.872
				c-0.484,0.313-0.792,0.241-1.083-0.214c-0.21-0.328-0.446-0.641-0.66-0.967c-0.921-1.406-2.195-2.321-3.807-2.789
				c-4.05-1.177-7.626-0.438-10.572,2.672c-0.475,0.502-0.848,0.537-1.377,0.233c-0.211-0.121-0.444-0.202-0.663-0.308
				c-8.344-4.038-16.886-7.603-25.594-10.777c-0.24-0.088-0.544-0.124-0.697-0.528c0.621,0.142,1.182,0.266,1.74,0.397
				c4.564,1.069,9.162,1.247,13.801,0.572c7.45-1.085,14.194-3.935,20.135-8.49c14.049-10.772,21.511-25.067,22.156-42.773
				c0.271-7.427-1.209-14.595-4.805-21.162c-6.793-12.404-17.27-18.836-31.488-18.974c-3.536-0.034-6.988,0.576-10.392,1.494
				c-1.322,0.357-1.31,0.35-1.41-1.049c-0.093-1.313-0.233-2.623-0.325-3.936c-0.365-5.189-2.656-9.391-6.495-12.827
				c-2.263-2.026-4.72-3.776-7.33-5.317c-4.589-2.711-9.429-4.895-14.411-6.769c-15.314-5.763-31.213-9.164-47.327-11.692
				c-1.617-0.254-3.235-0.495-4.951-0.757c0.311-0.772,0.864-1.114,1.307-1.529c6.269-5.87,11.368-12.561,14.716-20.536
				c3.167-7.545,5.266-15.303,5.033-23.559c-0.311-11.067-4.659-20.236-13.218-27.271c-7.155-5.882-15.279-8.368-24.564-6.548
				c-9.463,1.854-16.533,8.629-18.559,18.061c-0.851,3.96-0.756,7.846,1.199,11.537c2.965,5.6,9.271,7.708,15,4.963
				c1.555-0.745,2.943-1.746,3.953-3.174c0.85-1.202,0.476-2.418-0.784-2.821c-0.533-0.17-0.952,0.075-1.398,0.244
				c-0.733,0.277-1.447,0.543-2.265,0.313c-2.364-0.666-3.438-2.413-2.855-4.793c0.374-1.526,1.174-2.792,2.584-3.571
				c1.897-1.047,3.906-1.453,6.066-1.007c2.27,0.469,4.192,1.557,5.813,3.188c4.778,4.806,6.884,10.668,6.682,17.37
				c-0.197,6.556-2.05,12.67-5.219,18.4c-3.557,6.433-8.164,12.126-12.583,17.954c-0.426,0.562-0.923,0.619-1.535,0.567
				c-2.138-0.181-4.278-0.337-6.416-0.52c-0.364-0.031-0.781,0.116-1.131-0.275c0.105-0.659,0.493-1.234,0.769-1.845
				c3.07-6.801,4.611-13.959,3.842-21.362c-1.101-10.604-6.728-18.312-16.257-23.082c-5.316-2.661-10.921-3.39-16.785-2.139
				c-13.915,2.968-20.759,17.968-19.137,27.938c0.877,5.395,3.674,9.461,8.069,12.538c0.964,0.674,2.045,1.128,3.181,1.449
				c5.391,1.523,10.108,0.047,14.367-3.295c1.118-0.877,1.958-2.036,2.51-3.373c0.394-0.955,0.419-1.901-0.109-2.81
				c-0.738-1.269-1.817-1.409-2.881-0.401c-0.388,0.368-0.747,0.777-1.175,1.091c-1.844,1.353-3.772,1.189-5.409-0.424
				c-1.668-1.644-2.217-4.384-1.13-6.493c1.215-2.359,3.112-4.001,5.755-4.584c4.203-0.928,9.016,1.188,11.511,5.031
				c2.075,3.196,2.832,6.693,2.335,10.476c-0.458,3.494-1.8,6.658-3.445,9.732c-0.479,0.895-1.046,1.201-2.068,1.172
				c-7.805-0.222-15.606-0.081-23.405,0.297c-10.679,0.517-21.297,1.568-31.809,3.557c-6.812,1.289-13.524,2.954-19.976,5.541
				c-3.999,1.604-7.821,3.53-11.139,6.338c-3.631,3.073-5.594,6.89-5.531,11.742c0.063,4.879-0.371,9.747-0.649,14.615
				c-0.553,9.695-1.001,19.386-0.506,29.098c0.253,4.969,0.561,9.932,1.085,14.881c0.605,5.723,1.28,11.436,2.156,17.125
				c0.06,0.392,0.322,0.838-0.082,1.233c-0.151-0.018-0.298-0.019-0.436-0.054c-10.347-2.651-20.851-4.566-31.31-6.695
				c-1.552-0.316-1.542,0.012-1.245-1.747c0.447-2.644,0.111-5.16-1.171-7.511c-1.141-2.094-2.932-3.356-5.278-3.794
				c-1.218-0.228-2.429-0.082-3.825,0.276c-0.111-1.405-0.189-2.664-0.443-3.899c-0.725-3.522-2.455-6.565-4.585-9.387
				c-2.018-2.674-3.581-5.564-4.702-8.716c-0.489-1.376-1.019-2.746-1.741-4.023c-1.79-3.169-5.294-4.683-8.85-3.903
				c-3.446,0.756-5.315,3.073-6.273,6.271c-1.267,4.23-1.238,8.459,0.16,12.667c0.161,0.485,0.457,0.956,0.382,1.478
				c-0.402,0.244-0.725,0.061-1.049-0.002c-2.116-0.412-4.245-0.601-6.402-0.436c-7.338,0.563-12.048,8.126-9.259,14.928
				c0.248,0.605,0.272,0.994-0.286,1.351c-0.081,0.051-0.143,0.132-0.212,0.201c-3.212,3.251-3.959,7.174-2.101,11.362
				c0.242,0.545-0.006,0.817-0.255,1.161c-2.09,2.889-2.26,6.079-1.289,9.353c1.258,4.243,4.064,7.3,7.889,9.38
				c3.944,2.145,8.261,2.894,12.71,2.861c4.987-0.037,9.466-1.638,13.485-4.576c0.743-0.543,1.362-1.22,1.959-1.848
				c0.462,0.219,0.541,0.577,0.725,0.851c1.033,1.532,2.456,2.497,4.258,2.861c1.546,0.312,3.105,0.3,4.647-0.058
				c2.861-0.664,4.743-2.576,6.236-4.96c0.818-1.305,0.806-1.313,2.243-0.916c0.094,0.026,0.184,0.066,0.278,0.092
				c9.864,2.726,19.724,5.465,29.594,8.168c3.525,0.965,7.066,1.874,10.618,2.735c0.971,0.235,1.54,0.659,1.734,1.654
				c0.13,0.665,0.397,1.304,0.605,1.954c6.561,20.521,23.344,40.116,44.616,48.327c1.277,0.493,1.255,0.518,1.182,1.91
				c-0.394,7.475-0.26,14.913,1.346,22.274c1.714,7.86,4.176,15.431,8.315,22.385c0.05,0.084,0.09,0.174,0.146,0.254
				c0.299,0.422,0.301,0.781-0.143,1.13c-0.343,0.27-0.64,0.6-0.947,0.913c-2.281,2.321-3.523,5.126-3.794,8.35
				c-0.226,2.686,0.524,5.069,2.656,6.799c1.572,1.276,3.451,1.979,5.477,2.267c0.709,0.101,1.618-0.306,2.086,0.28
				c0.476,0.597,0.071,1.515,0.208,2.275c0.154,0.855-0.245,1.33-0.919,1.781c-1.716,1.148-3.182,2.583-4.414,4.238
				c-7.521,10.102-7.254,23.264,1.326,32.677c6.473,7.101,14.831,8.79,23.971,6.888c4.425-0.921,7.98-3.553,11.003-6.86
				c1.977-2.163,3.728-4.512,5.371-6.937c1.942-2.866,3.891-5.728,5.863-8.574c2.48-3.581,4.45-7.442,5.911-11.558
				c1.815-5.11,2.494-10.292,1.352-15.671c-1.239-5.835-4.273-10.178-9.903-12.511c-2.081-0.862-4.215-1.509-6.445-1.86
				c-1.919-0.302-1.935-0.336-1.693-2.205c0.211-1.636,0.006-3.215-0.569-4.744c-2.408-6.402-11.113-11.217-17.621-7.129
				c-0.562,0.353-0.874,0.198-1.177-0.307c-0.678-1.129-1.425-2.218-2.055-3.372c-4.053-7.423-6.805-15.305-8.248-23.64
				c-0.179-1.034-0.506-2.061-0.365-3.222c0.602,0.12,1.125,0.205,1.638,0.331c2.556,0.628,5.116,1.237,7.661,1.907
				c4.639,1.22,9.381,1.728,14.132,2.275c6.309,0.725,12.624,1.16,18.973,1.105c1.208-0.01,1.217-0.008,1.297,1.178
				c0.199,2.972,0.571,5.918,1.181,8.837c1.654,7.918,4.032,15.571,8.137,22.606c0.84,1.44,0.824,1.458-0.341,2.625
				c-2.841,2.846-4.26,6.254-4.023,10.293c0.117,1.992,0.93,3.723,2.456,4.983c1.558,1.287,3.387,2.093,5.433,2.349
				c0.767,0.096,1.761-0.245,2.248,0.311c0.522,0.596,0.096,1.602,0.236,2.413c0.124,0.721-0.146,1.167-0.748,1.569
				c-2.22,1.482-4.04,3.384-5.478,5.622c-3.527,5.488-5.222,11.454-4.129,17.969c2.902,17.308,17.962,23.439,30.885,20.183
				c4.221-1.063,7.645-3.602,10.544-6.816c1.962-2.176,3.719-4.52,5.358-6.947c1.911-2.829,3.837-5.646,5.782-8.452
				c2.425-3.499,4.369-7.267,5.819-11.28c1.786-4.945,2.547-9.974,1.609-15.231c-1.254-7.033-5.093-11.764-11.939-13.987
				c-1.768-0.574-3.564-0.994-5.403-1.258c-0.932-0.134-1.166-0.131-0.955-1.295c0.519-2.863-0.069-5.531-1.714-7.941
				c-1.46-2.138-3.34-3.831-5.688-4.921c-3.504-1.628-7.033-1.895-10.517,0.113c-0.085,0.049-0.178,0.084-0.257,0.14
				c-0.392,0.284-0.714,0.24-0.972-0.186c-0.152-0.25-0.317-0.492-0.474-0.738c-4.412-6.898-7.205-14.46-9.145-22.368
				c-0.331-1.349-0.282-1.384,1.035-1.634c5.32-1.01,10.558-2.351,15.752-3.875c16.361-4.8,29.965-13.685,40.423-27.242
				c1.49-1.931,2.926-3.901,4.302-5.916c0.642-0.94,0.669-0.957,1.632-0.557c10.359,4.299,20.636,8.778,30.457,14.229
				c1.201,0.667,1.19,0.544,0.991,2.035c-0.68,5.085,2.229,9.247,7.225,10.471c2.263,0.555,4.505,0.617,6.577-0.495
				c0.375,0.34,0.391,0.695,0.482,1.019c0.984,3.486,2.364,6.816,4.042,10.02c1.41,2.694,3.133,5.172,5.311,7.31
				c1.67,1.639,3.619,2.834,5.907,3.353c3.883,0.881,7.288-0.007,9.903-3.111c2.513-2.983,2.482-6.312,1.05-9.76
				c-0.137-0.329-0.459-0.619-0.307-1.023c0.335-0.13,0.618-0.011,0.895,0.053c3.037,0.709,6.067,1.451,9.109,2.137
				c3.283,0.74,6.572,1.467,9.975,1.308c2.466-0.115,4.848-0.569,7.002-1.839c3.57-2.106,4.574-6.228,2.4-9.736
				c-0.784-1.265-1.819-2.277-3.041-3.12c-0.38-0.262-0.902-0.381-1.135-0.977c0.642-0.147,1.243-0.276,1.839-0.422
				c2.254-0.551,4.365-1.42,6.123-2.974c2.79-2.464,3.049-6.337,0.66-9.165C442.897,300.268,441.023,299.291,438.926,298.667z
				 M359.469,203.033c0.059,0,0.119,0,0.178,0c0.087-3.509,0.192-7.019,0.246-10.528c0.011-0.744,0.227-1.115,0.982-1.343
				c3.325-1.005,6.702-1.862,10.166-1.962c9.87-0.285,18.08,3.37,24.473,10.907c4.306,5.077,6.72,11.055,7.725,17.587
				c3.216,20.896-9.001,43.291-28.242,51.815c-5.9,2.614-12.056,3.817-18.526,3.091c-2.139-0.24-4.225-0.702-6.276-1.354
				c-0.646-0.206-0.839-0.46-0.564-1.155c2.096-5.311,3.782-10.755,5.158-16.294c0.194-0.78,0.632-0.972,1.341-1.009
				c2.543-0.132,5.047-0.559,7.456-1.37c8.252-2.778,14.183-8.035,16.984-16.419c1.462-4.375,1.315-8.763-0.861-12.924
				c-2.454-4.693-6.489-7.268-11.578-8.316c-2.526-0.52-5.038-0.408-7.52,0.326c-1.15,0.34-1.145,0.322-1.143-0.815
				C359.473,209.858,359.469,206.445,359.469,203.033z M359.096,221.149c0.03-0.487,0.064-0.973,0.08-1.461
				c0.017-0.555,0.287-0.827,0.812-1.054c4.185-1.813,8.2-1.393,12.021,0.954c3.902,2.397,5.528,6.053,5.383,10.52
				c-0.229,7.04-3.877,11.981-9.758,15.47c-3.062,1.817-6.4,2.847-9.931,3.247c-0.516,0.058-1.061,0.189-1.622-0.108
				c0.052-1.357,0.436-2.669,0.65-4.004C357.982,236.905,358.615,229.035,359.096,221.149z M269.141,135.815
				c2.668-3.551,5.127-7.241,7.22-11.168c3.241-6.081,5.075-12.556,5.273-19.447c0.231-8.057-2.357-15.049-8.225-20.692
				c-2.98-2.866-6.55-4.444-10.721-4.183c-4.068,0.254-7.471,1.839-9.434,5.668c-1.088,2.122-1.307,4.367-0.703,6.684
				c0.365,1.399,1.181,2.524,2.185,3.597c-2.5,0.111-4.417-0.856-5.774-2.851c-1.271-1.869-1.837-3.958-1.813-6.22
				c0.086-8.156,5.834-15.691,13.685-17.909c6.773-1.913,13.238-1.235,19.296,2.425c9.014,5.446,14.225,13.408,15.496,23.873
				c0.897,7.386-0.607,14.444-3.061,21.375c-3.179,8.979-8.411,16.551-15.393,22.977c-2.837,2.611-5.774,5.103-8.745,7.555
				c-3.239,2.673-6.266,5.571-9.218,8.555c-5.127,5.184-8.639,11.268-10.426,18.342c-0.13,0.513-0.293,1.017-0.471,1.629
				c-0.521-0.468-0.362-0.981-0.358-1.425c0.039-4.043,0.762-7.941,2.413-11.659c1.732-3.9,3.965-7.499,6.512-10.903
				C260.941,146.611,265.068,141.234,269.141,135.815z M228.556,171.394c0.931,3.159,2.628,5.852,5.041,8.094
				c0.611,0.568,1.307,1.014,2.029,1.426c0.547,0.312,1.091,0.488,1.597-0.037c0.504-0.524,0.317-1.047-0.032-1.586
				c-1.426-2.204-1.886-4.672-1.94-7.247c-0.041-1.93,0.382-3.776,1.028-5.577c1.206-3.366,2.845-6.515,4.78-9.519
				c0.41-0.637,0.834-0.968,1.641-0.916c2.27,0.148,4.544,0.214,6.895,0.316c-0.113,0.812-0.473,1.343-0.743,1.898
				c-2.689,5.516-3.877,11.314-3.328,17.447c0.153,1.71,0.428,3.389,1.246,4.927c0.485,0.913,0.793,1.062,1.749,0.931
				c0.918-0.125,1.132-0.383,1.355-1.429c1.634-7.64,4.702-14.538,10.421-20.057c0.737-0.711,1.494-1.403,2.198-2.145
				c0.523-0.55,1.102-0.669,1.842-0.603c12.435,1.103,24.823,2.568,37.094,4.907c8.239,1.571,16.412,3.412,24.276,6.409
				c2.463,0.939,4.872,1.996,7.076,3.465c0.895,0.596,1.76,1.238,2.384,2.134c0.657,0.942,0.629,1.497-0.144,2.352
				c-0.867,0.958-1.981,1.571-3.13,2.118c-3.144,1.498-6.479,2.409-9.862,3.158c-6.963,1.542-14.024,2.382-21.122,2.969
				c-11.87,0.98-23.76,1.255-35.663,1.018c-11.753-0.233-23.486-0.861-35.187-1.991c-13.495-1.303-26.92-3.101-40.158-6.104
				c-6.469-1.468-12.869-3.174-18.968-5.848c-1.79-0.785-3.525-1.671-5.097-2.843c-2.915-2.174-2.858-3.543,0.22-5.409
				c1.678-1.017,3.502-1.707,5.358-2.309c4.839-1.57,9.821-2.498,14.843-3.203c13.501-1.896,27.086-2.432,40.703-2.4
				c0.385,0.001,0.77,0,1.126,0c0.316,0.529,0.088,0.937-0.002,1.342C227.003,161.893,227.162,166.667,228.556,171.394z
				 M255.908,145.868c0.186,0.557-0.137,0.782-0.31,1.049c-0.979,1.507-2.005,2.985-2.948,4.514
				c-0.399,0.646-0.807,0.975-1.62,0.915c-2.126-0.157-4.259-0.221-6.639-0.334c1.328-2.205,2.505-4.149,3.671-6.1
				c0.196-0.327,0.456-0.495,0.83-0.472C251.25,145.581,253.607,145.727,255.908,145.868z M239.475,142.986
				c1.986-3.376,3.66-6.882,4.417-10.771c1.041-5.352,0.353-10.383-2.677-14.999c-3.465-5.277-9.757-7.965-15.853-6.785
				c-5.09,0.986-9.479,6.119-9.402,11.066c0.059,3.772,1.752,6.617,5.029,8.506c0.248,0.143,0.549,0.212,0.728,0.533
				c-0.647,0.492-1.427,0.592-2.182,0.657c-2.683,0.231-5.122-0.406-7.233-2.15c-3.625-2.995-5.286-6.871-5.35-11.536
				c-0.08-5.83,3.986-14.67,10.082-18.241c4.954-2.902,10.215-3.874,15.754-2.31c9.72,2.744,15.769,9.15,18.136,18.95
				c0.858,3.555,0.52,7.174,0.031,10.767c-0.754,5.543-2.736,10.652-5.48,15.484c-2.142,3.773-4.335,7.518-6.527,11.263
				c-1.899,3.245-3.639,6.56-4.896,10.12c-1.068,3.025-1.71,6.097-1.41,9.322c0.024,0.255,0.17,0.564-0.221,0.849
				c-0.525-0.721-0.761-1.555-0.979-2.376c-1.777-6.688-0.943-13.059,2.479-19.06C235.71,149.142,237.646,146.095,239.475,142.986z
				 M64.391,220.812c1.201-1.111,2.586-1.714,4.193-1.823c5.16-0.351,9.512,1.429,12.852,5.321c2.003,2.334,2.129,5.141,0.697,7.781
				c-0.613,1.13-1.651,1.767-2.866,2.108c-0.895,0.251-1.814,0.361-2.463,0.326c-1.9-0.03-3.488-0.29-5.042-0.696
				c-2.259-0.59-4.505-1.233-6.741-1.905c-1.791-0.538-3.26-2.694-3.28-4.562C61.715,224.798,62.466,222.592,64.391,220.812z
				 M62.881,234.227c1.227,0.025,2.136,0.213,3.029,0.449c3.434,0.908,6.862,1.841,10.292,2.766
				c0.188,0.051,0.366,0.138,0.555,0.181c3.717,0.838,4.147,5.762,2.224,7.968c-1.14,1.307-2.742,1.793-4.359,1.616
				c-3.628-0.396-7.224-1.057-10.75-2.027c-2.497-0.687-4.388-2.1-5.158-4.688C57.878,237.677,59.426,234.083,62.881,234.227z
				 M107.838,235.969c-0.4,1.808-0.823,3.612-1.279,5.407c-0.927,3.644-1.519,7.35-2.101,11.059c-0.3,1.914-0.983,3.658-2.184,5.199
				c-1.441,1.849-3.332,2.431-5.582,2.082c-1.115-0.173-1.845-0.785-2.232-1.854c-0.395-1.091-0.385-2.199-0.249-3.321
				c0.071-0.584,0.153-1.172-0.07-1.736c-0.27-0.684-0.784-1.125-1.512-1.239c-0.67-0.106-0.932,0.451-1.2,0.898
				c-1.186,1.979-2.591,3.748-4.342,5.284c-3.671,3.218-7.953,4.654-12.764,4.565c-3.346-0.062-6.602-0.695-9.608-2.233
				c-2.932-1.5-5.071-3.752-6.163-6.915c-0.29-0.839-0.346-1.706-0.423-2.585c-0.162-1.849,1.482-3.372,3.233-3.442
				c1.327-0.053,2.646,0.062,3.93,0.316c2.865,0.567,5.727,1.167,8.535,1.991c1.12,0.329,2.031,0.962,2.757,1.837
				c1.08,1.301,1.402,2.801,0.741,4.377c-0.632,1.507-2.039,1.865-3.488,1.984c-1.371,0.113-2.721-0.181-4.064-0.418
				c-1.007-0.177-2.002-0.426-3.003-0.636c-0.334-0.07-0.67-0.155-1.008-0.173c-0.819-0.044-1.301,0.3-1.409,0.959
				c-0.106,0.648,0.215,1.197,0.978,1.41c1.125,0.315,2.267,0.588,3.418,0.787c1.343,0.233,2.701,0.389,4.057,0.534
				c0.528,0.056,1.074,0.031,1.604-0.025c5.076-0.536,7.394-5.439,4.602-9.724c-0.236-0.362-0.5-0.707-0.856-1.208
				c3.142-1.287,4.325-3.792,4.279-7.318c1.044,1.257,1.87,2.25,2.694,3.243c0.247,0.298,0.438,0.657,0.818,0.814
				c0.327,0.135,0.673,0.19,0.964-0.07c0.306-0.273,0.253-0.621,0.084-0.937c-0.16-0.299-0.358-0.581-0.561-0.854
				c-1.836-2.461-2.513-5.353-3.09-8.282c-0.118-0.601,0.064-1.109,0.423-1.633c2.438-3.558,2.331-7.872-0.277-11.309
				c-0.913-1.204-1.899-2.357-3.024-3.373c-0.483-0.436-0.858-0.925-1.086-1.531c-1.69-4.492-2.257-9.061-0.949-13.758
				c0.249-0.895,0.576-1.759,1.083-2.548c1.739-2.706,5.6-2.564,7.056,0.315c0.702,1.387,1.249,2.858,1.797,4.317
				c1.071,2.851,2.516,5.486,4.332,7.93c1.426,1.919,2.763,3.893,3.656,6.14c1.043,2.622,1.308,5.283,0.584,8.021
				c-0.361,1.366-0.749,2.724-1.126,4.086c-0.078,0.281-0.195,0.555-0.243,0.841c-0.171,1,0.31,1.858,1.23,2.236
				c0.852,0.35,1.754,0.11,2.331-0.686c0.253-0.349,0.437-0.762,0.582-1.171c0.228-0.642,0.404-1.303,0.59-1.96
				c0.517-1.82,1.471-2.64,3.245-2.775c1.621-0.124,3.074,0.711,3.786,2.225C108.061,232.665,108.207,234.301,107.838,235.969z
				 M148.957,264.31c-0.463,0.223-0.909-0.073-1.362-0.189c-7.646-1.95-15.24-4.102-22.963-5.743
				c-5.098-1.083-10.185-2.216-15.276-3.333c-1.181-0.259-1.172-0.268-0.977-1.424c0.641-3.795,1.164-7.611,2.167-11.337
				c0.398-1.48,0.378-1.497,1.812-1.127c10.091,2.608,20.18,5.222,30.271,7.83c0.801,0.207,1.609,0.391,2.419,0.561
				c0.531,0.111,0.848,0.359,0.95,0.937c0.794,4.514,1.884,8.962,3.043,13.394C149.075,264.012,149.122,264.159,148.957,264.31z
				 M201.422,337.406c-0.688-4.924-1.119-9.862-0.936-14.908c0.642-0.038,1.032,0.174,1.44,0.32c2.521,0.9,5.029,1.845,7.64,2.463
				c0.766,0.181,1.105,0.533,1.183,1.373c0.251,2.716,0.68,5.411,1.251,8.081c0.217,1.017,0.199,1.073-0.796,1.272
				c-2.914,0.582-5.799,1.282-8.664,2.065C201.906,338.246,201.525,338.147,201.422,337.406z M257.547,384.396
				c0.814,1.839,0.956,3.48,1.114,5.108c0.267,2.758-0.204,5.437-0.964,8.08c-1.347,4.682-3.47,8.998-6.236,12.988
				c-1.944,2.803-3.867,5.62-5.773,8.448c-1.527,2.265-3.154,4.462-5.003,6.473c-2.7,2.936-5.906,5.072-9.878,5.882
				c-2.459,0.501-4.928,0.55-7.464,0.013c0.232-0.443,0.645-0.391,0.986-0.436c3.992-0.529,7.439-2.22,10.431-4.878
				c2.345-2.082,4.366-4.459,6.172-7.01c4.51-6.372,8.585-13.016,12.209-19.931c1.841-3.512,3.275-7.18,3.939-11.112
				C257.265,386.929,257.367,385.822,257.547,384.396z M228.803,367.307c0.883-1.69,1.466-3.506,1.902-5.364
				c0.033-0.142,0.084-0.281,0.107-0.425c0.047-0.29,0.098-0.602-0.233-0.764c-0.327-0.16-0.551,0.023-0.729,0.286
				c-0.191,0.282-0.363,0.581-0.578,0.844c-0.472,0.576-0.67,0.565-1.111-0.015c-0.675-0.89-0.626-1.104,0.423-1.607
				c1.265-0.607,2.57-0.846,3.975-0.525c3.307,0.756,5.724,2.601,7.141,5.706c0.589,1.29,0.52,2.515-0.225,3.761
				c-1.131,1.891-2.644,3.359-4.525,4.479c-0.566,0.337-1.361,0.593-0.978,1.512c0.4,0.96,1.161,0.441,1.768,0.31
				c1.046-0.226,2.067-0.566,3.111-0.802c1.861-0.42,3.686,0.047,5.517,0.294c2.828,0.381,5.514,1.201,8.026,2.583
				c0.771,0.425,1.264,1.005,1.596,1.811c1.221,2.97,1.107,6.007,0.483,9.063c-0.638,3.126-1.791,6.08-3.242,8.908
				c-3.657,7.127-7.841,13.94-12.479,20.468c-1.725,2.429-3.679,4.674-5.94,6.637c-2.768,2.403-5.965,3.84-9.597,4.307
				c-3.567,0.459-6.874-0.372-10.006-2.046c-1.02-0.545-1.72-1.444-2.402-2.324c-8.345-10.773-4.464-23.463,2.91-29.606
				c3.411-2.841,7.402-4.246,11.731-4.857c4.525-0.638,8.953-0.126,13.3,1.174c1.577,0.472,3.197,0.92,4.258,2.375
				c0.324,0.444,0.858,0.479,1.323,0.191c0.534-0.332,0.612-0.842,0.386-1.409c-0.243-0.61-0.689-1.059-1.184-1.461
				c-0.956-0.776-2.037-1.333-3.182-1.771c-4.092-1.565-8.313-2.457-12.952-2.402c-3.201-0.022-6.558,0.488-9.821,1.604
				c-1.015,0.347-1.041,0.314-1.098-0.749c-0.018-0.341,0.014-0.685-0.02-1.024c-0.068-0.672,0.191-1.08,0.821-1.367
				c1.066-0.487,2.037-1.15,2.974-1.854c0.37-0.278,0.686-0.605,0.404-1.104c-0.28-0.495-0.701-0.39-1.148-0.229
				c-2.259,0.816-4.601,1.259-6.984,1.515c-2.063,0.222-3.984-0.077-5.649-1.431c-1.15-0.936-1.714-2.124-1.507-3.601
				c0.363-2.588,1.41-4.843,3.323-6.675c0.532-0.51,0.842-0.474,1.22,0.155c0.476,0.793,1.058,1.516,1.674,2.214
				c0.651,0.737,0.547,0.981-0.449,1.218c-0.379,0.09-0.764,0.16-1.15,0.215c-0.417,0.06-0.577,0.327-0.603,0.702
				c-0.025,0.357,0.227,0.512,0.509,0.623c0.733,0.288,1.497,0.465,2.283,0.447C219.615,377.128,225.3,374.011,228.803,367.307z
				 M215.822,348.153c1.423,4.081,3.576,7.779,5.931,11.373c1.068,1.63,2.133,3.262,3.197,4.895c0.24,0.367,0.497,0.73,0.459,1.092
				c-0.057,0.661-0.275,1.154-0.54,1.619c-1.764,3.099-4.463,4.935-7.864,5.847c-0.958,0.257-1.473-0.082-2.041-0.868
				c-6.352-8.799-10.457-18.544-12.474-29.192c-0.447-2.36-0.484-2.377,1.777-2.971c2.448-0.643,4.905-1.255,7.366-1.845
				c1.079-0.259,1.11-0.225,1.386,0.826C213.837,342.04,214.764,345.116,215.822,348.153z M263.321,342.745
				c-0.729-3.325-1.485-6.644-1.808-10.043c-0.044-0.457,0.034-0.744,0.57-0.784c3.104-0.23,6.215-0.386,9.299-0.825
				c0.453-0.036,0.718,0.114,0.821,0.605c0.62,2.951,1.351,5.875,2.213,8.765c0.163,0.547,0.002,0.813-0.576,0.893
				c-3.231,0.447-6.397,1.224-9.573,1.942C263.746,343.416,263.447,343.32,263.321,342.745z M318.209,383.588
				c0.353,0.279,0.398,0.648,0.468,0.995c0.64,3.196,0.644,6.375-0.135,9.562c-1.241,5.078-3.433,9.726-6.312,14.057
				c-2.184,3.285-4.451,6.515-6.695,9.76c-1.387,2.005-2.853,3.955-4.512,5.742c-2.501,2.693-5.464,4.684-9.065,5.611
				c-2.343,0.603-4.726,0.602-7.115,0.379c-0.377-0.035-0.786-0.036-1.112-0.427c1.56-0.282,3.073-0.58,4.573-0.954
				c3.355-0.837,6.199-2.537,8.644-4.944c2.264-2.229,4.282-4.672,6.074-7.289c4.19-6.118,7.975-12.474,11.11-19.204
				C316.346,392.123,316.989,390.064,318.209,383.588z M288.984,365.916c1.016-1.786,1.638-3.747,2.132-5.741
				c0.07-0.283,0.114-0.574,0.146-0.864c0.024-0.21-0.08-0.368-0.278-0.461c-0.206-0.097-0.415-0.042-0.535,0.101
				c-0.25,0.297-0.438,0.646-0.679,0.951c-0.519,0.657-0.741,0.653-1.209,0.014c-0.615-0.841-0.562-1.04,0.38-1.531
				c2.205-1.149,4.378-0.768,6.463,0.264c2.304,1.141,4.031,2.872,4.911,5.359c0.364,1.029,0.302,1.985-0.223,2.953
				c-1.023,1.89-2.442,3.393-4.253,4.535c-0.33,0.208-0.669,0.401-0.999,0.608c-0.491,0.307-0.599,0.748-0.391,1.265
				c0.214,0.531,0.667,0.516,1.111,0.404c0.755-0.19,1.508-0.395,2.252-0.628c1.758-0.55,3.521-0.581,5.343-0.301
				c2.607,0.401,5.201,0.796,7.647,1.849c1.214,0.522,2.346,1.174,3.447,1.906c1.084,0.721,1.518,1.69,1.547,2.957
				c0.059,2.55-0.168,5.068-0.762,7.544c-0.581,2.421-1.382,4.774-2.418,7.042c-3.941,8.635-8.621,16.828-14.532,24.283
				c-0.545,0.687-1.146,1.329-1.727,1.987c-4.999,5.668-11.501,7.122-18.682,6.641c-1.354-0.091-2.544-0.628-3.548-1.555
				c-6.37-5.879-9.051-13.054-6.817-21.525c2.408-9.126,8.609-14.324,17.917-15.818c0.721-0.116,1.448-0.226,2.176-0.267
				c0.826-0.046,1.656-0.011,2.485-0.011c3.592-0.073,7.083,0.53,10.467,1.726c1.148,0.406,2.288,0.847,3.029,1.925
				c0.314,0.457,0.805,0.568,1.298,0.319c0.571-0.288,0.665-0.818,0.502-1.382c-0.184-0.634-0.648-1.08-1.137-1.49
				c-1.06-0.889-2.284-1.487-3.572-1.959c-7.422-2.717-14.908-3.205-22.484-0.648c-0.994,0.335-1.046,0.287-1.108-0.781
				c-0.02-0.34,0.014-0.685-0.021-1.023c-0.072-0.681,0.219-1.075,0.839-1.354c1.069-0.483,2.034-1.152,2.977-1.848
				c0.37-0.273,0.708-0.605,0.432-1.098c-0.269-0.481-0.731-0.391-1.165-0.241c-2.502,0.866-5.072,1.382-7.716,1.532
				c-1.985,0.113-3.772-0.352-5.245-1.758c-0.902-0.861-1.383-1.925-1.21-3.158c0.361-2.575,1.34-4.879,3.263-6.705
				c0.723-0.686,0.785-0.687,1.323,0.078c0.561,0.799,1.142,1.576,1.785,2.313c0.489,0.56,0.406,0.777-0.326,1.003
				c-0.415,0.128-0.854,0.196-1.287,0.246c-0.394,0.045-0.631,0.21-0.689,0.613c-0.058,0.407,0.136,0.637,0.501,0.775
				c0.598,0.227,1.213,0.369,1.853,0.377C279.608,375.437,285.286,372.413,288.984,365.916z M275.732,344.729
				c1.312,4.163,3.301,7.999,5.66,11.652c1.32,2.044,2.629,4.097,3.996,6.11c0.495,0.73,0.579,1.403,0.195,2.176
				c-1.798,3.621-4.786,5.652-8.662,6.505c-0.557,0.122-0.895-0.113-1.215-0.561c-5.195-7.274-9.249-15.094-11.418-23.817
				c-0.256-1.028-0.225-1.102,0.726-1.328c2.98-0.711,5.946-1.489,8.972-1.997c0.24-0.04,0.482-0.068,0.723-0.101
				c0.405-0.04,0.641,0.141,0.748,0.53C275.534,344.179,275.644,344.451,275.732,344.729z M332.786,292.484
				c-10.548,15.483-24.972,25.488-42.985,30.437c-3.385,0.93-6.767,1.876-10.202,2.59c-3.728,0.775-7.519,1.149-11.315,1.381
				c-5.988,0.366-11.982,0.62-17.985,0.559c-6.264-0.063-12.448-0.898-18.596-1.993c-5.468-0.974-10.967-1.847-16.304-3.418
				c-7.293-2.147-14.519-4.505-21.625-7.226c-4.983-1.908-9.371-4.773-13.49-8.092c-12.654-10.193-21.151-23.143-25.803-38.695
				c-3.027-10.119-5.112-20.419-6.491-30.88c-1.276-9.677-2.158-19.384-2.478-29.142c-0.207-6.296,0.058-12.583,0.33-18.869
				c0.228-5.262,0.522-10.521,0.817-15.779c0.153-2.725,0.339-5.448,0.706-8.156c0.19-1.405,0.836-2.582,1.721-3.654
				c1.352-1.639,3.014-2.908,4.804-4.02c4.304-2.672,9.011-4.399,13.83-5.851c6.737-2.03,13.627-3.361,20.583-4.346
				c14.423-2.042,28.931-2.694,43.485-2.507c0.523,0.007,1.07-0.104,1.602,0.191c-0.03,0.62-0.472,1.047-0.743,1.547
				c-0.765,1.415-1.586,2.802-2.306,4.24c-0.331,0.661-0.737,0.915-1.469,0.898c-1.804-0.043-3.609-0.013-5.414-0.013
				c-9.273,0.002-18.532,0.392-27.764,1.248c-8.063,0.748-16.089,1.785-23.907,4.021c-2.442,0.699-4.831,1.54-7.074,2.75
				c-1.294,0.698-2.5,1.521-3.495,2.62c-2.046,2.26-2.198,5.02-0.396,7.483c0.934,1.276,2.135,2.272,3.445,3.136
				c2.951,1.948,6.185,3.307,9.498,4.486c7.368,2.621,14.966,4.363,22.628,5.845c10.972,2.121,22.04,3.578,33.161,4.616
				c19.691,1.837,39.421,2.576,59.191,1.773c9.262-0.376,18.5-1.076,27.659-2.577c4.863-0.797,9.683-1.788,14.331-3.473
				c2.023-0.734,3.979-1.608,5.726-2.89c4.131-3.03,4.36-6.979,0.599-10.452c-1.482-1.368-3.199-2.395-4.988-3.299
				c-4.68-2.365-9.652-3.936-14.69-5.308c-8.572-2.335-17.29-3.961-26.068-5.289c-7.378-1.116-14.782-2.015-22.214-2.683
				c-0.376-0.034-0.782-0.004-1.091-0.3c0.112-0.444,0.491-0.618,0.779-0.862c1.525-1.293,3.095-2.537,4.581-3.873
				c0.76-0.684,1.525-0.89,2.524-0.73c3.225,0.516,6.467,0.923,9.691,1.445c10.401,1.684,20.707,3.815,30.84,6.725
				c7.364,2.115,14.597,4.599,21.523,7.907c3.306,1.579,6.498,3.357,9.459,5.527c1.816,1.331,3.513,2.793,4.918,4.567
				c1.293,1.633,2.09,3.459,2.527,5.521c1.06,4.994,1.375,10.021,1.247,15.114c-0.268,10.729-0.674,21.452-1.458,32.155
				c-0.663,9.052-1.653,18.064-4.021,26.868c-1.699,6.316-3.665,12.537-6.334,18.521c-0.614,1.377-0.598,1.376-2.028,0.945
				c-3.919-1.182-7.84-2.357-11.761-3.534c-0.233-0.07-0.475-0.117-0.7-0.206c-0.746-0.296-0.791-0.425-0.283-1.005
				c0.611-0.696,1.255-1.362,1.881-2.046c0.194-0.212,0.459-0.45,0.234-0.752c-0.257-0.346-0.609-0.22-0.919-0.041
				c-0.211,0.121-0.404,0.273-0.604,0.412c-1.737,1.204-3.285,2.621-4.568,4.295c-4.447,5.801-6.606,12.42-6.919,19.68
				c-0.012,0.292-0.008,0.586,0.013,0.877c0.026,0.363,0.146,0.676,0.572,0.723c0.466,0.051,0.754-0.188,0.843-0.623
				c0.233-1.145,0.436-2.296,0.659-3.443c0.383-1.971,0.394-1.994,2.193-1.295c3.362,1.306,6.714,2.637,10.064,3.973
				c0.302,0.12,0.681,0.154,0.881,0.593C333.624,291.426,333.162,291.932,332.786,292.484z M346.996,291.67
				c-7.653-3.17-15.565-5.653-23.436-8.228c-1.65-0.539-1.652-0.52-1.154-2.17c0.907-3.007,2.256-5.81,3.914-8.469
				c0.735-1.178,0.747-1.189,2.079-0.751c7.083,2.328,14.053,4.964,20.962,7.765c3.25,1.318,6.537,2.546,9.786,3.866
				c7.136,2.898,14.153,6.056,20.963,9.662c0.86,0.455,1.679,0.99,2.501,1.513c0.647,0.411,0.637,0.428,0.581,1.408
				c-0.502,3.6-1.83,7.036-4.754,9.705c-0.958,0.875-0.967,0.881-2.111,0.203C366.918,300.595,357.088,295.849,346.996,291.67z
				 M440.671,308.598c-1.471,0.918-3.112,1.432-4.797,1.696c-4.048,0.634-8.115,1.092-12.228,0.702
				c-0.63-0.06-1.266-0.047-1.9-0.064c-0.411-0.011-0.781,0.059-0.953,0.505c-0.206,0.533,0.006,0.966,0.378,1.309
				c0.326,0.301,0.768,0.401,1.196,0.511c2.311,0.593,4.636,1.138,6.925,1.807c2.26,0.661,4.375,1.665,6.184,3.211
				c1.098,0.938,1.963,2.035,2.111,3.55c0.144,1.47-0.411,2.564-1.731,3.252c-1.273,0.664-2.632,1.005-4.062,1.091
				c-3.248,0.194-6.41-0.362-9.56-1.057c-5.564-1.227-11.147-2.369-16.669-3.781c-0.511-0.131-0.951-0.143-1.384,0.166
				c-0.611,0.436-0.694,0.85-0.259,1.47c0.195,0.278,0.435,0.526,0.65,0.791c1.37,1.687,2.359,3.568,2.948,5.665
				c0.61,2.169,0.411,4.182-1.225,5.84c-1.685,1.706-3.768,2.161-6.066,1.587c-1.589-0.397-2.975-1.201-4.179-2.314
				c-1.913-1.769-3.493-3.809-4.808-6.047c-1.557-2.651-2.938-5.394-3.988-8.291c-0.838-2.311-1.196-4.629,0.019-6.94
				c0.068-0.129,0.121-0.268,0.16-0.408c0.138-0.487,0.253-1.016-0.337-1.26c-0.519-0.215-0.797,0.213-1.035,0.589
				c-0.417,0.658-0.786,1.348-1.231,1.985c-1.322,1.894-3.205,2.613-5.451,2.497c-0.829-0.043-1.638-0.221-2.428-0.493
				c-2.432-0.836-4.835-3.264-4.284-7.193c0.642,0.048,1.015,0.39,1.43,0.624c0.609,0.343,1.414,0.584,0.559,1.551
				c-0.343,0.388,0.029,0.83,0.607,0.792c0.389-0.025,0.76-0.132,1.102-0.35c6.653-4.248,9.669-10.336,9.208-18.184
				c-0.046-0.778-0.108-1.557-0.191-2.332c-0.036-0.335-0.124-0.668-0.225-0.991c-0.09-0.288-0.263-0.535-0.605-0.549
				c-0.442-0.018-0.562,0.289-0.632,0.652c-0.025,0.129-0.112,0.246-0.185,0.398c-0.582-0.068-0.983-0.451-1.436-0.712
				c-0.414-0.238-0.898-0.385-1.187-0.81c0.087-0.505,0.508-0.702,0.862-0.942c1.698-1.149,3.584-1.471,5.587-1.197
				c0.904,0.124,1.639,0.553,2.229,1.269c1.452,1.762,2.27,3.731,2.137,6.051c-0.042,0.729-0.027,1.461-0.031,2.192
				c-0.001,0.209,0.093,0.395,0.309,0.427c0.193,0.029,0.396-0.039,0.497-0.229c0.182-0.344,0.383-0.685,0.506-1.051
				c0.341-1.016,0.663-2.038,0.962-3.067c0.405-1.393,1.223-2.398,2.566-3.003c1.031-0.465,2.087-0.811,3.203-0.978
				c4.11-0.616,8.069-0.253,11.76,1.829c0.212,0.12,0.44,0.214,0.645,0.344c1.293,0.826,2.424,0.799,3.746-0.176
				c2.586-1.908,5.306-3.638,8.28-4.919c1.707-0.734,3.432-1.076,5.258-0.469c2.136,0.71,2.822,2.092,2.041,4.197
				c-0.498,1.342-1.286,2.505-2.219,3.585c-2.169,2.51-4.926,4.263-7.673,6.034c-0.462,0.298-1.321,0.439-1.166,1.114
				c0.164,0.715,1.029,0.566,1.628,0.663c1.017,0.165,2.042,0.082,3.066,0.058c3.119-0.074,6.24-0.202,9.353,0.128
				c1.563,0.166,3.063,0.574,4.489,1.238c0.846,0.395,1.615,0.902,2.233,1.618C442.877,305.515,442.609,307.388,440.671,308.598z"/>
			<path style="fill:#3D191A;" d="M237.737,264.677c5.105-4.967,7.305-11.155,7.416-18.168c0-0.682,0.03-1.366-0.008-2.047
				c-0.039-0.68-0.122-1.36-0.228-2.034c-1.094-6.952-4.201-12.743-9.993-16.89c-4.594-3.29-9.74-4.378-15.278-3.252
				c-4.778,0.971-8.601,3.568-11.646,7.326c-6.457,7.969-7.364,19.931-2.24,29.189c2.255,4.074,5.37,7.335,9.534,9.421
				C222.9,272.031,231.636,270.612,237.737,264.677z M231.678,228.282c3.947,2.422,6.566,5.933,8.068,10.258
				c2.474,7.124,1.771,13.934-2.369,20.287c-1.883,2.889-4.464,5.009-7.677,6.322c-0.27,0.111-0.546,0.21-0.825,0.296
				c-0.08,0.025-0.181-0.015-0.272-0.026c-0.093-0.151-0.002-0.272,0.085-0.369c2.889-3.188,4.674-6.913,5.527-11.122
				c1.129-5.572,0.934-11.057-0.986-16.434c-1.063-2.976-2.627-5.656-4.944-7.851c-1.645-1.558-3.558-2.678-5.682-3.507
				C225.907,225.743,228.906,226.581,231.678,228.282z M217.222,264.439c-0.628-0.169-1.174-0.461-1.701-0.816
				c-4.612-3.11-7.293-7.518-8.436-12.87c-1.381-6.469-0.272-12.496,3.59-17.935c0.533-0.751,1.174-1.431,1.802-2.109
				c2.056-2.224,4.665-2.724,7.502-2.221c3.417,0.606,5.943,2.573,7.77,5.472c1.97,3.127,2.865,6.59,3.114,10.242
				c0.046,0.679,0.007,1.364,0.007,2.046c0.024,2.641-0.265,5.252-0.858,7.827c-0.612,2.655-1.81,5.046-3.444,7.202
				C224.242,264.346,220.902,265.43,217.222,264.439z"/>
			<path style="fill:#3D191A;" d="M286.923,226.82c-8.05-6.954-19.336-6.581-26.875,0.918c-5.007,4.98-7.139,11.15-7.26,18.31
				c0.182,7.424,2.676,14.062,8.484,19.166c5.316,4.672,11.514,6.235,18.385,4.358c5.277-1.441,9.214-4.786,12.049-9.399
				c3.551-5.777,4.563-12.068,3.383-18.703C294.057,235.664,291.417,230.703,286.923,226.82z M277.712,261.391
				c-1.205,1.755-2.731,3.159-4.585,4.221c-0.633,0.363-1.222,0.459-1.94,0.29c-3.643-0.854-6.63-2.761-9.067-5.56
				c-6.583-7.559-6.991-19.619-1.026-27.679c3.358-4.537,7.212-5.154,11.886-2.812c2.67,1.338,4.611,3.396,5.968,6.024
				c1.943,3.759,2.721,7.794,2.783,11.289C281.7,252.764,280.509,257.318,277.712,261.391z M287.755,258.793
				c-1.817,2.673-4.151,4.745-7.267,6.163c0.008-0.599,0.299-0.82,0.479-1.095c6.098-9.304,6.22-18.927,1.374-28.719
				c-2.074-4.19-5.405-7.097-9.936-8.512c-0.216-0.067-0.497-0.065-0.532-0.512c2.026-0.333,4.02-0.195,5.991,0.356
				c3.804,1.063,6.817,3.275,9.191,6.392C292.676,240.249,292.97,251.121,287.755,258.793z"/>
			<path style="fill:#3D191A;" d="M274.386,279.521c-0.242-0.009-0.485,0.038-0.728,0.057c-3.14,0.247-4.995-0.884-6.168-3.764
				c-0.337-0.826-0.76-1.119-1.373-0.951c-0.61,0.167-0.855,0.673-0.709,1.545c0.164,0.982,0.568,1.887,1.201,2.631
				c0.55,0.646,0.451,1.175,0.091,1.837c-0.99,1.819-2.235,3.428-3.816,4.764c-3.885,3.284-8.418,4.777-13.462,4.838
				c-3.23,0.012-6.292-0.697-9.171-2.137c-3.324-1.663-5.917-4.086-7.528-7.481c-0.552-1.165-0.544-1.174,0.373-2.117
				c0.58-0.596,1.156-1.203,1.49-1.971c0.233-0.537,0.149-1.081-0.396-1.412c-0.539-0.327-1.028-0.181-1.418,0.299
				c-0.154,0.189-0.276,0.404-0.439,0.583c-1.405,1.548-3.039,2.724-5.126,3.185c-0.679,0.15-1.358,0.088-2.036,0.127
				c-1.006,0.059-1.58,0.558-1.587,1.346c-0.007,0.797,0.576,1.33,1.57,1.335c0.728,0.004,1.464-0.039,2.182-0.153
				c1.303-0.206,1.306-0.239,1.867,0.877c1.452,2.888,3.512,5.26,6.126,7.143c4.522,3.257,9.618,4.691,15.142,4.393
				c8.543-0.461,15.352-4.011,19.743-11.592c0.337-0.583,0.646-0.875,1.369-0.72c1.006,0.216,2.043,0.182,3.055,0
				c0.768-0.138,1.209-0.76,1.145-1.46C275.715,280,275.206,279.551,274.386,279.521z"/>
			<path style="fill:#3D191A;" d="M264.595,215.372c0.512,0.303,1.063,0.2,1.439-0.286c0.264-0.342,0.456-0.745,0.652-1.135
				c0.945-1.878,2.046-3.656,3.4-5.266c1.266-1.504,2.709-2.799,4.531-3.613c3.785-1.69,7.303-0.55,9.381,3.046
				c0.588,1.017,1.001,2.111,1.353,3.227c0.528,1.671,0.993,3.362,1.56,5.019c0.437,1.278,1.521,1.845,2.617,1.493
				c1.025-0.329,1.532-1.36,1.276-2.614c-0.049-0.238-0.135-0.467-0.205-0.701c-0.586-1.961-1.285-3.882-2.088-5.764
				c-0.537-1.258-1.164-2.474-2.043-3.53c-2.082-2.503-4.614-4.165-8.454-4.155c-2.146-0.025-4.413,0.889-6.466,2.4
				c-3.634,2.674-5.541,6.584-7.444,10.487C263.837,214.527,264.093,215.075,264.595,215.372z"/>
			<path style="fill:#3D191A;" d="M213.707,215.438c0.714-0.003,0.97-0.456,1.118-1.108c0.763-3.345,2.602-6.06,5.046-8.397
				c0.851-0.814,1.835-1.443,2.919-1.92c2.747-1.209,4.785-0.839,6.922,1.272c0.918,0.907,1.552,1.999,2.061,3.169
				c0.547,1.256,0.924,2.568,1.207,3.905c0.192,0.906,0.322,1.826,0.545,2.724c0.255,1.022,0.903,1.555,1.826,1.614
				c1.378,0.088,2.347-0.996,2.103-2.5c-0.497-3.052-1.383-5.984-3.001-8.65c-1.136-1.872-2.651-3.351-4.589-4.404
				c-2.234-1.214-4.527-1.412-6.909-0.52c-1.664,0.623-3.157,1.532-4.454,2.747c-2.546,2.384-4.308,5.271-5.409,8.567
				c-0.2,0.599-0.377,1.213-0.388,1.857c0,0.098-0.002,0.195,0,0.292C212.726,214.937,213.081,215.441,213.707,215.438z"/>
			<path style="fill:#3D191A;" d="M248.103,263.77c1.435-0.195,2.688,0.272,3.814,1.133c0.347,0.266,0.646,0.602,1.013,0.832
				c0.858,0.538,1.859,0.385,2.528-0.337c0.628-0.678,0.737-1.631,0.226-2.426c-0.207-0.323-0.487-0.61-0.775-0.867
				c-1.777-1.58-3.834-2.46-7.035-2.436c-3.99,0.004-7.045,3.95-5.747,8.45c1.123,3.893,5.57,6.849,9.594,6.361
				c0.577-0.07,1.162-0.137,1.702-0.389c0.99-0.461,1.445-1.374,1.189-2.391c-0.237-0.94-1.024-1.513-2.074-1.466
				c-0.385,0.017-0.765,0.136-1.15,0.186c-2.198,0.283-4.72-1.368-5.333-3.483C245.581,265.301,246.413,263.999,248.103,263.77z"/>
			<path style="fill:#3D191A;" d="M336.545,193.487c0.755-0.033,1.429-0.296,2.073-0.653c1.53-0.849,3.038-1.742,4.594-2.542
				c3.423-1.759,6.285-4.221,8.917-6.98c0.639-0.669,1.234-1.382,1.665-2.206c0.384-0.735,0.26-1.326-0.315-1.649
				c-0.645-0.362-1.08-0.048-1.492,0.457c-2.626,3.213-5.846,5.672-9.571,7.482c-1.749,0.85-3.492,1.71-5.246,2.55
				c-0.669,0.32-1.279,0.707-1.716,1.316c-0.351,0.489-0.626,1.031-0.307,1.625C335.438,193.43,336.014,193.445,336.545,193.487z"/>
			<path style="fill:#3D191A;" d="M163.483,180.495c-0.409-0.366-0.912-0.553-1.424-0.716c-3.612-1.148-6.612-3.259-9.265-5.906
				c-0.792-0.79-1.525-1.639-2.314-2.432c-0.588-0.591-1.217-0.665-1.677-0.268c-0.474,0.409-0.483,0.965,0.057,1.685
				c1.024,1.363,2.144,2.646,3.34,3.863c2.56,2.602,5.483,4.653,8.907,5.961c0.456,0.174,0.898,0.38,1.316,0.36
				c0.846,0.005,1.462-0.315,1.636-0.86C164.28,181.49,163.988,180.947,163.483,180.495z"/>
			<path style="fill:#3D191A;" d="M326.632,197.003c0.155-0.019,0.305-0.016,0.441-0.058c1.756-0.544,3.509-1.104,5.167-1.905
				c0.738-0.357,0.965-0.966,0.714-1.532c-0.246-0.555-0.773-0.7-1.633-0.435c-1.432,0.442-2.859,0.9-4.294,1.33
				c-0.375,0.113-0.743,0.231-1.053,0.468c-0.431,0.33-0.873,0.724-0.725,1.316C325.419,196.866,326.049,196.943,326.632,197.003z"
				/>
			<path style="fill:#3D191A;" d="M170.224,183.147c-0.85-0.468-1.791-0.727-2.727-0.95c-0.527-0.125-0.934,0.19-1.135,0.696
				c-0.187,0.47-0.022,0.895,0.36,1.155c0.847,0.576,1.825,0.868,2.763,1.153c0.61,0.016,1.129-0.115,1.33-0.709
				C171.015,183.902,170.725,183.423,170.224,183.147z"/>
		</g>
	</g>
</g>
</svg>
