<?xml version="1.0" encoding="utf-8"?>
<!-- Generator: Adobe Illustrator 27.5.0, SVG Export Plug-In . SVG Version: 6.00 Build 0)  -->
<svg version="1.1" xmlns="http://www.w3.org/2000/svg" xmlns:xlink="http://www.w3.org/1999/xlink" x="0px" y="0px"
	 viewBox="0 0 500 500" style="enable-background:new 0 0 500 500;" xml:space="preserve">
<g id="BACKGROUND">
	<rect style="fill:#FFFFFF;" width="500" height="500"/>
	<path style="fill:#F4E2CE;" d="M0,371.013V500h112.723C61.551,473.195,22.259,425.717,0,371.013z"/>
	<path style="fill:#F4E2CE;" d="M458.68,28.116c16.123,14.991,29.858,32.352,41.32,51.163V0H421.2
		C434.541,8.028,447.112,17.361,458.68,28.116z"/>
	<path style="fill:#F4E2CE;" d="M0,0v96.676C22.311,57.784,51.792,23.617,89.008,0H0z"/>
	<path style="fill:#F4E2CE;" d="M500,395.641c-28.118,44.72-68.925,81.53-116.376,104.359H500V395.641z"/>
</g>
<g id="OBJECTS">
	<g>
		<path style="fill:#B8C0A2;" d="M412.404,278.413c-8.721,0.827-17.487,2.073-26.017,4.095c-3.305,0.784-6.657,1.804-9.569,3.595
			c-2.877,1.77-5.02,4.188-6.354,7.295c-1.11,2.584-1.722,5.603-3.425,7.88c-0.423-2.92-0.217-5.889,0.661-8.734
			c0.236-0.764-0.641-1.798-1.438-1.257c-5.61,3.805-11.251,7.746-15.852,12.771c-2.21,2.413-4.165,5.048-5.628,7.982
			c-1.484,2.976-2.226,6.072-2.769,9.333c-0.432,2.596-0.876,5.788-2.818,7.732c-0.645-3.087-1.29-6.174-1.935-9.261
			c-0.154-0.735-1.106-1.105-1.676-0.563c-4.367,4.146-7.394,9.415-9.257,15.114c-1.898,5.806-2.848,12.086-3.012,18.186
			c-0.047,1.759-0.076,3.516-0.065,5.276c0.001,0.19,0.01,0.379,0.015,0.569c-0.121,3.866-0.068,7.737,0.165,11.598
			c0.042,0.698,0.507,1.199,1.244,1.097c7.952-1.101,15.744-3.269,23.132-6.41c3.694-1.571,7.285-3.387,10.736-5.439
			c1.677-0.997,3.319-2.051,4.93-3.152c1.442-0.985,3.305-1.996,3.892-3.76c0.588-1.767-0.217-3.751-1.54-4.964
			c-0.877-0.804-1.936-1.292-3.048-1.642c2.445-1.22,5.248-1.667,7.919-2.17c3.444-0.649,6.764-1.53,9.776-3.382
			c2.85-1.752,5.312-4.033,7.518-6.534c1.14-1.292,2.224-2.63,3.271-3.999c1.003-1.313,2.071-2.629,2.953-4.027
			c0.503-0.798,0.854-1.729,0.581-2.672c-0.269-0.927-1.054-1.483-1.891-1.864c-1.162-0.529-2.36-0.996-3.56-1.453
			c5.24-1.97,9.883-5.327,13.481-9.648c2.088-2.508,3.784-5.342,5.006-8.369c1.301-3.221,1.888-6.639,2.425-10.054
			c0.622-3.955,1.226-8.031,3.225-11.567C413.944,279.187,413.317,278.326,412.404,278.413z"/>
		<path style="fill:#90997C;" d="M397.701,296.244c-1.686,0.112-3.38,0.14-5.069,0.093c-0.426-0.012-0.851-0.025-1.277-0.037
			c3.841-2.897,7.763-5.686,11.766-8.353c3.095-2.062,6.235-4.054,9.419-5.976c0.277-0.665,0.577-1.321,0.935-1.954
			c0.326-0.577,0.114-1.163-0.35-1.441c-2.776,1.648-5.524,3.344-8.234,5.098c-8.461,5.477-16.603,11.445-24.361,17.88
			c-1.795,1.489-3.568,3.005-5.322,4.542c0.25-0.721,0.489-1.448,0.737-2.17c0.637-1.856,1.246-3.719,1.851-5.585
			c1.153-3.558,2.273-7.135,3.573-10.642c0.544-1.469,1.142-2.91,1.789-4.326c-0.917,0.278-1.824,0.586-2.713,0.939
			c-0.162,0.389-0.334,0.773-0.487,1.166c-1.362,3.501-2.44,7.115-3.568,10.696c-0.67,2.125-1.345,4.248-1.954,6.391
			c-0.29,1.021-0.578,2.043-0.865,3.066c-0.21,0.748-0.507,1.578-0.516,2.379c-5.001,4.486-9.83,9.164-14.463,14.029
			c-3.666,3.85-7.204,7.816-10.614,11.889c-0.002-0.858-0.042-1.717-0.04-2.534c0.004-1.893-0.012-3.785-0.003-5.678
			c0.017-3.825,0.201-7.644,0.644-11.445c0.421-3.611,1.153-7.162,2.233-10.632c-0.133,0.141-0.273,0.275-0.404,0.418
			c-1.024,1.118-1.989,2.285-2.88,3.506c-1.19,5.466-1.63,11.056-1.628,16.694c0.001,2.143,0.044,4.282,0.178,6.421
			c0.101,1.615,0.075,3.412,0.403,5.052c-2.496,3.041-4.921,6.141-7.265,9.304c-3.031,4.089-5.915,8.287-8.662,12.573
			c0.006-0.21,0.011-0.421,0.017-0.638c0.037-1.283,0.004-2.567-0.005-3.85c-0.018-2.461-0.035-4.922-0.053-7.383
			c-0.034-4.824-0.142-9.654,0.22-14.469c0.188-2.498,0.502-4.985,0.913-7.456c-1.072,1.482-2.03,3.043-2.865,4.673
			c-0.488,5.039-0.568,10.116-0.4,15.219c0.095,2.879,0.197,5.759,0.295,8.638c0.047,1.365,0.07,2.734,0.147,4.098
			c0.064,1.127,0.083,2.228,0.395,3.282c-2.016,3.22-3.952,6.489-5.818,9.797c0.009,0.168,0.014,0.336,0.025,0.504
			c0.037,0.611,0.397,1.071,0.981,1.108c2.06-3.138,3.935-6.408,5.999-9.541c1.752-2.659,3.566-5.275,5.415-7.866
			c1.713,0.264,3.518,0.134,5.234,0.078c2.023-0.066,4.045-0.19,6.058-0.397c3.952-0.406,7.88-1.055,11.753-1.941
			c2.777-0.635,5.528-1.396,8.243-2.269c-0.308-0.682-0.752-1.305-1.29-1.798c-0.017-0.016-0.036-0.027-0.053-0.042
			c-5.718,1.84-11.611,3.145-17.569,3.895c-2.115,0.266-4.241,0.476-6.368,0.619c-1.569,0.106-3.207,0.051-4.801,0.171
			c0.637-0.881,1.277-1.761,1.923-2.636c5.897-8.003,12.26-15.682,19.024-22.967c0.118-0.127,0.238-0.251,0.356-0.378
			c0.513,0.159,1.056,0.246,1.6,0.345c1.059,0.193,2.121,0.369,3.186,0.529c2.128,0.32,4.263,0.565,6.41,0.728
			c4.285,0.326,8.591,0.387,12.884,0.186c3.714-0.174,7.406-0.553,11.068-1.118c0.253-0.357,0.498-0.718,0.729-1.085
			c0.291-0.462,0.526-0.968,0.624-1.495c-7.826,1.375-15.752,1.955-23.696,1.575c-2.341-0.112-4.681-0.299-7.012-0.543
			c-1.165-0.122-2.328-0.263-3.488-0.425c-0.311-0.043-0.626-0.097-0.94-0.146c6.248-6.598,12.844-12.867,19.759-18.763
			c3.272-2.79,6.619-5.494,10.029-8.117c0.751,0.141,1.505,0.27,2.267,0.334c1.554,0.131,3.114,0.191,4.674,0.189
			c3.052-0.005,6.104-0.312,9.109-0.839c1.274-0.224,2.543-0.497,3.806-0.803c0.17-0.767,0.321-1.54,0.46-2.315
			C405.848,295.346,401.798,295.973,397.701,296.244z"/>
	</g>
	<g>
		<path style="fill:#90997C;" d="M439.385,345.059c-7.952-3.675-16.154-7.01-24.543-9.557c-3.25-0.987-6.66-1.792-10.078-1.71
			c-3.377,0.081-6.445,1.092-9.162,3.105c-2.259,1.674-4.309,3.975-6.926,5.085c1.104-2.736,2.776-5.197,4.968-7.214
			c0.588-0.541,0.351-1.876-0.61-1.81c-6.763,0.464-13.621,1.03-20.126,3.056c-3.124,0.973-6.14,2.265-8.881,4.065
			c-2.78,1.824-4.98,4.126-7.09,6.671c-1.68,2.026-3.67,4.561-6.327,5.262c0.996-2.992,1.993-5.984,2.99-8.976
			c0.237-0.712-0.4-1.511-1.165-1.331c-5.861,1.385-11.128,4.414-15.606,8.4c-4.562,4.061-8.544,9.01-11.757,14.198
			c-0.926,1.495-1.836,3-2.711,4.526c-0.094,0.165-0.182,0.333-0.274,0.499c-2.05,3.279-3.953,6.651-5.695,10.105
			c-0.315,0.624-0.166,1.291,0.522,1.574c7.426,3.051,15.25,5.1,23.214,6.104c3.983,0.502,8,0.74,12.014,0.704
			c1.951-0.017,3.9-0.102,5.846-0.242c1.742-0.126,3.861-0.061,5.255-1.29c1.398-1.231,1.701-3.351,1.168-5.064
			c-0.353-1.136-1.022-2.091-1.808-2.953c2.726,0.176,5.374,1.201,7.935,2.11c3.303,1.173,6.614,2.083,10.15,1.999
			c3.344-0.079,6.62-0.811,9.785-1.862c1.635-0.543,3.246-1.153,4.839-1.81c1.527-0.629,3.113-1.229,4.578-1.993
			c0.836-0.436,1.608-1.064,1.847-2.017c0.235-0.936-0.164-1.812-0.696-2.563c-0.738-1.042-1.537-2.049-2.345-3.048
			c5.52,0.936,11.221,0.372,16.505-1.552c3.066-1.116,5.959-2.712,8.538-4.711c2.745-2.129,4.973-4.786,7.156-7.467
			c2.528-3.104,5.102-6.322,8.609-8.372C440.326,346.503,440.217,345.444,439.385,345.059z"/>
		<path style="fill:#B8C0A2;" d="M417.706,353.066c-1.513-0.752-2.991-1.58-4.427-2.471c-0.362-0.224-0.723-0.45-1.085-0.675
			c4.777-0.57,9.57-1.006,14.372-1.296c3.712-0.224,7.429-0.365,11.147-0.423c0.574-0.435,1.163-0.851,1.792-1.218
			c0.573-0.335,0.684-0.948,0.423-1.421c-3.229,0.027-6.456,0.109-9.681,0.261c-10.068,0.473-20.107,1.533-30.05,3.188
			c-2.301,0.383-4.595,0.801-6.885,1.246c0.579-0.497,1.151-1.005,1.729-1.504c1.484-1.283,2.949-2.586,4.411-3.895
			c2.787-2.494,5.556-5.021,8.444-7.397c1.21-0.996,2.451-1.94,3.723-2.838c-0.932-0.221-1.871-0.412-2.817-0.554
			c-0.336,0.255-0.678,0.5-1.008,0.763c-2.939,2.34-5.689,4.92-8.467,7.446c-1.648,1.499-3.301,2.993-4.905,4.539
			c-0.764,0.737-1.528,1.475-2.29,2.214c-0.558,0.541-1.233,1.108-1.643,1.795c-6.579,1.358-13.107,2.97-19.558,4.843
			c-5.105,1.482-10.159,3.127-15.156,4.931c0.43-0.742,0.828-1.504,1.241-2.21c0.956-1.633,1.895-3.277,2.855-4.908
			c1.94-3.296,4.021-6.504,6.317-9.565c2.181-2.908,4.601-5.608,7.281-8.063c-0.186,0.055-0.374,0.1-0.56,0.158
			c-1.447,0.451-2.869,0.974-4.253,1.58c-3.779,4.124-6.974,8.732-9.809,13.606c-1.078,1.852-2.117,3.723-3.077,5.638
			c-0.725,1.446-1.653,2.986-2.194,4.569c-3.687,1.372-7.343,2.83-10.961,4.383c-4.677,2.008-9.282,4.184-13.813,6.504
			c0.111-0.178,0.221-0.358,0.336-0.542c0.677-1.09,1.296-2.216,1.934-3.33c1.223-2.135,2.447-4.271,3.67-6.406
			c2.398-4.185,4.736-8.413,7.473-12.392c1.42-2.064,2.943-4.055,4.542-5.983c-1.673,0.741-3.285,1.608-4.828,2.596
			c-2.958,4.108-5.583,8.455-8.005,12.949c-1.367,2.536-2.729,5.075-4.093,7.613c-0.647,1.203-1.316,2.398-1.935,3.615
			c-0.512,1.006-1.049,1.967-1.311,3.034c-3.363,1.767-6.681,3.618-9.958,5.538c-0.076,0.15-0.157,0.298-0.233,0.448
			c-0.275,0.546-0.196,1.126,0.29,1.451c3.359-1.674,6.626-3.557,9.986-5.225c2.852-1.415,5.736-2.763,8.638-4.071
			c1.347,1.09,2.972,1.886,4.483,2.701c1.781,0.961,3.59,1.872,5.434,2.707c3.62,1.638,7.34,3.054,11.133,4.238
			c2.719,0.849,5.479,1.576,8.265,2.189c0.077-0.744,0.007-1.507-0.21-2.203c-0.007-0.022-0.018-0.042-0.025-0.064
			c-5.867-1.288-11.616-3.127-17.142-5.478c-1.962-0.835-3.904-1.724-5.815-2.67c-1.409-0.698-2.796-1.57-4.234-2.269
			c0.994-0.441,1.99-0.878,2.988-1.31c9.124-3.947,18.487-7.38,27.998-10.27c0.166-0.05,0.332-0.097,0.498-0.147
			c0.364,0.395,0.789,0.745,1.209,1.104c0.818,0.7,1.647,1.387,2.486,2.061c1.678,1.348,3.4,2.634,5.172,3.855
			c3.539,2.438,7.228,4.658,11.039,6.645c3.296,1.719,6.678,3.249,10.126,4.605c0.398-0.181,0.792-0.37,1.177-0.571
			c0.484-0.252,0.942-0.572,1.292-0.978c-7.455-2.751-14.596-6.239-21.268-10.566c-1.966-1.275-3.895-2.614-5.786-3.998
			c-0.945-0.692-1.879-1.399-2.8-2.123c-0.247-0.194-0.492-0.399-0.739-0.599c8.72-2.557,17.574-4.654,26.517-6.267
			c4.232-0.764,8.485-1.416,12.751-1.966c0.578,0.5,1.165,0.991,1.791,1.429c1.277,0.895,2.595,1.733,3.943,2.515
			c2.64,1.532,5.432,2.803,8.293,3.859c1.214,0.448,2.448,0.851,3.693,1.222c0.534-0.578,1.052-1.169,1.563-1.769
			C425.197,356.391,421.382,354.893,417.706,353.066z"/>
	</g>
	<g>
		<path style="fill:#B8C0A2;" d="M49.462,224.396c2.871,8.276,6.159,16.497,10.146,24.305c1.545,3.025,3.331,6.04,5.761,8.444
			c2.401,2.376,5.258,3.884,8.593,4.444c2.773,0.465,5.852,0.345,8.467,1.46c-2.737,1.104-5.669,1.607-8.642,1.428
			c-0.798-0.048-1.595,1.049-0.881,1.695c5.026,4.548,10.192,9.094,16.165,12.373c2.868,1.575,5.891,2.85,9.089,3.576
			c3.243,0.736,6.426,0.723,9.723,0.477c2.625-0.196,5.831-0.521,8.179,0.906c-2.846,1.358-5.692,2.716-8.538,4.075
			c-0.677,0.323-0.811,1.336-0.15,1.762c5.063,3.26,10.899,4.951,16.877,5.41c6.09,0.468,12.417-0.098,18.382-1.384
			c1.72-0.371,3.434-0.76,5.14-1.188c0.184-0.046,0.366-0.1,0.549-0.149c3.784-0.799,7.532-1.768,11.228-2.91
			c0.668-0.206,1.045-0.776,0.771-1.469c-2.955-7.464-6.908-14.52-11.71-20.953c-2.401-3.217-5.018-6.274-7.828-9.141
			c-1.366-1.393-2.779-2.738-4.231-4.042c-1.299-1.167-2.723-2.738-4.575-2.89c-1.857-0.152-3.593,1.1-4.457,2.673
			c-0.573,1.042-0.796,2.186-0.872,3.351c-1.765-2.086-2.864-4.703-3.985-7.178c-1.447-3.193-3.089-6.208-5.603-8.696
			c-2.377-2.353-5.177-4.204-8.13-5.755c-1.526-0.801-3.082-1.538-4.66-2.229c-1.513-0.663-3.045-1.389-4.612-1.914
			c-0.895-0.3-1.882-0.42-2.733,0.069c-0.837,0.481-1.191,1.375-1.363,2.279c-0.239,1.255-0.409,2.528-0.568,3.803
			c-3.156-4.624-7.518-8.339-12.569-10.81c-2.931-1.434-6.087-2.41-9.317-2.88c-3.438-0.5-6.897-0.26-10.342,0.027
			c-3.99,0.333-8.092,0.713-12.002-0.391C49.85,222.716,49.162,223.53,49.462,224.396z"/>
		<path style="fill:#90997C;" d="M70.27,234.453c0.508,1.612,0.937,3.25,1.292,4.902c0.089,0.416,0.177,0.833,0.266,1.249
			c-3.725-3.045-7.364-6.194-10.904-9.451c-2.736-2.518-5.417-5.097-8.039-7.734c-0.711-0.111-1.42-0.248-2.12-0.445
			c-0.638-0.18-1.157,0.165-1.317,0.681c2.259,2.306,4.558,4.574,6.905,6.791c7.326,6.922,15.055,13.417,23.145,19.428
			c1.872,1.391,3.765,2.754,5.674,4.093c-0.76-0.072-1.523-0.132-2.282-0.201c-1.954-0.179-3.908-0.329-5.865-0.474
			c-3.73-0.276-7.47-0.517-11.186-0.949c-1.557-0.181-3.098-0.42-4.627-0.712c0.487,0.825,1.002,1.633,1.555,2.413
			c0.416,0.065,0.83,0.141,1.249,0.197c3.724,0.493,7.49,0.684,11.237,0.931c2.223,0.147,4.446,0.3,6.672,0.383
			c1.061,0.039,2.122,0.077,3.183,0.114c0.777,0.027,1.654,0.119,2.433-0.062c5.543,3.796,11.232,7.378,17.057,10.725
			c4.609,2.649,9.301,5.147,14.067,7.493c-0.833,0.205-1.658,0.448-2.452,0.64c-1.84,0.445-3.675,0.909-5.516,1.349
			c-3.72,0.89-7.474,1.617-11.271,2.087c-3.608,0.447-7.231,0.578-10.858,0.351c0.169,0.095,0.332,0.2,0.502,0.293
			c1.328,0.73,2.692,1.391,4.089,1.967c5.592-0.139,11.127-1.037,16.604-2.376c2.081-0.509,4.149-1.058,6.195-1.695
			c1.545-0.481,3.297-0.881,4.813-1.59c3.546,1.704,7.132,3.325,10.761,4.853c4.691,1.975,9.453,3.782,14.268,5.435
			c-0.205,0.044-0.412,0.089-0.624,0.134c-1.255,0.268-2.495,0.605-3.739,0.918c-2.387,0.601-4.773,1.201-7.16,1.801
			c-4.678,1.177-9.345,2.426-14.109,3.216c-2.471,0.41-4.962,0.693-7.46,0.88c1.694,0.691,3.437,1.251,5.219,1.676
			c5.011-0.72,9.962-1.846,14.88-3.219c2.775-0.775,5.548-1.556,8.322-2.335c1.315-0.369,2.64-0.716,3.946-1.115
			c1.079-0.329,2.145-0.609,3.095-1.161c3.606,1.195,7.241,2.301,10.897,3.329c0.161-0.049,0.323-0.094,0.484-0.143
			c0.584-0.181,0.946-0.64,0.844-1.216c-3.537-1.258-7.158-2.304-10.692-3.567c-2.998-1.072-5.97-2.214-8.925-3.396
			c-0.15-1.727-0.703-3.449-1.165-5.103c-0.544-1.949-1.143-3.884-1.821-5.791c-1.331-3.743-2.893-7.405-4.672-10.958
			c-1.275-2.547-2.666-5.04-4.158-7.471c-0.589,0.461-1.09,1.04-1.441,1.68c-0.011,0.02-0.017,0.042-0.028,0.062
			c3.143,5.119,5.807,10.535,7.948,16.145c0.76,1.992,1.467,4.008,2.111,6.04c0.475,1.499,0.81,3.103,1.304,4.623
			c-1.007-0.41-2.013-0.824-3.017-1.243c-9.172-3.832-18.141-8.194-26.822-13.037c-0.151-0.084-0.301-0.172-0.451-0.256
			c0.033-0.536-0.011-1.085-0.044-1.637c-0.064-1.075-0.144-2.148-0.241-3.22c-0.194-2.144-0.462-4.276-0.812-6.399
			c-0.699-4.241-1.66-8.438-2.873-12.561c-1.049-3.566-2.293-7.064-3.71-10.488c-0.407-0.161-0.816-0.313-1.227-0.451
			c-0.517-0.173-1.065-0.282-1.601-0.252c3.191,7.277,5.633,14.84,7.147,22.648c0.446,2.301,0.82,4.619,1.135,6.941
			c0.158,1.161,0.296,2.324,0.414,3.489c0.032,0.313,0.054,0.631,0.081,0.948c-7.891-4.506-15.545-9.428-22.911-14.748
			c-3.486-2.518-6.907-5.128-10.262-7.819c-0.041-0.763-0.095-1.526-0.213-2.281c-0.241-1.541-0.552-3.071-0.925-4.585
			c-0.728-2.963-1.75-5.856-2.975-8.65c-0.519-1.185-1.086-2.353-1.682-3.508c-0.786,0.016-1.572,0.053-2.358,0.102
			C67.467,226.751,69.036,230.538,70.27,234.453z"/>
	</g>
	<g>
		<path style="fill:#90997C;" d="M107.813,182.386c-1.685,8.596-2.982,17.356-3.467,26.108c-0.188,3.392-0.162,6.895,0.728,10.196
			c0.879,3.262,2.589,6.003,5.188,8.165c2.162,1.798,4.883,3.244,6.582,5.523c-2.92-0.424-5.707-1.465-8.186-3.116
			c-0.665-0.443-1.906,0.104-1.614,1.021c2.054,6.46,4.23,12.988,7.74,18.828c1.686,2.805,3.656,5.428,6.054,7.665
			c2.432,2.268,5.189,3.86,8.162,5.307c2.367,1.152,5.301,2.484,6.612,4.899c-3.143-0.259-6.286-0.518-9.429-0.777
			c-0.748-0.062-1.373,0.746-1.016,1.447c2.735,5.366,6.926,9.764,11.86,13.17c5.027,3.469,10.779,6.165,16.58,8.056
			c1.672,0.545,3.349,1.072,5.039,1.561c0.182,0.053,0.366,0.098,0.55,0.148c3.672,1.215,7.398,2.264,11.167,3.137
			c0.681,0.158,1.294-0.145,1.406-0.881c1.204-7.937,1.34-16.024,0.428-24c-0.456-3.988-1.178-7.947-2.164-11.839
			c-0.479-1.892-1.023-3.765-1.621-5.623c-0.535-1.662-0.975-3.736-2.499-4.8c-1.528-1.066-3.658-0.858-5.197,0.066
			c-1.02,0.613-1.789,1.489-2.44,2.456c-0.475-2.69-0.107-5.505,0.169-8.209c0.357-3.487,0.455-6.92-0.464-10.334
			c-0.87-3.23-2.357-6.239-4.128-9.064c-0.915-1.46-1.89-2.88-2.905-4.272c-0.973-1.335-1.932-2.733-3.022-3.975
			c-0.622-0.709-1.415-1.31-2.397-1.316c-0.965-0.006-1.721,0.589-2.325,1.284c-0.838,0.964-1.626,1.979-2.405,3.001
			c-0.4-5.584-2.299-10.99-5.42-15.667c-1.811-2.714-4.047-5.146-6.601-7.178c-2.719-2.163-5.829-3.697-8.95-5.182
			c-3.615-1.721-7.351-3.458-10.174-6.379C108.994,181.129,107.99,181.486,107.813,182.386z"/>
		<path style="fill:#B8C0A2;" d="M120.731,201.55c-0.372,1.648-0.826,3.28-1.351,4.886c-0.132,0.405-0.266,0.809-0.399,1.214
			c-1.686-4.506-3.246-9.059-4.665-13.655c-1.097-3.553-2.115-7.13-3.054-10.729c-0.559-0.454-1.102-0.929-1.608-1.452
			c-0.461-0.477-1.083-0.44-1.48-0.074c0.791,3.13,1.636,6.246,2.548,9.344c2.846,9.669,6.255,19.171,10.22,28.438
			c0.917,2.144,1.867,4.275,2.843,6.393c-0.621-0.445-1.249-0.88-1.871-1.323c-1.598-1.138-3.211-2.252-4.829-3.362
			c-3.084-2.116-6.194-4.207-9.188-6.45c-1.254-0.94-2.465-1.922-3.639-2.945c0.006,0.958,0.044,1.915,0.13,2.868
			c0.327,0.266,0.646,0.54,0.98,0.798c2.97,2.3,6.128,4.361,9.241,6.46c1.847,1.246,3.69,2.497,5.573,3.689
			c0.897,0.568,1.795,1.135,2.694,1.701c0.658,0.414,1.369,0.935,2.134,1.171c2.879,6.07,5.992,12.029,9.341,17.853
			c2.65,4.609,5.446,9.128,8.383,13.555c-0.823-0.242-1.658-0.447-2.441-0.681c-1.814-0.542-3.633-1.064-5.445-1.61
			c-3.662-1.104-7.272-2.365-10.79-3.87c-3.342-1.43-6.539-3.141-9.559-5.162c0.098,0.167,0.186,0.34,0.286,0.506
			c0.781,1.299,1.626,2.556,2.543,3.757c4.902,2.694,10.137,4.705,15.543,6.304c2.054,0.608,4.118,1.174,6.207,1.654
			c1.577,0.362,3.292,0.898,4.959,1.049c2.206,3.257,4.49,6.463,6.856,9.61c3.059,4.068,6.265,8.026,9.593,11.878
			c-0.199-0.065-0.401-0.13-0.606-0.198c-1.219-0.4-2.46-0.733-3.693-1.089c-2.365-0.682-4.729-1.365-7.093-2.047
			c-4.635-1.337-9.296-2.607-13.81-4.323c-2.341-0.89-4.637-1.898-6.889-2.995c1.116,1.449,2.341,2.811,3.666,4.075
			c4.692,1.9,9.537,3.419,14.478,4.708c2.788,0.727,5.577,1.448,8.366,2.171c1.322,0.343,2.642,0.71,3.971,1.023
			c1.099,0.259,2.16,0.553,3.258,0.554c2.514,2.848,5.099,5.633,7.74,8.362c0.164,0.039,0.327,0.082,0.49,0.12
			c0.596,0.138,1.14-0.077,1.341-0.626c-2.423-2.867-5.026-5.594-7.443-8.463c-2.051-2.435-4.044-4.918-6.003-7.427
			c0.74-1.567,1.128-3.334,1.562-4.996c0.511-1.958,0.967-3.932,1.341-5.921c0.734-3.905,1.227-7.855,1.479-11.82
			c0.18-2.843,0.233-5.697,0.167-8.548c-0.741,0.102-1.465,0.35-2.091,0.726c-0.02,0.012-0.036,0.027-0.056,0.039
			c0.14,6.005-0.285,12.026-1.258,17.951c-0.346,2.104-0.749,4.202-1.216,6.282c-0.344,1.535-0.862,3.089-1.2,4.651
			c-0.664-0.862-1.325-1.725-1.981-2.592c-5.997-7.928-11.552-16.211-16.614-24.766c-0.088-0.149-0.173-0.3-0.261-0.449
			c0.298-0.447,0.536-0.943,0.786-1.436c0.486-0.961,0.957-1.929,1.413-2.904c0.911-1.95,1.753-3.927,2.519-5.939
			c1.53-4.016,2.812-8.127,3.839-12.3c0.889-3.61,1.574-7.258,2.073-10.929c-0.271-0.344-0.547-0.682-0.833-1.008
			c-0.36-0.41-0.779-0.78-1.256-1.023c-0.906,7.894-2.602,15.658-5.224,23.167c-0.773,2.212-1.617,4.404-2.513,6.569
			c-0.448,1.082-0.914,2.157-1.398,3.224c-0.13,0.286-0.271,0.572-0.407,0.86c-4.551-7.865-8.687-15.971-12.374-24.276
			c-1.745-3.93-3.387-7.907-4.932-11.922c0.349-0.68,0.686-1.366,0.964-2.078c0.567-1.453,1.068-2.931,1.509-4.427
			c0.862-2.927,1.435-5.941,1.784-8.972c0.148-1.285,0.246-2.58,0.312-3.878c-0.688-0.381-1.385-0.745-2.089-1.099
			C122.186,193.484,121.635,197.545,120.731,201.55z"/>
	</g>
	<path style="fill:#90997C;" d="M436.839,222.3c-2.666,0.801-6.316,0.698-9.101,0.915c-3.199,0.249-6.372,0.7-9.558,1.09
		c-7.181,0.878-14.37,1.692-21.555,2.537c-6.929,0.815-13.867,1.552-20.812,2.211c-0.241,0.023-0.482,0.042-0.724,0.065
		c0.456-0.241,0.913-0.481,1.368-0.722c6.617-3.495,13.234-6.99,19.85-10.485c6.616-3.495,13.202-7.038,19.767-10.628
		c5.84-3.194,13.929-6.332,17.394-12.349c0.349-0.606-0.109-1.232-0.742-1.293c-6.954-0.669-14.408,4.233-20.45,7.144
		c-6.754,3.255-13.482,6.554-20.189,9.906c-5.732,2.865-11.463,5.73-17.195,8.594c4.4-4.446,8.8-8.891,13.199-13.337
		c5.254-5.308,10.507-10.617,15.761-15.925c4.671-4.719,10.908-9.907,13.642-16.072c0.251-0.567-0.18-1.473-0.916-1.192
		c-6.001,2.287-11.11,7.688-15.841,11.885c-5.596,4.964-11.171,9.953-16.757,14.929c-3.286,2.927-6.571,5.854-9.857,8.781
		c2.151-3.931,4.29-7.869,6.443-11.799c3.362-6.139,6.661-12.298,9.868-18.52c3.003-5.828,6.427-11.599,7.894-18.032
		c0.171-0.75-0.708-1.266-1.276-0.743c-4.86,4.471-8.156,10.283-11.728,15.788c-3.809,5.87-7.518,11.789-11.177,17.754
		c-3.656,5.958-7.365,11.886-10.969,17.876c-0.723,1.202-1.539,2.448-2.375,3.726c0.995-6.537,1.966-13.074,2.873-19.624
		c0.954-6.884,1.913-13.768,2.861-20.653c0.801-5.818,2.402-12.542,0.753-18.291c-0.167-0.583-0.901-0.621-1.221-0.16
		c-3.57,5.142-4.207,12.46-5.376,18.489c-1.315,6.785-2.629,13.57-3.944,20.355c-1.316,6.791-2.541,13.596-3.762,20.407
		c-1.059,5.901-4.711,12.881-3.165,18.969c2.642,10.386,19.033,21.575,26.577,28.707c4.018,3.798,17.516,18.211,23.427,10.479
		c0.259-0.339,0.205-0.908,0-1.253c-1.047-1.76-2.858-2.587-4.466-3.771c-2.181-1.605-4.008-3.527-5.922-5.426
		c-4.562-4.527-9.065-9.08-13.517-13.718c-0.561-0.584-1.116-1.172-1.676-1.757c5.433,2.197,10.865,4.394,16.298,6.591
		c6.413,2.594,12.782,5.304,19.328,7.542c4.361,1.49,10.669,3.135,13.067-2.136c0.233-0.513,0.056-1.083-0.513-1.262
		c-5.093-1.601-9.821-4.599-14.707-6.712c-5.871-2.54-11.822-4.912-17.73-7.366c-5.138-2.135-10.274-4.277-15.415-6.405
		c7.626-0.699,15.243-1.484,22.849-2.371c7.823-0.912,15.606-2.055,23.382-3.302c6.66-1.068,13.716-1.393,17.327-7.753
		C438.614,223.134,437.814,222.008,436.839,222.3z"/>
	<path style="fill:#90997C;" d="M126.348,305.899c2.485,1.763,4.851,4.982,6.912,7.24c2.367,2.593,4.891,5.029,7.37,7.517
		c5.588,5.607,11.126,11.265,16.688,16.898c5.364,5.432,10.667,10.925,15.907,16.476c0.182,0.193,0.361,0.388,0.543,0.581
		c-0.515-0.232-1.029-0.464-1.544-0.695c-7.467-3.36-14.934-6.72-22.401-10.08c-7.467-3.36-14.955-6.66-22.469-9.911
		c-6.685-2.892-14.834-7.763-22.358-6.706c-0.757,0.106-0.99,0.923-0.617,1.51c4.1,6.452,13.345,9.589,19.921,12.845
		c7.352,3.64,14.725,7.228,22.129,10.762c6.328,3.02,12.656,6.04,18.984,9.059c-6.796-0.807-13.593-1.614-20.389-2.421
		c-8.115-0.964-16.231-1.928-24.346-2.891c-7.215-0.857-15.888-2.751-23.047-0.964c-0.659,0.164-1.15,1.146-0.412,1.593
		c6.01,3.641,14.109,4.418,20.913,5.678c8.049,1.491,16.104,2.947,24.156,4.421c4.736,0.867,9.473,1.734,14.209,2.6
		c-4.84,0.788-9.678,1.59-14.517,2.376c-7.56,1.227-15.095,2.523-22.622,3.94c-7.05,1.328-14.334,2.255-20.873,5.316
		c-0.762,0.357-0.616,1.462,0.217,1.602c7.128,1.187,14.362,0.123,21.516-0.497c7.629-0.661,15.232-1.442,22.842-2.295
		c7.601-0.852,15.213-1.638,22.807-2.557c1.523-0.184,3.148-0.318,4.813-0.457c-6.311,3.538-12.606,7.097-18.87,10.72
		c-6.583,3.808-13.17,7.61-19.75,11.423c-5.56,3.222-12.441,6.363-16.293,11.653c-0.391,0.536,0.07,1.195,0.684,1.162
		c6.839-0.378,13.585-4.75,19.573-7.797c6.74-3.429,13.48-6.858,20.221-10.287c6.746-3.432,13.444-6.952,20.144-10.479
		c5.806-3.056,14.286-4.599,18.501-10.028c7.187-9.266,5.82-30.939,6.9-42.248c0.575-6.023,3.936-27.367-6.714-27.267
		c-0.466,0.004-0.922,0.434-1.081,0.843c-0.814,2.087-0.311,4.207-0.251,6.391c0.081,2.962-0.348,5.831-0.7,8.761
		c-0.839,6.983-1.74,13.932-2.748,20.893c-0.127,0.876-0.261,1.752-0.389,2.628c-1.758-6.167-3.516-12.334-5.274-18.5
		c-2.075-7.279-4.02-14.599-6.492-21.755c-1.647-4.766-4.471-11.318-10.633-9.842c-0.599,0.144-0.973,0.68-0.744,1.292
		c2.044,5.473,2.637,11.57,4.099,17.208c1.757,6.776,3.713,13.507,5.568,20.257c1.614,5.871,3.22,11.744,4.841,17.612
		c-5.732-6.112-11.534-12.158-17.416-18.126c-6.049-6.139-12.27-12.087-18.577-17.96c-5.402-5.03-10.428-10.902-18.346-9.74
		C125.874,303.806,125.44,305.254,126.348,305.899z"/>
	<ellipse style="fill:#DFD5CE;" cx="256.223" cy="424.557" rx="92.459" ry="23.509"/>
	<g>
		<path style="fill:#FFB443;" d="M176.714,339.652c0,0,6.446,52.399,12.034,73.445c7.699,28.997,113.333,26.936,125.498,8.639
			c10.175-15.303,16.385-92.048,16.385-92.048L176.714,339.652z"/>
		<path style="fill:#FF9F30;" d="M314.246,421.736c10.175-15.303,16.385-92.048,16.385-92.048l-34.822,2.254l-6.034,28.192
			c-2.984,25.267-8.595,50.233-16.683,74.405C293.032,432.893,309.821,428.39,314.246,421.736z"/>
		<path style="fill:#FFCA5C;" d="M147.684,144.604c1.703,23.692,16.641,169.387,23.89,193.458
			c8.964,29.764,146.235,40.137,163.293,3.546c17.058-36.591,26.048-212.332,26.048-212.332L147.684,144.604z"/>
		<path style="fill:#FFB443;" d="M292.098,362.86c20.824-3.162,37.511-9.973,42.769-21.252
			c17.058-36.591,26.049-212.333,26.049-212.333l-49.886,3.586l-3.058,4.123C320.177,211.922,304.804,287.47,292.098,362.86z"/>
		<path style="fill:#8C6E51;" d="M248.026,95.782c-90.656,2.867-98.492,13.737-107.837,28.799
			c-9.345,15.062-6.725,32.826,7.638,40.466c14.363,7.639,88.851,20.307,129.984,12.592c43.764-8.209,94.106-15.004,92.619-43.173
			C368.299,94.12,316.709,93.61,248.026,95.782z"/>
		<path style="fill:#84A58C;" d="M150.556,205.284c-7.902,7.566,8.033,83.954,11.267,93.88c3.234,9.927,55.791,17.967,92.2,20.729
			c36.409,2.762,85.871-5.527,91.46-13.291c5.59-7.764,17.324-94.245,14.079-103.679c-3.245-9.434-41.27,16.845-102.843,15.508
			C200.979,217.221,159.112,197.092,150.556,205.284z"/>
		<path style="fill:#8C6E51;" d="M185.831,399.912c0.973,5.036,1.957,9.573,2.916,13.185c7.699,28.997,113.333,26.936,125.498,8.639
			c2.631-3.958,4.997-12.029,7.059-21.816C278.17,415.765,228.949,415.914,185.831,399.912z"/>
		<path style="fill:#755841;" d="M370.429,134.466c-1.688-31.973-34.441-38.927-82.145-39.356l16.546,45.341
			c4.712,9.508,7.14,20.109,7.197,30.718C344.119,164.494,371.532,155.36,370.429,134.466z"/>
		<path style="fill:#AF906E;" d="M156.459,90.503c0,0-3.756,17.143-5.738,29.859c-0.845,5.419,2.216,10.687,7.335,12.656
			c15.522,5.969,51.333,17.072,98.359,14.765c44.84-2.201,74.94-11.673,88.831-17.088c5.169-2.015,8.218-7.367,7.292-12.838
			l-4.692-27.706L156.459,90.503z"/>
		<path style="fill:#A17A60;" d="M347.845,90.15l-38.284,0.07c1.118,17.094,0.452,34.303-1.978,51.26
			c17.34-3.56,29.984-7.792,37.663-10.786c5.169-2.015,8.218-7.367,7.292-12.837L347.845,90.15z"/>
		<path style="fill:#CDAD86;" d="M156.459,90.503c0.465,29.047,190.374,23.172,191.386-0.353
			C348.857,66.625,156.034,63.941,156.459,90.503z"/>
		<path style="fill:#8C6E51;" d="M199.695,84.227c-4.38-0.779-8.771-0.95-13.171-0.646c-0.477-0.048-0.954-0.092-1.43-0.151
			c-1.099-0.136-2.162,0.136-3.09,0.668c-2.288,0.652-3.829,3.212-3.626,5.494c0.191,2.145,1.399,3.623,3.147,4.41
			c0.846,0.543,1.838,0.919,2.894,1.109c4.313,0.777,8.633,0.872,12.959,0.465c0.809-0.033,1.583-0.107,2.311-0.264
			c0.267-0.036,0.534-0.065,0.801-0.105c2.704-0.401,4.606-3.233,4.374-5.835C204.6,86.405,202.499,84.726,199.695,84.227z"/>
		<path style="fill:#6B8C72;" d="M310.823,212.723c1.136,35.796-3.317,71.758-13.12,106.203c23.78-2.445,44.298-7.486,47.781-12.324
			c5.59-7.764,17.324-94.245,14.079-103.679C357.419,196.69,340.087,206.042,310.823,212.723z"/>
		<path style="fill:#B8C0A2;" d="M176.932,281.404c-1.035-7.685-2.071-15.37-3.106-23.055c-1.034-7.678-2.18-15.336-3.332-22.998
			c-0.588-3.908-1.176-7.817-1.764-11.725c-0.47-3.122-0.516-5.71-2.816-7.989c-0.826-0.818-2.303-0.746-2.916,0.311
			c-2.915,5.033-0.073,13.565,0.569,19.08c0.899,7.716,1.773,15.433,2.79,23.135l3.046,23.07c0.53,4.012,1.044,8.026,1.59,12.036
			c0.453,3.335,0.605,6.227,3.291,8.465c1.014,0.844,2.311,0.791,3.104-0.331C180.98,296.319,177.704,287.131,176.932,281.404z"/>
		<path style="fill:#B8C0A2;" d="M204.047,284.294c-0.424-7.76-0.897-15.518-1.418-23.273c-0.522-7.773-1.347-15.518-2.168-23.264
			c-0.58-5.469,0.128-15.316-4.324-19.132c-0.468-0.401-1.309-0.601-1.774-0.038c-3.852,4.657-1.691,13.353-1.436,19.007
			c0.349,7.748,0.597,15.498,1.052,23.24c0.455,7.754,0.863,15.51,1.221,23.269c0.285,6.17-1.136,15.225,3.527,19.971
			c0.825,0.839,2.548,1.084,3.379,0.073C206.452,298.859,204.395,290.661,204.047,284.294z"/>
		<path style="fill:#B8C0A2;" d="M231.751,286.645c0.003-7.65-0.139-15.303-0.23-22.952c-0.087-7.321-0.112-14.644-0.459-21.957
			c-0.244-5.136,1.106-14.913-3.112-18.657c-0.37-0.329-0.884-0.375-1.267-0.027c-4.077,3.691-2.712,12.519-2.912,17.528
			c-0.305,7.643-0.324,15.287-0.411,22.936c-0.084,7.314-0.217,14.628-0.29,21.943c-0.07,7.027-0.952,14.727,2.15,21.208
			c0.736,1.539,3.346,1.673,4.126,0.09C232.406,300.544,231.748,293.428,231.751,286.645z"/>
		<path style="fill:#B8C0A2;" d="M261.916,235.366c-0.09-3.465,0.118-6.732-1.829-9.701c-0.61-0.931-1.826-0.963-2.475-0.054
			c-3.64,5.097-2.78,14.478-3.081,20.517c-0.396,7.936-0.845,15.866-1.409,23.792c-0.564,7.923-1.222,15.842-1.868,23.759
			c-0.494,6.058-3.247,15.418,0.536,20.721c0.675,0.946,1.875,1.265,2.806,0.424c4.737-4.28,3.959-13.129,4.512-18.993
			c0.776-8.24,1.361-16.485,1.819-24.749c0.44-7.929,0.784-15.863,1.034-23.799C262.085,243.301,262.018,239.346,261.916,235.366z"
			/>
		<path style="fill:#B8C0A2;" d="M289.893,225.177c-0.374-0.429-1.244-0.387-1.505,0.161c-2.764,5.797-1.824,13.837-2.592,20.168
			c-1,8.247-1.746,16.525-2.745,24.774c-0.966,7.971-2.048,15.93-3.113,23.888c-0.957,7.149-4.147,16.241-0.872,23.025
			c0.62,1.285,2.583,1.555,3.555,0.537c5.068-5.311,4.712-14.494,5.651-21.388c1.172-8.608,2.105-17.237,2.911-25.886
			c0.797-8.55,1.693-17.149,1.906-25.736C293.237,238.677,294.177,230.081,289.893,225.177z"/>
		<path style="fill:#B8C0A2;" d="M314.2,217.731c-0.348-0.656-1.262-0.617-1.65-0.036c-4.027,6.028-3.454,15.345-4.294,22.316
			c-1.036,8.592-1.887,17.204-3.027,25.784c-1.179,8.87-2.549,17.712-4.119,26.521c-1.179,6.616-4.783,15.512-1.745,21.928
			c0.667,1.409,2.595,1.489,3.648,0.551c5.431-4.836,5.278-15.324,6.367-22.071c1.383-8.565,2.611-17.154,3.653-25.767
			c1.036-8.565,2.039-17.173,2.467-25.793C315.861,233.909,317.736,224.397,314.2,217.731z"/>
		<path style="fill:#B8C0A2;" d="M343.298,218.848c-0.306-0.753-1.371-0.602-1.753-0.038c-3.267,4.816-3.534,11.333-4.615,16.933
			c-1.29,6.684-2.353,13.404-3.745,20.07c-2.724,13.046-6.316,25.834-9.866,38.67c-1.418,5.128,6.306,7.437,7.913,2.368
			c4.219-13.3,7.174-27.039,9.619-40.768c1.136-6.379,2.283-12.813,2.914-19.264C344.337,230.976,345.569,224.427,343.298,218.848z"
			/>
		<path style="fill:#FFE3AC;" d="M174.865,184.412c-0.583-0.772-1.145-1.546-1.855-2.204c-0.676-0.627-1.346-1.289-2.073-1.855
			c-0.865-0.674-1.742-0.928-2.781-1.2c-1.264-0.331-3.085,0.586-2.921,2.126c0.102,0.952,0.126,1.897,0.523,2.781
			c0.384,0.857,0.954,1.626,1.479,2.406c1.236,1.835,2.876,4.053,5.305,4.017c1.252-0.018,2.9-0.885,3.125-2.274
			C175.911,186.705,175.791,185.638,174.865,184.412z"/>
		<path style="fill:#FFE3AC;" d="M193.861,192.731c-0.589-1.035-1.733-1.618-2.907-1.322c-0.078,0.02-1.917,1.052-1.093,0.596
			c-0.082,0.053-0.169,0.097-0.255,0.143c-0.047,0.014-0.094,0.028-0.142,0.042c-0.683,0.175-1.279,0.506-1.79,0.992
			c1.2-0.985-1.246,0.825-0.969,0.604c-0.056,0.041-0.106,0.089-0.16,0.133c-0.035,0.021-0.059,0.035-0.11,0.067
			c-0.539,0.332-0.865,0.682-1.305,1.081c-1.547,1.406-1.383,4.418,0.579,5.422c2.367,1.212,5.276,0.945,7.156-1.075
			c1.057-1.136,1.658-2.341,1.635-3.919C194.488,194.579,194.322,193.539,193.861,192.731z"/>
		<path style="fill:#FFE3AC;" d="M216.859,193.878c-0.606-1.711-2.121-3.286-3.348-4.631c-1.09-1.194-2.067-2.653-3.66-3.123
			c-0.59-0.174-1.157,0.091-1.497,0.572c-1.2,1.693-0.439,4.062,0.364,5.809c0.824,1.791,2.787,4.158,4.782,4.59
			C215.294,197.483,217.598,195.963,216.859,193.878z"/>
		<path style="fill:#FFE3AC;" d="M231.837,199.349c-2.569,0.523-4.683,2.18-7.074,3.167c-1.654,0.683-4.699,1.943-3.671,4.276
			c1.122,2.546,5.181,1.576,7.139,0.887c2.833-0.997,5.271-2.533,6.378-5.436C235.269,200.51,233.432,199.025,231.837,199.349z"/>
		<path style="fill:#FFE3AC;" d="M256.647,191.721c-1.57-1.312-3.357-1.233-5.303-1.107c-1.749,0.113-3.659,0.608-4.909,1.854
			c-0.35,0.349-0.415,0.864-0.196,1.299c1.91,3.798,9.141,3.536,10.832-0.293C257.299,192.956,257.079,192.083,256.647,191.721z"/>
		<path style="fill:#FFE3AC;" d="M270.576,207.58c-0.963-1.351-2.31-2.468-3.923-2.932c-0.597-0.171-1.282-0.394-1.903-0.418
			c-0.389-0.015-0.809,0.078-1.17,0.198c-0.057,0.019-0.097,0.034-0.13,0.048c-0.063,0-0.143,0.001-0.256,0.006
			c-0.613,0.026-1.226,0.597-1.007,1.264c0.085,0.259,0.185,0.327,0.206,0.185c0,0.336-0.086,0.662,0.009,1.024
			c0.178,0.679,0.584,1.198,0.981,1.763c0.953,1.358,2.321,2.46,3.955,2.891c1.085,0.286,2.253-0.039,2.953-0.936
			C270.918,209.869,271.224,208.488,270.576,207.58z"/>
		<path style="fill:#FFE3AC;" d="M289.396,182.441c-0.326-0.865-1.118-1.839-2.182-1.738c-2.738,0.261-4.044,2.641-5.466,4.737
			c-0.674,0.994-1.292,2.055-1.905,3.091c-0.625,1.057-0.561,1.72-0.684,2.898c-0.05,0.479,0.423,0.91,0.876,0.915
			c1.167,0.013,1.896,0.112,2.956-0.525c1.104-0.663,2.284-1.509,3.201-2.401C287.873,187.785,290.348,184.969,289.396,182.441z"/>
		<path style="fill:#FFE3AC;" d="M305.852,198.688c-1.712-1.908-4.169-2.947-6.223-4.435c-0.522-0.378-1.351-0.028-1.505,0.574
			c-0.393,1.545-0.581,3.305,0.065,4.802c0.727,1.685,1.776,3.425,3.427,4.307C304.99,205.739,308.498,201.637,305.852,198.688z"/>
		<path style="fill:#FFE3AC;" d="M316.323,185.966c-2.498,0.097-5.22-0.799-7.504,0.362c-0.337,0.172-0.597,0.586-0.583,0.968
			c0.152,4.327,5.279,5.249,8.755,4.569C320.273,191.222,319.713,185.835,316.323,185.966z"/>
		<path style="fill:#FFE3AC;" d="M334.511,179.966c-1.134-1.336-9.996-5.034-10.464-1.821c-0.292,2.006,1.478,3.701,3.039,4.725
			c2.151,1.411,4.306,2.26,6.801,1.229C335.56,183.407,335.493,181.122,334.511,179.966z"/>
		<path style="fill:#FFE3AC;" d="M337.348,192.575c-0.196-0.975-1.434-1.789-2.407-1.436c-2.727,0.989-4.308,4.023-4.777,6.774
			c-0.404,2.371,1.295,4.786,3.943,4.118c1.112-0.281,1.963-1.201,2.316-2.263l0.022,0.024
			C336.916,197.544,337.804,194.849,337.348,192.575z"/>
		<path style="fill:#FFE3AC;" d="M350.762,187.192c-1.211-3.2-4.021-5.544-6.246-8.06c-0.625-0.707-1.668-0.143-1.749,0.68
			c-0.382,3.86,0.423,8.098,3.638,10.581C348.34,191.887,351.641,189.516,350.762,187.192z"/>
		<path style="fill:#FFE3AC;" d="M183.709,318.449c-0.472-0.694-0.884-1.321-1.576-1.828c-0.424-0.311-0.88-0.581-1.323-0.865
			c-0.53-0.34-1.065-0.762-1.676-0.945c-0.511-0.153-1.141-0.173-1.678-0.237c-1.446-0.172-2.491,1.458-2.175,2.731
			c0.136,0.551,0.242,1.151,0.521,1.652c0.272,0.489,0.72,0.928,1.08,1.356c0.771,0.916,1.437,1.702,2.528,2.254
			c1.234,0.625,2.695,0.599,3.738-0.4C184.072,321.282,184.468,319.565,183.709,318.449z"/>
		<path style="fill:#FFE3AC;" d="M185.251,333.07c-1.159,0.349-2.239,0.736-3.43,0.985c-0.543,0.114-1.128,0.229-1.642,0.452
			c-0.498,0.216-0.928,0.672-1.424,0.843c-0.632,0.218-0.797,0.872-0.399,1.39c0.738,0.962,0.933,1.632,2.165,2.198
			c1.153,0.529,2.437,0.627,3.696,0.58c2.472-0.091,6.238-1.24,6.281-4.332C190.535,332.456,187.114,332.509,185.251,333.07z"/>
		<path style="fill:#FFE3AC;" d="M207.492,323.714c-0.602-0.625-1.309-1.245-2.011-1.756c-0.832-0.606-1.556-0.662-2.548-0.571
			c-0.526,0.048-0.934,0.295-1.113,0.809c-0.245,0.704-0.51,1.369-0.333,2.13c0.193,0.829,0.61,1.683,0.906,2.483
			c0.693,1.873,1.687,3.878,3.495,4.842c1.923,1.025,3.787-0.184,4.071-2.22C210.252,327.342,208.912,325.189,207.492,323.714z"/>
		<path style="fill:#FFE3AC;" d="M200.398,343.947c-0.28,0.361-0.208,0.894-0.028,1.272c0.752,1.574,2.514,2.407,3.713,3.628
			c1.381,1.405,2.399,3.235,4.492,3.649c0.636,0.126,1.405,0.085,1.87-0.451C214.925,346.885,204.253,338.978,200.398,343.947z"/>
		<path style="fill:#FFE3AC;" d="M232.018,336.229c-0.742-2.939-4.729-2.399-6.773-1.736c-2.585,0.839-6.744,1.565-7.597,4.559
			c-0.195,0.687-0.052,1.559,0.497,2.06c2.286,2.087,5.705,0.81,8.386,0.179C228.758,340.766,232.82,339.408,232.018,336.229z"/>
		<path style="fill:#FFE3AC;" d="M244.695,332.019c-0.257-1.689-1.781-3.1-3.133-3.989c-0.581-0.382-1.169-0.868-1.832-1.096
			c-0.662-0.228-1.324-0.136-2.007-0.208c-0.429-0.045-0.874,0.394-0.854,0.818c0.029,0.631-0.095,1.239,0.058,1.862
			c0.184,0.747,0.659,1.407,1.04,2.066c0.814,1.408,2.141,2.982,3.816,3.336C243.601,335.191,244.971,333.831,244.695,332.019z"/>
		<path style="fill:#FFE3AC;" d="M246.542,342.931c-0.173-0.4-0.791-0.665-1.203-0.52c-1.832,0.644-3.173,1.841-4.405,3.342
			c-1.43,1.742-3.101,3.122-4.001,5.228c-1.176,2.749,2.291,4.511,4.448,3.576c2.201-0.955,3.672-3.451,4.726-5.512
			C247.095,347.112,247.408,344.929,246.542,342.931z"/>
		<path style="fill:#FFE3AC;" d="M266.897,342.119c-1.132-1.741-3.063-2.786-4.935-3.614c-1.633-0.722-2.969-1.377-4.785-0.936
			c-0.263,0.064-0.54,0.295-0.597,0.572c-0.793,3.893,3.881,8.306,7.559,8.551C266.38,346.84,268.155,344.054,266.897,342.119z"/>
		<path style="fill:#FFE3AC;" d="M282.223,327.315c-1.923-0.134-2.921,1.229-3.987,2.554c-0.258,0.321-0.588,0.639-0.797,0.991
			c-0.303,0.511-0.471,1.113-0.647,1.677c-0.573,1.839,1.182,3.615,3.022,3.157c0.466-0.116,0.899-0.238,1.346-0.415
			c0.521-0.206,0.951-0.561,1.405-0.886c1.39-0.992,2.764-1.922,2.74-3.856C285.283,328.768,283.975,327.437,282.223,327.315z"/>
		<path style="fill:#FFE3AC;" d="M288.354,350.323c-0.92-2.035-3.666-2.545-5.482-3.576c-1.283-0.729-3.823-2.45-4.997-0.576
			c-1.285,2.053,0.539,4.447,1.828,5.977c0.74,0.879,1.692,1.599,2.687,2.173c1.639,0.945,2.914,1.129,4.715,0.378
			C288.798,353.993,289.003,351.757,288.354,350.323z"/>
		<path style="fill:#FFE3AC;" d="M303.057,336.09c-0.351-0.044-1.317-0.212-1.928-0.118c-0.556,0.085-1.106,0.204-1.661,0.291
			c-0.872,0.137-1.865,0.332-2.816,0.316c-2.077-0.035-2.822,2.316-1.665,3.785c2.659,3.376,8.997,3.399,10.266-1.258
			C305.686,337.516,304.573,336.282,303.057,336.09z"/>
		<path style="fill:#FFE3AC;" d="M316.929,328.626c-0.817-1.073-2.226-1.616-3.337-2.315c-0.392-0.247-0.711-0.526-1.063-0.824
			c-0.558-0.473-1.16-0.582-1.788-0.896c-0.629-0.315-1.36-0.093-1.593,0.608c-0.245,0.736-0.513,1.573-0.344,2.35
			c0.17,0.782,0.63,1.663,1.038,2.352c1.057,1.784,2.798,3.44,5.008,3.449C317.463,333.361,318.348,330.489,316.929,328.626z"/>
		<path style="fill:#FFE3AC;" d="M322.623,339.421c-0.008-0.323-0.099-0.625-0.263-0.909c0.001,0.002,0.002,0.003,0.003,0.005
			c0.038-0.883-0.821-1.474-1.636-1.303c0.461-0.096-0.713-0.026-0.882-0.004c-0.427,0.055-0.761,0.19-1.131,0.405
			c-0.766,0.447-1.545,1.113-2.086,1.815c-1.187,1.536-1.786,3.579-1.735,5.502c0.033,1.23,0.587,2.657,1.768,3.243
			c1.276,0.633,2.436,0.848,3.745,0.081c1.688-0.988,1.919-2.65,2.004-4.431c0.047-0.981,0.159-1.961,0.178-2.937
			C322.598,340.396,322.68,339.909,322.623,339.421z"/>
		<path style="fill:#FFE3AC;" d="M331.178,324.847c-0.394-1.656-1.246-2.968-2.755-3.811c-1.462-0.817-3.872-0.722-4.534,1.089
			c-0.069,0.189-0.115,0.466-0.119,0.666c0.018,0.172,0.033,0.303,0.044,0.405c-0.091,0.612,0.172,1.221,0.392,1.78
			c0.009,0.029,0.015,0.049,0.033,0.104c0.11,0.347,0.223,0.704,0.383,1.032c0.184,0.375,0.428,0.712,0.604,1.093
			c0.467,1.017,1.681,1.626,2.752,1.659c0.525,0.016,1.197-0.091,1.638-0.405C330.815,327.607,331.538,326.356,331.178,324.847z"/>
		<path style="fill:#755841;" d="M279.891,410.1c-0.506,8.642-5.886,16.401-9.16,24.621c20.966-1.477,38.917-6.07,43.515-12.985
			c2.631-3.958,4.997-12.029,7.059-21.816C307.962,404.822,294.037,408.217,279.891,410.1z"/>
		<path style="fill:#CDAD86;" d="M162.299,110.342c-1.333,4.651-2.081,9.279-2.399,14.107c-0.373,5.667,8.548,5.879,8.833,0.192
			c0.219-4.363,0.702-8.753,1.376-13.069C170.812,107.073,163.51,106.117,162.299,110.342z"/>
		<path style="fill:#CDAD86;" d="M179.751,115.433c-0.254-1.431-0.957-2.323-2.071-3.193c-0.753-0.588-2.087-0.359-2.726,0.292
			c-1.777,1.81-2.822,4.184-1.69,6.672c0.718,1.58,2.944,2.033,4.363,1.246C179.48,119.424,180.104,117.424,179.751,115.433z"/>
		<path style="fill:#AF906E;" d="M168.852,152.536c-1.437-2.864-4.591-3.505-7.429-4.316c-7.004-2.001-11.175-5.68-16.348-10.574
			c-2.565-2.427-6.908-0.228-6.066,3.357c1.427,6.068,6.295,11.387,11.338,14.825c4.177,2.848,12.748,7.277,17.339,3.021
			C169.512,157.156,169.971,154.768,168.852,152.536z"/>
		<path style="fill:#AF906E;" d="M182.933,154.26c-1.99-0.185-4.602-0.171-5.294,2.164c-0.637,2.146,1.148,4.276,2.898,5.351
			c2.333,1.432,6.495,1.025,7.27-2.068C188.601,156.538,185.74,154.52,182.933,154.26z"/>
	</g>
	<path style="fill:#FF845C;" d="M110.563,161.031c-0.079-0.178-0.131-0.377-0.257-0.541c-0.132-0.171-0.286-0.317-0.44-0.468
		c-0.329-0.323-0.643-0.641-1.018-0.912c-0.635-0.458-1.275-0.908-1.913-1.362c-0.618-0.44-1.263-0.844-1.897-1.26
		c-0.116-0.076-0.234-0.142-0.353-0.209c0.194-0.144,0.389-0.286,0.582-0.432c0.889-0.673,1.703-1.443,2.536-2.183
		c0.342-0.304,0.605-0.667,0.893-1.021c0.418-0.515,0.531-1.174,0.103-1.728c-0.418-0.541-1.1-0.631-1.698-0.339
		c-0.344,0.168-0.722,0.317-1.027,0.548c-0.383,0.289-0.765,0.579-1.147,0.869c-0.388,0.294-0.761,0.603-1.142,0.904
		c0.003-0.042,0.01-0.085,0.012-0.126c0.099-1.959-0.208-3.931-0.928-5.75c-0.197-0.498-0.614-0.856-1.18-0.771
		c-0.479,0.072-0.993,0.518-0.933,1.056c0.171,1.515,0.249,3.096,0.135,4.618c-0.022,0.299-0.055,0.598-0.087,0.896
		c-0.427-0.315-0.863-0.619-1.317-0.894c-0.764-0.463-1.557-0.785-2.412-1.04c-0.398-0.119-0.855,0.078-1.062,0.432
		c-0.193,0.329-0.176,0.887,0.147,1.14c0.273,0.213,0.54,0.433,0.799,0.663c0.169,0.15,0.339,0.291,0.522,0.427
		c0.072,0.054,0.145,0.107,0.217,0.161c0.024,0.018,0.036,0.027,0.051,0.037c0.013,0.01,0.021,0.017,0.04,0.032
		c0.557,0.446,1.09,0.92,1.59,1.43c0.225,0.23,0.452,0.459,0.677,0.69c-0.002,0.031,0.004,0.063,0.004,0.094
		c-0.037,0.03-0.076,0.058-0.113,0.086c-0.315,0.243-0.596,0.527-0.888,0.798c-0.523,0.487-1.051,0.97-1.583,1.448
		c-0.517,0.465-0.988,0.978-1.476,1.472c-0.321,0.325-0.675,0.818-0.693,1.293c-0.007,0.185,0.041,0.657,0.253,0.748
		c0.064,0.028,0.128,0.055,0.192,0.082c0.313,0.133,0.556,0.162,0.892,0.088c0.424-0.093,0.776-0.296,1.143-0.517
		c0.613-0.369,1.206-0.746,1.782-1.171c0.574-0.422,1.144-0.85,1.71-1.282c0.037-0.028,0.073-0.057,0.109-0.085
		c0.036,0.365,0.07,0.73,0.109,1.096c0.067,0.632,0.104,1.279,0.213,1.905c0.108,0.619,0.278,1.354,0.736,1.805
		c0.376,0.37,1.132,0.448,1.496,0c0.461-0.567,0.579-1.329,0.629-2.048c0.038-0.549,0.006-1.112,0.006-1.662
		c0-0.06-0.001-0.12-0.001-0.18c0.76,0.454,1.533,0.884,2.308,1.313c0.483,0.268,0.959,0.498,1.479,0.688
		c0.233,0.085,0.466,0.183,0.704,0.257c0.287,0.089,0.551,0.053,0.842,0.043C110.527,162.149,110.793,161.554,110.563,161.031z"/>
	<path style="fill:#FF845C;" d="M72.688,321.827c-0.079-0.178-0.131-0.377-0.257-0.541c-0.132-0.171-0.286-0.317-0.44-0.468
		c-0.329-0.323-0.643-0.641-1.018-0.912c-0.635-0.458-1.275-0.908-1.913-1.362c-0.618-0.44-1.263-0.844-1.897-1.26
		c-0.116-0.076-0.234-0.142-0.353-0.209c0.194-0.144,0.39-0.286,0.582-0.432c0.889-0.673,1.703-1.443,2.536-2.183
		c0.342-0.304,0.605-0.667,0.893-1.021c0.418-0.515,0.531-1.173,0.103-1.728c-0.418-0.541-1.1-0.631-1.698-0.339
		c-0.344,0.168-0.722,0.317-1.027,0.548c-0.383,0.289-0.765,0.579-1.147,0.869c-0.388,0.294-0.762,0.603-1.142,0.904
		c0.003-0.042,0.01-0.085,0.012-0.126c0.098-1.959-0.208-3.931-0.928-5.75c-0.197-0.498-0.614-0.856-1.18-0.77
		c-0.479,0.072-0.993,0.518-0.932,1.056c0.171,1.515,0.249,3.096,0.134,4.618c-0.022,0.299-0.055,0.598-0.087,0.896
		c-0.427-0.315-0.863-0.619-1.317-0.894c-0.764-0.463-1.557-0.785-2.412-1.04c-0.398-0.119-0.855,0.078-1.062,0.432
		c-0.193,0.33-0.177,0.887,0.147,1.14c0.273,0.213,0.54,0.433,0.799,0.663c0.169,0.15,0.339,0.291,0.522,0.427
		c0.072,0.054,0.145,0.107,0.218,0.161c0.024,0.018,0.036,0.027,0.051,0.037c0.012,0.01,0.021,0.017,0.04,0.032
		c0.557,0.446,1.09,0.92,1.59,1.43c0.225,0.23,0.452,0.459,0.677,0.69c-0.002,0.031,0.004,0.063,0.004,0.094
		c-0.037,0.03-0.076,0.058-0.112,0.086c-0.315,0.243-0.597,0.526-0.888,0.798c-0.523,0.487-1.051,0.97-1.583,1.448
		c-0.517,0.465-0.987,0.978-1.475,1.472c-0.321,0.325-0.675,0.818-0.693,1.293c-0.007,0.185,0.041,0.657,0.253,0.748
		c0.064,0.028,0.128,0.055,0.192,0.082c0.313,0.133,0.555,0.162,0.892,0.088c0.424-0.093,0.776-0.296,1.143-0.517
		c0.613-0.369,1.206-0.746,1.782-1.171c0.574-0.422,1.144-0.85,1.71-1.282c0.037-0.028,0.073-0.057,0.109-0.085
		c0.036,0.365,0.07,0.73,0.109,1.096c0.067,0.632,0.104,1.279,0.213,1.905c0.108,0.619,0.278,1.354,0.736,1.805
		c0.376,0.37,1.132,0.448,1.496,0c0.461-0.567,0.579-1.329,0.629-2.048c0.038-0.549,0.006-1.112,0.006-1.662
		c0-0.06-0.001-0.12-0.001-0.18c0.76,0.454,1.533,0.884,2.308,1.313c0.483,0.268,0.959,0.498,1.479,0.688
		c0.233,0.085,0.466,0.184,0.704,0.257c0.287,0.089,0.551,0.053,0.842,0.043C72.652,322.944,72.918,322.349,72.688,321.827z"/>
	<path style="fill:#FFCA5C;" d="M399.484,138.302c-0.079-0.178-0.131-0.377-0.257-0.541c-0.132-0.171-0.286-0.317-0.44-0.468
		c-0.329-0.323-0.643-0.641-1.018-0.912c-0.635-0.458-1.275-0.908-1.913-1.362c-0.618-0.44-1.263-0.844-1.897-1.26
		c-0.116-0.076-0.234-0.142-0.353-0.209c0.194-0.144,0.389-0.285,0.582-0.432c0.889-0.673,1.703-1.443,2.536-2.183
		c0.342-0.304,0.605-0.667,0.893-1.021c0.418-0.515,0.531-1.174,0.103-1.728c-0.418-0.541-1.1-0.631-1.698-0.339
		c-0.344,0.168-0.722,0.317-1.027,0.548c-0.383,0.289-0.765,0.579-1.147,0.869c-0.388,0.294-0.762,0.603-1.142,0.904
		c0.003-0.042,0.01-0.085,0.012-0.126c0.098-1.959-0.208-3.931-0.928-5.75c-0.197-0.498-0.614-0.856-1.18-0.771
		c-0.479,0.072-0.993,0.518-0.932,1.056c0.171,1.515,0.249,3.096,0.135,4.618c-0.022,0.299-0.056,0.598-0.087,0.896
		c-0.427-0.315-0.863-0.619-1.317-0.894c-0.764-0.463-1.557-0.785-2.412-1.04c-0.398-0.119-0.855,0.078-1.062,0.432
		c-0.193,0.33-0.177,0.887,0.147,1.14c0.273,0.213,0.54,0.433,0.799,0.663c0.169,0.15,0.339,0.291,0.522,0.427
		c0.072,0.054,0.145,0.107,0.217,0.161c0.024,0.018,0.036,0.027,0.051,0.037c0.012,0.01,0.021,0.017,0.04,0.032
		c0.557,0.446,1.09,0.92,1.59,1.43c0.225,0.23,0.452,0.459,0.677,0.69c-0.003,0.031,0.004,0.063,0.004,0.094
		c-0.037,0.03-0.077,0.058-0.112,0.086c-0.315,0.243-0.596,0.527-0.888,0.798c-0.523,0.487-1.051,0.97-1.583,1.448
		c-0.517,0.465-0.987,0.978-1.476,1.473c-0.321,0.325-0.675,0.818-0.693,1.293c-0.007,0.185,0.041,0.657,0.253,0.748
		c0.064,0.028,0.128,0.055,0.192,0.082c0.313,0.133,0.556,0.162,0.892,0.088c0.424-0.093,0.776-0.296,1.143-0.517
		c0.613-0.369,1.206-0.746,1.782-1.17c0.574-0.423,1.144-0.85,1.71-1.282c0.037-0.028,0.073-0.057,0.109-0.085
		c0.036,0.365,0.07,0.73,0.109,1.096c0.067,0.632,0.104,1.279,0.213,1.905c0.108,0.619,0.278,1.354,0.736,1.805
		c0.376,0.37,1.132,0.448,1.496,0c0.461-0.567,0.579-1.328,0.629-2.048c0.038-0.549,0.006-1.111,0.006-1.662
		c0-0.06-0.001-0.12-0.001-0.18c0.76,0.455,1.533,0.884,2.308,1.313c0.483,0.268,0.959,0.498,1.479,0.688
		c0.233,0.085,0.466,0.183,0.704,0.257c0.287,0.089,0.551,0.053,0.842,0.043C399.448,139.419,399.714,138.824,399.484,138.302z"/>
	<path style="fill:#FFCA5C;" d="M85.518,181.579c-0.055-0.125-0.092-0.265-0.18-0.38c-0.093-0.12-0.201-0.223-0.309-0.328
		c-0.231-0.227-0.451-0.45-0.715-0.64c-0.445-0.321-0.895-0.637-1.343-0.956c-0.434-0.309-0.886-0.592-1.332-0.884
		c-0.082-0.053-0.164-0.1-0.248-0.147c0.136-0.101,0.274-0.2,0.409-0.303c0.624-0.473,1.195-1.013,1.78-1.532
		c0.24-0.213,0.425-0.468,0.627-0.717c0.293-0.361,0.373-0.824,0.072-1.213c-0.293-0.38-0.772-0.443-1.192-0.238
		c-0.241,0.118-0.507,0.222-0.721,0.384c-0.269,0.203-0.537,0.407-0.805,0.61c-0.272,0.206-0.535,0.423-0.801,0.635
		c0.002-0.029,0.007-0.059,0.008-0.089c0.069-1.375-0.146-2.759-0.651-4.036c-0.138-0.349-0.431-0.6-0.828-0.541
		c-0.336,0.051-0.697,0.364-0.655,0.741c0.12,1.063,0.175,2.173,0.094,3.241c-0.016,0.21-0.039,0.419-0.061,0.629
		c-0.3-0.221-0.605-0.434-0.924-0.628c-0.536-0.325-1.093-0.551-1.693-0.73c-0.279-0.083-0.6,0.055-0.746,0.303
		c-0.135,0.231-0.124,0.623,0.103,0.8c0.192,0.15,0.379,0.304,0.561,0.465c0.119,0.105,0.238,0.204,0.366,0.299
		c0.051,0.038,0.102,0.075,0.153,0.113c0.017,0.013,0.025,0.019,0.035,0.026c0.009,0.007,0.015,0.012,0.028,0.023
		c0.391,0.313,0.765,0.646,1.116,1.003c0.158,0.161,0.318,0.322,0.475,0.484c-0.002,0.022,0.003,0.044,0.003,0.066
		c-0.026,0.021-0.054,0.041-0.079,0.061c-0.221,0.171-0.419,0.37-0.623,0.56c-0.367,0.342-0.738,0.681-1.111,1.016
		c-0.363,0.326-0.693,0.686-1.036,1.033c-0.225,0.228-0.474,0.575-0.486,0.907c-0.005,0.13,0.029,0.461,0.177,0.525
		c0.045,0.019,0.09,0.039,0.135,0.058c0.22,0.093,0.39,0.114,0.626,0.062c0.298-0.065,0.545-0.208,0.802-0.363
		c0.43-0.259,0.846-0.524,1.251-0.822c0.403-0.296,0.803-0.596,1.201-0.9c0.026-0.02,0.051-0.04,0.077-0.06
		c0.025,0.256,0.049,0.512,0.077,0.769c0.047,0.444,0.073,0.898,0.149,1.337c0.076,0.435,0.195,0.951,0.517,1.267
		c0.264,0.26,0.794,0.314,1.05,0c0.324-0.398,0.406-0.933,0.441-1.438c0.027-0.385,0.004-0.78,0.004-1.167
		c0-0.042-0.001-0.084-0.001-0.127c0.533,0.319,1.076,0.62,1.62,0.922c0.339,0.188,0.673,0.35,1.038,0.483
		c0.164,0.06,0.327,0.129,0.494,0.18c0.201,0.063,0.387,0.037,0.591,0.03C85.493,182.363,85.679,181.946,85.518,181.579z"/>
	<path style="fill:#FF845C;" d="M426.553,155.462c-0.055-0.125-0.092-0.265-0.18-0.38c-0.093-0.12-0.201-0.223-0.309-0.328
		c-0.231-0.227-0.451-0.45-0.715-0.64c-0.445-0.322-0.895-0.637-1.343-0.956c-0.434-0.309-0.886-0.592-1.332-0.884
		c-0.082-0.053-0.164-0.1-0.248-0.147c0.136-0.101,0.273-0.2,0.409-0.303c0.624-0.473,1.195-1.013,1.78-1.532
		c0.24-0.213,0.425-0.468,0.627-0.717c0.293-0.361,0.373-0.824,0.072-1.213c-0.293-0.38-0.772-0.443-1.192-0.238
		c-0.241,0.118-0.507,0.222-0.721,0.384c-0.269,0.203-0.537,0.407-0.805,0.61c-0.272,0.206-0.534,0.423-0.801,0.635
		c0.002-0.029,0.007-0.059,0.008-0.089c0.069-1.375-0.146-2.76-0.651-4.036c-0.138-0.349-0.431-0.6-0.828-0.541
		c-0.336,0.051-0.697,0.363-0.655,0.741c0.12,1.063,0.175,2.173,0.095,3.241c-0.016,0.21-0.039,0.419-0.061,0.629
		c-0.3-0.221-0.605-0.434-0.925-0.627c-0.536-0.325-1.093-0.551-1.693-0.73c-0.279-0.083-0.6,0.055-0.746,0.303
		c-0.135,0.231-0.124,0.623,0.103,0.8c0.192,0.15,0.379,0.304,0.561,0.465c0.119,0.105,0.238,0.205,0.366,0.299
		c0.051,0.038,0.102,0.075,0.153,0.113c0.017,0.013,0.026,0.019,0.036,0.026c0.009,0.007,0.014,0.012,0.028,0.023
		c0.391,0.313,0.765,0.646,1.116,1.003c0.158,0.161,0.317,0.322,0.475,0.484c-0.002,0.022,0.003,0.044,0.003,0.066
		c-0.026,0.021-0.054,0.041-0.079,0.06c-0.221,0.171-0.419,0.37-0.623,0.56c-0.367,0.342-0.738,0.681-1.111,1.016
		c-0.363,0.326-0.693,0.686-1.036,1.034c-0.225,0.228-0.474,0.574-0.486,0.907c-0.005,0.13,0.029,0.461,0.177,0.525
		c0.045,0.019,0.09,0.039,0.135,0.058c0.22,0.093,0.39,0.114,0.626,0.062c0.298-0.065,0.544-0.208,0.802-0.363
		c0.43-0.259,0.846-0.524,1.251-0.822c0.403-0.297,0.803-0.596,1.201-0.9c0.026-0.02,0.051-0.04,0.077-0.06
		c0.025,0.256,0.049,0.512,0.077,0.769c0.047,0.444,0.073,0.897,0.149,1.337c0.076,0.435,0.195,0.951,0.517,1.267
		c0.264,0.26,0.794,0.314,1.05,0c0.323-0.398,0.406-0.933,0.441-1.438c0.027-0.385,0.004-0.78,0.004-1.166
		c0-0.042-0.001-0.084-0.001-0.127c0.533,0.319,1.076,0.62,1.62,0.922c0.339,0.188,0.673,0.35,1.038,0.483
		c0.164,0.06,0.327,0.129,0.494,0.181c0.201,0.063,0.387,0.037,0.591,0.03C426.528,156.246,426.714,155.828,426.553,155.462z"/>
	<path style="fill:#FFCA5C;" d="M427.947,320.029c-0.055-0.125-0.092-0.265-0.18-0.379c-0.093-0.12-0.201-0.223-0.309-0.328
		c-0.231-0.227-0.451-0.45-0.715-0.64c-0.445-0.321-0.895-0.637-1.343-0.956c-0.434-0.309-0.886-0.592-1.332-0.884
		c-0.081-0.053-0.164-0.1-0.248-0.147c0.136-0.101,0.273-0.2,0.409-0.303c0.624-0.473,1.195-1.013,1.78-1.532
		c0.24-0.213,0.425-0.468,0.627-0.717c0.293-0.361,0.373-0.824,0.072-1.213c-0.293-0.38-0.772-0.443-1.192-0.238
		c-0.241,0.118-0.507,0.222-0.721,0.384c-0.269,0.203-0.537,0.407-0.805,0.61c-0.272,0.206-0.535,0.423-0.801,0.635
		c0.002-0.029,0.007-0.059,0.008-0.089c0.069-1.375-0.146-2.759-0.651-4.036c-0.138-0.349-0.431-0.6-0.828-0.541
		c-0.336,0.051-0.697,0.363-0.654,0.741c0.12,1.063,0.175,2.173,0.094,3.241c-0.016,0.21-0.039,0.42-0.061,0.629
		c-0.3-0.221-0.605-0.434-0.925-0.628c-0.536-0.325-1.093-0.551-1.693-0.73c-0.279-0.083-0.6,0.055-0.746,0.303
		c-0.135,0.231-0.124,0.623,0.103,0.8c0.192,0.15,0.379,0.304,0.561,0.465c0.119,0.105,0.238,0.204,0.366,0.299
		c0.051,0.038,0.102,0.075,0.153,0.113c0.017,0.013,0.025,0.019,0.036,0.026c0.009,0.007,0.014,0.012,0.028,0.022
		c0.391,0.313,0.765,0.646,1.116,1.004c0.158,0.161,0.317,0.322,0.475,0.484c-0.002,0.022,0.003,0.044,0.003,0.066
		c-0.026,0.021-0.054,0.041-0.079,0.061c-0.221,0.171-0.419,0.37-0.623,0.56c-0.367,0.342-0.738,0.681-1.111,1.016
		c-0.363,0.326-0.693,0.686-1.036,1.034c-0.225,0.228-0.474,0.574-0.486,0.907c-0.005,0.13,0.029,0.461,0.177,0.525
		c0.045,0.019,0.09,0.039,0.135,0.058c0.22,0.093,0.39,0.114,0.626,0.062c0.298-0.065,0.544-0.208,0.802-0.363
		c0.43-0.259,0.846-0.524,1.251-0.822c0.403-0.297,0.803-0.596,1.201-0.9c0.026-0.02,0.051-0.04,0.077-0.06
		c0.025,0.256,0.049,0.512,0.077,0.769c0.047,0.444,0.073,0.898,0.15,1.337c0.076,0.435,0.195,0.951,0.517,1.267
		c0.264,0.26,0.794,0.314,1.05,0c0.323-0.398,0.406-0.932,0.441-1.438c0.027-0.385,0.004-0.78,0.004-1.167
		c0-0.042-0.001-0.084-0.001-0.127c0.533,0.319,1.076,0.62,1.62,0.922c0.339,0.188,0.673,0.35,1.038,0.483
		c0.164,0.06,0.327,0.129,0.494,0.18c0.201,0.063,0.387,0.037,0.591,0.03C427.922,320.813,428.108,320.396,427.947,320.029z"/>
	<path style="fill:#FFCA5C;" d="M103.199,408.684c-0.055-0.125-0.092-0.265-0.18-0.38c-0.093-0.12-0.201-0.223-0.309-0.328
		c-0.231-0.227-0.451-0.45-0.715-0.64c-0.445-0.322-0.895-0.637-1.343-0.956c-0.434-0.309-0.886-0.592-1.332-0.884
		c-0.082-0.053-0.165-0.1-0.248-0.147c0.136-0.101,0.273-0.2,0.409-0.303c0.624-0.473,1.195-1.013,1.78-1.532
		c0.24-0.213,0.425-0.468,0.627-0.717c0.293-0.361,0.373-0.824,0.072-1.213c-0.293-0.38-0.772-0.443-1.192-0.238
		c-0.241,0.118-0.507,0.222-0.721,0.384c-0.269,0.203-0.537,0.407-0.805,0.61c-0.272,0.206-0.535,0.423-0.801,0.635
		c0.002-0.029,0.007-0.059,0.008-0.089c0.069-1.375-0.146-2.76-0.651-4.036c-0.138-0.349-0.431-0.601-0.828-0.541
		c-0.336,0.051-0.697,0.363-0.654,0.741c0.12,1.063,0.175,2.173,0.094,3.241c-0.016,0.21-0.039,0.42-0.061,0.629
		c-0.3-0.221-0.605-0.434-0.925-0.627c-0.536-0.325-1.093-0.551-1.693-0.73c-0.279-0.083-0.6,0.055-0.746,0.303
		c-0.135,0.231-0.124,0.623,0.103,0.8c0.192,0.15,0.379,0.304,0.561,0.465c0.119,0.105,0.238,0.204,0.366,0.299
		c0.051,0.038,0.102,0.075,0.153,0.113c0.017,0.012,0.026,0.019,0.035,0.026c0.009,0.007,0.014,0.012,0.028,0.022
		c0.391,0.313,0.765,0.646,1.116,1.004c0.158,0.161,0.317,0.322,0.475,0.484c-0.002,0.022,0.003,0.044,0.003,0.066
		c-0.026,0.021-0.054,0.041-0.079,0.06c-0.221,0.171-0.419,0.37-0.623,0.56c-0.367,0.342-0.738,0.681-1.111,1.016
		c-0.363,0.326-0.693,0.686-1.036,1.034c-0.225,0.228-0.474,0.574-0.486,0.907c-0.005,0.13,0.029,0.461,0.177,0.525
		c0.045,0.019,0.09,0.039,0.135,0.058c0.22,0.093,0.39,0.113,0.626,0.062c0.298-0.065,0.544-0.208,0.802-0.363
		c0.43-0.259,0.846-0.524,1.251-0.822c0.403-0.297,0.803-0.597,1.201-0.9c0.026-0.02,0.051-0.04,0.077-0.06
		c0.025,0.256,0.049,0.512,0.077,0.769c0.047,0.444,0.073,0.898,0.15,1.337c0.076,0.435,0.195,0.951,0.517,1.267
		c0.264,0.26,0.794,0.314,1.05,0c0.324-0.398,0.406-0.932,0.441-1.438c0.027-0.385,0.004-0.78,0.004-1.167
		c0-0.042-0.001-0.084-0.001-0.127c0.533,0.319,1.076,0.621,1.62,0.922c0.339,0.188,0.673,0.35,1.038,0.483
		c0.164,0.06,0.327,0.129,0.494,0.181c0.201,0.063,0.387,0.037,0.591,0.03C103.174,409.468,103.36,409.05,103.199,408.684z"/>
</g>
</svg>
