<?xml version="1.0" encoding="utf-8"?>
<!-- Generator: Adobe Illustrator 27.5.0, SVG Export Plug-In . SVG Version: 6.00 Build 0)  -->
<svg version="1.1" id="Capa_1" xmlns="http://www.w3.org/2000/svg" xmlns:xlink="http://www.w3.org/1999/xlink" x="0px" y="0px"
	 viewBox="0 0 2122 2122" style="enable-background:new 0 0 2122 2122;" xml:space="preserve">
<g>
	<path style="fill:#65817C;" d="M1611.043,1361.934c-4.76,17.671-10.987,34.743-18.494,51.128
		c65.071,24.852,104.007,56.794,105.464,92.906c3.759,93.126-242.981,178.694-551.105,191.123
		c-308.124,12.434-560.954-52.979-564.71-146.104c-0.964-23.864,14.563-47.23,43.325-69.004
		c-28.733-35.883-50.058-77.9-61.827-123.644c-221.736,48.945-366.068,128.609-366.068,218.582
		c0,148.823,394.784,269.466,881.777,269.466c486.991,0,881.777-120.643,881.777-269.466
		C1961.181,1489.12,1823.737,1411.132,1611.043,1361.934z"/>
	<path style="fill:#54736C;" d="M1292.824,1606.27H882.832c-85.968,0-164.511-33.359-223.308-87.8
		c-12.222-11.289-23.593-23.483-34.002-36.487c-28.762,21.774-44.29,45.14-43.325,69.004
		c3.756,93.125,256.587,158.538,564.71,146.104c308.124-12.429,554.864-97.997,551.105-191.123
		c-1.457-36.112-40.392-68.053-105.464-92.906C1540.441,1526.753,1425.508,1606.27,1292.824,1606.27z"/>
	<path style="fill:#FCCE9A;" d="M1838.987,1590.416c-339.11,160.628-722.326,230.938-1094.225,161.71
		c-102.307-19.045-201.396-49.846-299.676-83.552c-7.557-2.592-10.3,8.853-3.235,11.737
		c173.132,70.767,366.598,100.268,552.747,106.651c186.47,6.397,376.246-15.328,554.774-70.523
		c100.821-31.172,199.568-70.86,291.634-122.568C1843.281,1592.594,1841.281,1589.33,1838.987,1590.416z"/>
	<path style="fill:#FCCE9A;" d="M463.719,1418.679c-37.952,6.86-75.428,26.417-107.501,47.201
		c-29.654,19.215-63.323,42.782-81.181,73.885c-0.704,1.233,0.777,2.958,2.053,2.057c30.592-21.555,55.63-49.199,87.742-69.174
		c32.326-20.102,66.952-32.39,101.778-47.108C470.779,1423.776,467.59,1417.983,463.719,1418.679z"/>
	<path style="fill:#E07C3F;" d="M417.21,1239.678c-36.178,1.735-74.931-1.432-97.895-25.486
		c-10.492-10.986-16.283-25.637-20.638-40.238c-34.346-114.475-31.03-281.164,51.077-375.595
		c29.498-33.951,72.953-59.786,117.099-65.081c-2.03-33.111-4.999-66.171-8.909-99.133c-0.691-5.693-1.237-11.532-1.831-17.52
		c-41.82,3.513-82.997,16.728-120.563,39.496c-146.299,88.54-185.395,279.58-173.371,439.042
		c5.593,73.993,30.538,149.915,81.464,205.296c33.36,36.326,84.137,50.976,135.411,55.132c6.731-17.471,13.015-35.137,18.957-52.906
		C404.937,1281.847,411.371,1260.814,417.21,1239.678z"/>
	<path style="fill:#BF5C25;" d="M466.852,733.277c22.122-2.721,44.443-0.197,65.279,9.057c6.869,3.05,14.027,5.096,21.184,6.122
		V625.901c-31.947-8.923-64.777-12.082-97.203-9.276c0.594,5.988,1.14,11.827,1.831,17.52
		C461.853,667.107,464.822,700.167,466.852,733.277z"/>
	<path style="fill:#BF5C25;" d="M553.315,1220.102c-28.862,7.25-58.178,12.682-87.8,15.469c-14.153,1.339-30.93,3.269-48.304,4.107
		c-5.839,21.136-12.273,42.168-19.201,63.006c-5.942,17.769-12.227,35.435-18.957,52.906c29.747,2.427,59.688,1.286,86.462-1.237
		c31.686-2.972,63.067-7.703,94.063-14.236c-4.041-20.536-6.263-41.7-6.263-63.367V1220.102z"/>
	<path style="fill:#993123;" d="M553.315,860.125c5.344,0.1,10.789,0.497,16.182,1.138c31.676,3.713,68.102,18.56,99.627,7.919
		c24.153-8.165,41.031-30.487,60.036-46.324c35.038-29.15,76.166-42.068,120.412-26.034c40.536,14.699,71.815,45.978,111.31,62.46
		c40.285,16.777,75.326-2.226,108.734-24.745c35.189-23.659,68.694-51.523,110.119-63.798
		c47.018-13.905,91.165,0.694,132.787,23.116c12.013,6.504,23.851,13.61,36.064,19.878c31.883-83.072,53.01-169.688,60.984-257.63
		c-87.33,22.195-200.202,35.574-323.473,35.574c-212.519,0-394.155-39.742-467.254-95.915
		c-22.222-17.075-34.397-35.635-34.397-55.036c0-0.694,0-1.386,0.1-2.078c3.612-82.455,226.821-148.872,501.551-148.872
		c100.121,0,193.366,8.809,271.612,24.002c14.256,2.77,27.985,5.761,41.199,8.938c-1.133-6.17-2.256-12.341-3.535-18.489
		c-86.957-18.46-193.069-29.299-307.544-29.299c-295.22,0-534.513,72.01-534.513,160.847V860.125z"/>
	<path style="fill:#993123;" d="M584.296,1074.178c57.856,8.614,119.028,59.537,178.47,35.683
		c45.332-18.212,77.603-58.548,124.967-73.593c45.878-14.602,90.767-0.198,131.055,22.764
		c35.337,20.095,73.741,55.827,116.355,57.016c23.345,0.662,42.731-12.01,60.356-27.542
		c51.452-68.487,95.639-142.667,130.546-220.543c-22.1-11.116-43.325-24.375-66.329-34.268
		c-38.853-16.728-71.518-6.731-105.815,14.799c-64.587,40.585-126.799,99.182-208.808,68.051
		c-37.069-14.056-66.765-40.336-101.803-58.005c-41.725-21.084-66.321,1.137-97.055,28.952
		c-36.675,33.211-74.19,48.453-124.275,42.217c-13.956-1.684-42.465-9.749-68.645-11.384v153.771
		C563.755,1071.903,574.199,1072.692,584.296,1074.178z"/>
	<path style="fill:#993123;" d="M659.524,1518.47c166.938-85.028,321.846-191.732,449.934-327.736
		c4.938-5.248,9.8-10.577,14.648-15.917c-37.41-4.005-71.432-24.897-102.745-44.566c-34.595-21.773-74.979-51.42-117.839-36.721
		c-46.029,15.737-78.843,56.819-124.97,73.593c-56.865,20.687-110.762-3.659-163.868-23.211
		c-17.074-6.285-39.988-12.965-61.369-13.164v146.002c0,21.666,2.222,42.831,6.263,63.367c1.208,6.134,2.57,12.209,4.117,18.221
		c11.769,45.745,33.094,87.761,61.827,123.644C635.931,1494.987,647.302,1507.181,659.524,1518.47z"/>
	<path style="fill:#B04937;" d="M1551.469,1012.015c-20.044,10.841-32.365,36.181-47.116,52.663
		c-36.624,41.028-82.355,42.266-131.252,23.605c-21.727-8.263-45.632-20.438-68.994-11.678
		c-17.52,6.631-31.625,20.487-45.086,33.008c-34.051,31.63-69.04,64.044-118.136,65.827c-5.669,0.205-11.259-0.034-16.78-0.624
		c-4.847,5.34-9.71,10.669-14.648,15.917c-128.087,136.004-282.996,242.708-449.934,327.736c58.797,54.441,137.34,87.8,223.308,87.8
		h409.992c132.684,0,247.617-79.517,299.724-193.208c7.508-16.385,13.734-33.457,18.494-51.128
		c7.33-27.201,11.301-55.746,11.301-85.184v-249.788C1600.468,1013.847,1573.691,1000.039,1551.469,1012.015z"/>
	<path style="fill:#B04937;" d="M1385.623,888.186c-21.569-2.948-40.884-10.821-59.578-20.222
		c-34.906,77.876-79.094,152.056-130.546,220.543c14.061-12.395,27.001-26.602,39.915-37.342
		c39.99-33.257,82.75-45.335,133.084-27.915c21.184,7.374,48.85,25.142,71.812,17.223c17.969-6.185,30.093-27.763,41.079-41.771
		c33.951-43.206,78.743-61.766,132.344-41.374c2.623,0.989,5.493,2.326,8.611,3.91V825.133c-22.073,2.427-44.443,9.9-62.36,17.372
		C1503.859,865.818,1448.626,896.848,1385.623,888.186z"/>
	<path style="fill:#B04937;" d="M1587.698,440.729c0,9.058-2.673,17.966-7.771,26.626c-20.914,35.384-82.796,66.497-170.358,88.75
		c-7.974,87.942-29.101,174.558-60.984,257.63c10.735,5.51,21.756,10.377,33.473,13.527c27.269,7.277,54.689,1.237,80.821-7.671
		c53.403-18.263,102.051-50.482,159.464-54.541V435.779c0-54.392-89.681-102.448-226.972-131.549
		c1.279,6.148,2.402,12.319,3.535,18.489C1513.961,350.384,1587.698,392.961,1587.698,440.729z"/>
	<path style="fill:#3A1E16;" d="M931.236,371.738c137.588-19.255,295.32-24.005,439.339,9.203
		c75.13,17.323,146.548,44.989,209.352,86.414c5.098-8.66,7.771-17.568,7.771-26.626c0-47.768-73.737-90.346-188.791-118.01
		c-13.214-3.177-26.943-6.168-41.199-8.938c-78.246-15.194-171.491-24.002-271.612-24.002c-274.73,0-497.939,66.416-501.551,148.872
		c-0.1,0.692-0.1,1.384-0.1,2.078c0,19.401,12.175,37.961,34.397,55.036C695.556,415.141,827.402,386.289,931.236,371.738z"/>
	<path style="fill:#C6594A;" d="M1543.823,1127.8c-14.051-4.57-29.834,1.856-40.261,12.326
		c-10.426,10.47-16.553,24.37-22.217,38.017c-32.148,77.461-59.708,162.197-124.667,215.239
		c-33.052,26.992-73.561,43.601-106.813,70.348c-13.196,10.612-25.837,24.103-27.883,40.911
		c-9.325,76.609,108.572,45.988,145.049,32.731c62.585-22.748,119.91-61.696,160.361-115.001
		c54.709-72.092,75.724-170.972,46.492-256.623C1568.473,1149.895,1559.757,1132.984,1543.823,1127.8z"/>
	<path style="fill:#6D2417;" d="M1579.927,467.355c-62.804-41.425-134.221-69.091-209.352-86.414
		c-144.019-33.208-301.751-28.458-439.339-9.203c-103.834,14.551-235.68,43.403-312.394,124.027
		c73.099,56.172,254.735,95.915,467.254,95.915c123.272,0,236.143-13.379,323.473-35.574
		C1497.131,533.852,1559.014,502.739,1579.927,467.355z"/>
	<path style="fill:#A94538;" d="M1281.959,473.709c-65.564,19.576-134.061,27.817-202.302,29.761
		c-38.785,1.106-77.613,0.149-116.341-2.097c35.666,27.186,81.488,36.553,125.795,43.496
		c94.068,14.743,192.479,21.659,282.669-8.865c18.991-6.429,38.058-14.904,51.459-29.817c13.401-14.911,19.785-37.649,10.777-55.561
		C1409.355,401.592,1314.875,463.882,1281.959,473.709z"/>
	<path style="fill:#A94538;" d="M928.99,391.297c-54.623,8.96-112.282,25.232-147.454,67.973
		c-5.971,7.255-11.362,15.754-11.442,25.15c-0.124,14.205,12.779,26.217,26.799,28.519c21.484,3.525,38.224-10.049,54.083-22.027
		c21.16-15.98,43.995-29.822,67.798-41.486c47.683-23.369,99.727-37.905,152.67-42.234
		C1030.527,380.333,977.287,383.375,928.99,391.297z"/>
	<path style="fill:#DB7D2D;" d="M1382.059,827.263c-11.717-3.15-22.738-8.017-33.473-13.527
		c-12.212-6.268-24.051-13.374-36.064-19.878c-41.622-22.422-85.768-37.021-132.787-23.116
		c-41.425,12.275-74.93,40.139-110.119,63.798c-33.408,22.519-68.449,41.522-108.734,24.745
		c-39.496-16.482-70.774-47.761-111.31-62.46c-44.246-16.034-85.374-3.116-120.412,26.034
		c-19.006,15.837-35.883,38.158-60.036,46.324c-31.525,10.641-67.951-4.207-99.627-7.919c-5.394-0.641-10.838-1.038-16.182-1.138
		v58.202c26.18,1.635,54.689,9.7,68.645,11.384c50.085,6.236,87.6-9.006,124.275-42.217c30.733-27.815,55.33-50.036,97.055-28.952
		c35.038,17.669,64.733,43.949,101.803,58.005c82.01,31.13,144.221-27.467,208.808-68.051
		c34.297-21.53,66.962-31.527,105.815-14.799c23.003,9.893,44.229,23.153,66.329,34.268c18.694,9.401,38.009,17.274,59.578,20.222
		c63.003,8.662,118.236-22.368,174.36-45.681c17.917-7.472,40.287-14.945,62.36-17.372v-60.082
		c-57.413,4.058-106.061,36.277-159.464,54.541C1436.748,828.5,1409.328,834.539,1382.059,827.263z"/>
	<path style="fill:#DB7D2D;" d="M1481.389,998.702c-10.986,14.007-23.111,35.586-41.079,41.771
		c-22.962,7.92-50.628-9.849-71.812-17.223c-50.334-17.42-93.094-5.342-133.084,27.915c-12.914,10.74-25.854,24.948-39.915,37.342
		c-17.625,15.532-37.011,28.204-60.356,27.542c-42.614-1.189-81.018-36.921-116.355-57.016
		c-40.287-22.962-85.177-37.366-131.055-22.764c-47.364,15.045-79.634,55.381-124.967,73.593
		c-59.442,23.854-120.614-27.07-178.47-35.683c-10.097-1.486-20.541-2.276-30.981-2.08v58.651
		c21.381,0.2,44.295,6.879,61.369,13.164c53.106,19.552,107.004,43.898,163.868,23.211c46.127-16.775,78.94-57.856,124.97-73.593
		c42.86-14.699,83.245,14.948,117.839,36.721c31.313,19.669,65.335,40.56,102.745,44.566c5.52,0.589,11.111,0.828,16.78,0.624
		c49.096-1.784,84.085-34.197,118.136-65.827c13.462-12.521,27.566-26.377,45.086-33.008c23.362-8.76,47.267,3.416,68.994,11.678
		c48.897,18.661,94.628,17.423,131.252-23.605c14.751-16.482,27.072-41.822,47.116-52.663c22.222-11.976,48.999,1.832,70.874,14.948
		v-65.725c-3.118-1.583-5.988-2.921-8.611-3.91C1560.132,936.936,1515.34,955.496,1481.389,998.702z"/>
	<path style="fill:#DB7D2D;" d="M659.789,765.326c4.948,5.474,13.774,8.697,20.996,8.697c7.284,0,15.983-3.235,20.999-8.697
		c5.194-5.659,9.053-13.089,8.697-20.999c-0.363-8.1-3.218-14.935-8.697-20.996c-0.531-0.59-1.065-1.179-1.595-1.767
		c-4.948-5.476-13.773-8.696-20.999-8.696c-7.281,0-15.983,3.235-20.996,8.696c-5.196,5.659-9.052,13.089-8.699,20.996
		c0.363,8.103,3.22,14.938,8.699,20.999C658.725,764.149,659.256,764.737,659.789,765.326z"/>
	<path style="fill:#DB7D2D;" d="M806.988,989.828c7.876-0.353,15.313-3.013,20.996-8.697l1.686-1.686
		c5.386-5.384,8.697-13.384,8.697-20.996c0-7.284-3.235-15.983-8.697-20.999c-5.659-5.194-13.089-9.052-20.999-8.696
		c-7.876,0.353-15.313,3.013-20.996,8.696l-1.685,1.686c-5.384,5.384-8.697,13.384-8.697,20.996c0,7.284,3.235,15.985,8.697,20.999
		C791.648,986.327,799.078,990.183,806.988,989.828z"/>
	<path style="fill:#DB7D2D;" d="M699.687,1281.929c2.633,0.351,5.264,0.706,7.895,1.062c5.36-0.019,10.356-1.369,14.987-4.054
		c1.123-0.565,2.249-1.125,3.372-1.686c6.407-3.206,11.793-11.021,13.647-17.749c1.956-7.108,1.072-16.575-2.994-22.88
		c-4.088-6.344-10.176-11.922-17.747-13.646c-2.631-0.356-5.264-0.712-7.895-1.062c-5.359,0.015-10.356,1.369-14.987,4.054
		c-1.123,0.56-2.249,1.125-3.372,1.686c-6.406,3.201-11.793,11.016-13.647,17.744c-1.956,7.108-1.072,16.575,2.994,22.884
		C686.028,1274.621,692.116,1280.205,699.687,1281.929z"/>
	<path style="fill:#DB7D2D;" d="M1235.938,1354.299c7.115-2.304,14.248-6.762,17.746-13.646c0.568-1.12,1.138-2.241,1.705-3.362
		c3.62-7.123,5.164-15.002,2.994-22.88c-1.895-6.889-7.223-14.353-13.647-17.749c-6.891-3.64-15.24-5.466-22.882-2.991
		c-7.116,2.304-14.249,6.763-17.746,13.647c-0.568,1.121-1.138,2.241-1.705,3.357c-3.62,7.128-5.165,15.006-2.994,22.884
		c1.895,6.889,7.223,14.354,13.646,17.745C1219.947,1354.947,1228.295,1356.77,1235.938,1354.299z"/>
	<path style="fill:#DB7D2D;" d="M1122.052,1026.894c7.876-0.353,15.313-3.013,20.999-8.696c0.56-0.563,1.123-1.123,1.683-1.686
		c5.386-5.384,8.697-13.384,8.697-20.996c0-7.284-3.233-15.985-8.697-20.999c-5.659-5.196-13.089-9.052-20.996-8.697
		c-7.878,0.351-15.315,3.013-20.999,8.697l-1.686,1.686c-5.384,5.384-8.696,13.384-8.696,20.996c0,7.284,3.235,15.983,8.696,20.999
		C1106.712,1023.391,1114.142,1027.25,1122.052,1026.894z"/>
	<path style="fill:#DB7D2D;" d="M1069.604,719.362c6.894,3.642,15.243,5.466,22.884,2.994c7.177-2.324,14.129-6.777,17.747-13.647
		l1.754-3.333c3.688-7.011,5.133-15.113,2.994-22.882c-1.898-6.889-7.223-14.353-13.646-17.747
		c-6.892-3.642-15.243-5.466-22.882-2.994c-7.179,2.321-14.131,6.777-17.749,13.646l-1.754,3.333
		c-3.688,7.011-5.133,15.113-2.991,22.882C1057.855,708.505,1063.18,715.969,1069.604,719.362z"/>
	<path style="fill:#DB7D2D;" d="M1011.538,1389.262c-3.186-4.941-7.929-9.291-13.827-10.631c-2.052-0.278-4.1-0.555-6.151-0.828
		c-4.175,0.014-8.068,1.067-11.678,3.157c-3.746,1.642-7.028,5.588-9.193,8.96c-2.176,3.386-3.698,8.984-3.547,12.989
		c0.171,4.506,1.164,8.857,3.411,12.804c0.867,1.525,2.651,3.805,3.873,5.057c1.245,1.272,3.822,3.376,5.445,4.097
		c2.655,1.69,5.525,2.606,8.602,2.743c3.077,0.692,6.151,0.55,9.228-0.41c5.367-1.481,11.181-5.627,13.827-10.636
		c2.28-4.317,3.612-9.369,3.057-14.28C1014.812,1397.749,1013.852,1392.853,1011.538,1389.262z"/>
	<path style="fill:#DB7D2D;" d="M1502.451,655.558c-3.184-4.938-7.927-9.289-13.827-10.631c-2.049-0.275-4.1-0.55-6.151-0.826
		c-4.175,0.012-8.068,1.065-11.676,3.157c-3.749,1.639-7.031,5.588-9.196,8.962c-2.173,3.386-3.698,8.979-3.545,12.986
		c0.171,4.509,1.162,8.855,3.411,12.804c0.865,1.525,2.651,3.805,3.871,5.055c1.245,1.274,3.822,3.376,5.447,4.097
		c2.655,1.691,5.522,2.607,8.602,2.748c3.074,0.687,6.151,0.55,9.226-0.414c5.366-1.479,11.181-5.628,13.827-10.634
		c2.281-4.312,3.611-9.354,3.06-14.258C1505.732,664.059,1504.767,659.153,1502.451,655.558z"/>
</g>
</svg>
